<svg width="14" height="14" viewBox="0 0 14 14" fill="none" xmlns="http://www.w3.org/2000/svg">
<mask id="path-1-inside-1_1123_3974" fill="white">
<path d="M6.29782 13.9998H4.65577L6.42979 8.74976H3.48789L2.85431 9.71401C2.69497 9.95574 2.47797 10.1541 2.22284 10.2913C1.9677 10.4284 1.68244 10.5001 1.3927 10.4998H0.00934308L1.29402 6.99976L0 3.49976H1.3857C1.67494 3.49937 1.95975 3.57076 2.21456 3.70749C2.46936 3.84423 2.68618 4.04205 2.84555 4.28317L3.48789 5.24976H6.43154L4.65577 -0.000244111H6.29782C6.61254 -0.000302302 6.92147 0.0843363 7.19212 0.244775C7.46278 0.405214 7.68517 0.635527 7.83593 0.911506L10.2546 5.24976H12.1845C12.6069 5.24445 13.0176 5.3876 13.345 5.65418C13.6724 5.92076 13.8956 6.2938 13.9755 6.70809C14.018 6.95912 14.0051 7.21639 13.9378 7.46194C13.8705 7.70749 13.7504 7.93542 13.5858 8.12981C13.4212 8.32421 13.2162 8.48039 12.9849 8.58746C12.7537 8.69454 12.5019 8.74992 12.247 8.74976H10.2546L7.83359 13.0921C7.68249 13.367 7.46023 13.5962 7.19006 13.7559C6.91989 13.9156 6.61173 13.9998 6.29782 13.9998Z"/>
</mask>
<path d="M6.29782 13.9998H4.65577L6.42979 8.74976H3.48789L2.85431 9.71401C2.69497 9.95574 2.47797 10.1541 2.22284 10.2913C1.9677 10.4284 1.68244 10.5001 1.3927 10.4998H0.00934308L1.29402 6.99976L0 3.49976H1.3857C1.67494 3.49937 1.95975 3.57076 2.21456 3.70749C2.46936 3.84423 2.68618 4.04205 2.84555 4.28317L3.48789 5.24976H6.43154L4.65577 -0.000244111H6.29782C6.61254 -0.000302302 6.92147 0.0843363 7.19212 0.244775C7.46278 0.405214 7.68517 0.635527 7.83593 0.911506L10.2546 5.24976H12.1845C12.6069 5.24445 13.0176 5.3876 13.345 5.65418C13.6724 5.92076 13.8956 6.2938 13.9755 6.70809C14.018 6.95912 14.0051 7.21639 13.9378 7.46194C13.8705 7.70749 13.7504 7.93542 13.5858 8.12981C13.4212 8.32421 13.2162 8.48039 12.9849 8.58746C12.7537 8.69454 12.5019 8.74992 12.247 8.74976H10.2546L7.83359 13.0921C7.68249 13.367 7.46023 13.5962 7.19006 13.7559C6.91989 13.9156 6.61173 13.9998 6.29782 13.9998Z" fill="#373737"/>
<path d="M6.29782 13.9998L6.30057 -7.33358H6.29782V13.9998ZM4.65577 13.9998L-15.5549 7.17041L-25.0713 35.3331H4.65577V13.9998ZM6.42979 8.74976L26.6405 15.5791L36.1569 -12.5836H6.42979V8.74976ZM3.48789 8.74976V-12.5836H-8.02112L-14.3411 -2.96511L3.48789 8.74976ZM2.85431 9.71401L20.6662 21.4548L20.6748 21.4418L20.6833 21.4289L2.85431 9.71401ZM1.3927 10.4998L1.41586 -10.8336L1.40428 -10.8336H1.3927V10.4998ZM0.00934308 10.4998L-20.0175 3.1489L-30.5461 31.8331H0.00934308V10.4998ZM1.29402 6.99976L21.3209 14.3506L24.0288 6.97304L21.3036 -0.398157L1.29402 6.99976ZM0 3.49976V-17.8336H-30.632L-20.0095 10.8977L0 3.49976ZM1.3857 3.49976V24.8331H1.39982L1.41395 24.8331L1.3857 3.49976ZM2.84555 4.28317L-14.9518 16.0461L-14.937 16.0684L-14.9222 16.0906L2.84555 4.28317ZM3.48789 5.24976L-14.2799 17.0572L-7.94956 26.5831H3.48789V5.24976ZM6.43154 5.24976V26.5831H36.168L26.6402 -1.58565L6.43154 5.24976ZM4.65577 -0.000244111V-21.3336H-25.0807L-15.5528 6.83516L4.65577 -0.000244111ZM6.29782 -0.000244111V21.3331H6.30177L6.29782 -0.000244111ZM7.83593 0.911506L-10.8863 11.1384L-10.8421 11.2194L-10.7972 11.2999L7.83593 0.911506ZM10.2546 5.24976L-8.37846 15.6382L-2.27639 26.5831H10.2546V5.24976ZM12.1845 5.24976V26.5831H12.3184L12.4523 26.5814L12.1845 5.24976ZM13.9755 6.70809L35.0098 3.14892L34.9689 2.90692L34.9224 2.66593L13.9755 6.70809ZM12.247 8.74976L12.261 -12.5836H12.247V8.74976ZM10.2546 8.74976V-12.5836H-2.27624L-8.37835 -1.63887L10.2546 8.74976ZM7.83359 13.0921L-10.7994 2.70346L-10.8305 2.75934L-10.8614 2.81541L7.83359 13.0921ZM6.29782 -7.33358H4.65577V35.3331H6.29782V-7.33358ZM24.8664 20.8291L26.6405 15.5791L-13.7809 1.92041L-15.5549 7.17041L24.8664 20.8291ZM6.42979 -12.5836H3.48789V30.0831H6.42979V-12.5836ZM-14.3411 -2.96511L-14.9747 -2.00086L20.6833 21.4289L21.3169 20.4646L-14.3411 -2.96511ZM-14.9576 -2.02679C-13.1698 -4.73912 -10.7366 -6.96252 -7.87863 -8.49893L12.3243 29.0815C15.6925 27.2707 18.5597 24.6506 20.6662 21.4548L-14.9576 -2.02679ZM-7.87863 -8.49893C-5.02082 -10.0353 -1.82695 -10.8371 1.41586 -10.8336L1.36955 31.8331C5.19183 31.8372 8.95623 30.8921 12.3243 29.0815L-7.87863 -8.49893ZM1.3927 -10.8336H0.00934308V31.8331H1.3927V-10.8336ZM20.0362 17.8506L21.3209 14.3506L-18.7329 -0.351104L-20.0175 3.1489L20.0362 17.8506ZM21.3036 -0.398157L20.0095 -3.89816L-20.0095 10.8977L-18.7155 14.3977L21.3036 -0.398157ZM0 24.8331H1.3857V-17.8336H0V24.8331ZM1.41395 24.8331C-1.82573 24.8374 -5.01681 24.0379 -7.87301 22.5052L12.3021 -15.0902C8.93632 -16.8964 5.17561 -17.8386 1.35744 -17.8336L1.41395 24.8331ZM-7.87301 22.5052C-10.7293 20.9723 -13.1623 18.7536 -14.9518 16.0461L20.6429 -7.47973C18.5347 -10.6695 15.6681 -13.2839 12.3021 -15.0902L-7.87301 22.5052ZM-14.9222 16.0906L-14.2799 17.0572L21.2557 -6.55772L20.6133 -7.5243L-14.9222 16.0906ZM3.48789 26.5831H6.43154V-16.0836H3.48789V26.5831ZM26.6402 -1.58565L24.8644 -6.83565L-15.5528 6.83516L-13.7771 12.0852L26.6402 -1.58565ZM4.65577 21.3331H6.29782V-21.3336H4.65577V21.3331ZM6.30177 21.3331C2.7883 21.3337 -0.661814 20.3889 -3.68614 18.5962L18.0704 -18.1066C14.5047 -20.2203 10.4368 -21.3343 6.29388 -21.3336L6.30177 21.3331ZM-3.68614 18.5962C-6.71063 16.8034 -9.19866 14.2279 -10.8863 11.1384L26.5582 -9.31538C24.569 -12.9569 21.6362 -15.9929 18.0704 -18.1066L-3.68614 18.5962ZM-10.7972 11.2999L-8.37846 15.6382L28.8877 -5.13868L26.469 -9.47693L-10.7972 11.2999ZM10.2546 26.5831H12.1845V-16.0836H10.2546V26.5831ZM12.4523 26.5814C7.87789 26.6388 3.42582 25.0885 -0.12535 22.1969L26.8154 -10.8885C22.6094 -14.3133 17.3358 -16.1499 11.9168 -16.0819L12.4523 26.5814ZM-0.12535 22.1969C-3.67703 19.3048 -6.10228 15.2541 -6.97139 10.7502L34.9224 2.66593C33.8934 -2.66646 31.0218 -7.4633 26.8154 -10.8885L-0.12535 22.1969ZM-7.05884 10.2673C-7.53471 7.45495 -7.39053 4.57276 -6.63657 1.82222L34.5122 13.1017C35.4007 9.86001 35.5707 6.46329 35.0098 3.14892L-7.05884 10.2673ZM-6.63657 1.82222C-5.88263 -0.928232 -4.53744 -3.47966 -2.69623 -5.6545L29.8678 21.9141C32.0382 19.3505 33.6236 16.3432 34.5122 13.1017L-6.63657 1.82222ZM-2.69623 -5.6545C-0.855097 -7.82924 1.43746 -9.57486 4.02053 -10.771L21.9493 27.9459C24.9949 26.5356 27.6975 24.4777 29.8678 21.9141L-2.69623 -5.6545ZM4.02053 -10.771C6.60353 -11.9671 9.41566 -12.5854 12.261 -12.5836L12.2331 30.0831C15.5881 30.0853 18.9039 29.3562 21.9493 27.9459L4.02053 -10.771ZM12.247 -12.5836H10.2546V30.0831H12.247V-12.5836ZM-8.37835 -1.63887L-10.7994 2.70346L26.4666 23.4807L28.8876 19.1384L-8.37835 -1.63887ZM-10.8614 2.81541C-9.16986 -0.261704 -6.68336 -2.82535 -3.66431 -4.60966L18.0444 32.1215C21.6038 30.0178 24.5348 26.9956 26.5285 23.3688L-10.8614 2.81541ZM-3.66431 -4.60966C-0.645415 -6.39388 2.79613 -7.33403 6.30057 -7.33358L6.29507 35.3331C10.4273 35.3336 14.4852 34.225 18.0444 32.1215L-3.66431 -4.60966Z" fill="#6D8CAC" mask="url(#path-1-inside-1_1123_3974)"/>
</svg>
