<svg width="12" height="12" viewBox="0 0 12 12" fill="none" xmlns="http://www.w3.org/2000/svg">
<path d="M6.00088 7.88992C5.48556 7.88992 4.99134 7.69079 4.62695 7.33635C4.26256 6.9819 4.05785 6.50117 4.05785 5.9999C4.05785 5.49864 4.26256 5.01791 4.62695 4.66346C4.99134 4.30901 5.48556 4.10989 6.00088 4.10989C6.51621 4.10989 7.01043 4.30901 7.37482 4.66346C7.73921 5.01791 7.94392 5.49864 7.94392 5.9999C7.94392 6.50117 7.73921 6.9819 7.37482 7.33635C7.01043 7.69079 6.51621 7.88992 6.00088 7.88992ZM10.1257 6.52371C10.1479 6.35091 10.1645 6.1781 10.1645 5.9999C10.1645 5.8217 10.1479 5.6435 10.1257 5.4599L11.2971 4.57969C11.4025 4.49869 11.4303 4.35289 11.3637 4.23409L10.2534 2.36567C10.1867 2.24687 10.0368 2.19827 9.91472 2.24687L8.53238 2.78687C8.2437 2.57627 7.94392 2.39267 7.59417 2.25767L7.38877 0.826657C7.37749 0.763053 7.34343 0.705386 7.29262 0.663873C7.24182 0.62236 7.17754 0.599681 7.11119 0.599855H4.89058C4.75179 0.599855 4.63521 0.697055 4.613 0.826657L4.40759 2.25767C4.05785 2.39267 3.75806 2.57627 3.46938 2.78687L2.08705 2.24687C1.96492 2.19827 1.81502 2.24687 1.74841 2.36567L0.638099 4.23409C0.565929 4.35289 0.599238 4.49869 0.704718 4.57969L1.87609 5.4599C1.85389 5.6435 1.83723 5.8217 1.83723 5.9999C1.83723 6.1781 1.85389 6.35091 1.87609 6.52371L0.704718 7.42011C0.599238 7.50112 0.565929 7.64692 0.638099 7.76572L1.74841 9.63413C1.81502 9.75294 1.96492 9.79614 2.08705 9.75294L3.46938 9.20753C3.75806 9.42353 4.05785 9.60713 4.40759 9.74214L4.613 11.1731C4.63521 11.3027 4.75179 11.4 4.89058 11.4H7.11119C7.24998 11.4 7.36656 11.3027 7.38877 11.1731L7.59417 9.74214C7.94392 9.60173 8.2437 9.42353 8.53238 9.20753L9.91472 9.75294C10.0368 9.79614 10.1867 9.75294 10.2534 9.63413L11.3637 7.76572C11.4303 7.64692 11.4025 7.50112 11.2971 7.42011L10.1257 6.52371Z" fill="#F2F5F7"/>
</svg>
