<svg width="20" height="20" viewBox="0 0 20 20" fill="none" xmlns="http://www.w3.org/2000/svg">
<path d="M16.7953 13.8979C16.8412 13.9697 16.9056 14.0946 16.9331 14.1756C16.9928 14.3421 17.0181 14.6035 16.9859 14.7539C16.94 14.9737 16.7769 15.2489 16.3359 15.8458C16.0694 16.2044 15.5916 16.6971 15.3987 16.8128C14.9416 17.0811 14.5534 17.0649 13.6599 16.7388C12.1277 16.1789 10.6508 15.36 9.22661 14.2843C6.50001 12.2254 4.51541 9.63212 3.18543 6.38418C3.01545 5.97008 2.98789 5.8359 3.00396 5.51204C3.02235 5.11877 3.14406 4.82036 3.46105 4.39934C3.8125 3.93435 4.63486 3.26811 5.07356 3.09692C5.48936 2.93495 5.86603 2.97662 6.16005 3.21718C6.32316 3.35371 7.1409 4.36233 7.46938 4.83424C7.71745 5.1928 8.0597 5.748 8.19064 6.00248C8.36063 6.3379 8.39047 6.67102 8.28022 6.99722C8.19293 7.25401 8.11714 7.3396 7.64852 7.71434C7.40966 7.90867 7.19373 8.08682 7.17304 8.10992C7.15239 8.1354 7.10645 8.21635 7.07198 8.29268C6.93188 8.59574 7.01687 9.00985 7.35222 9.68765C7.61181 10.2151 7.94025 10.6824 8.42265 11.2122C8.83154 11.6633 9.36442 12.119 9.78018 12.3734C10.3154 12.7019 11.0114 12.9518 11.395 12.9541C11.5604 12.9541 11.7947 12.887 11.9141 12.8037C11.9624 12.7714 12.1438 12.5655 12.3207 12.3457C12.7594 11.7974 12.8973 11.6748 13.1591 11.6008C13.4026 11.5291 13.7311 11.6054 14.1744 11.8344C14.9508 12.2346 16.5059 13.4584 16.7953 13.8979Z" fill="#F2F5F7" fill-opacity="0.7"/>
</svg>
