<svg width="20" height="20" viewBox="0 0 20 20" fill="none" xmlns="http://www.w3.org/2000/svg">
<path fill-rule="evenodd" clip-rule="evenodd" d="M17.5079 4.28589C17.7866 4.28589 17.9147 4.63278 17.7029 4.8139L10.1996 11.2295C10.0873 11.3254 9.9219 11.3254 9.80965 11.2295L2.30634 4.8139C2.09451 4.63278 2.2226 4.28589 2.5013 4.28589H17.5079ZM9.80756 12.3814C9.9183 12.4725 10.078 12.4725 10.1888 12.3814L17.5094 6.35878C17.7051 6.19775 18 6.33699 18 6.59046V15.4146C18 15.5803 17.8657 15.7146 17.7 15.7146H2.3C2.13431 15.7146 2 15.5803 2 15.4146V6.59349C2 6.34002 2.29486 6.20078 2.4906 6.36181L9.80756 12.3814Z" fill="#F2F5F7" fill-opacity="0.7"/>
</svg>
