<svg width="20" height="20" viewBox="0 0 20 20" fill="none" xmlns="http://www.w3.org/2000/svg">
<path d="M10.0013 18.7502C7.46797 18.7502 5.41797 16.7002 5.41797 14.1669L5.41797 5.41691C5.41797 3.57524 6.90963 2.08358 8.7513 2.08358C10.593 2.08358 12.0846 3.57524 12.0846 5.41691L12.0846 12.5002C12.0846 13.0528 11.8651 13.5827 11.4744 13.9734C11.0837 14.3641 10.5538 14.5836 10.0013 14.5836C9.44877 14.5836 8.91886 14.3641 8.52816 13.9734C8.13746 13.5827 7.91797 13.0528 7.91797 12.5002L7.91797 6.25024L9.58464 6.25024L9.58464 12.5752C9.58464 13.0336 10.418 13.0336 10.418 12.5752L10.418 5.41691C10.418 4.50024 9.66797 3.75024 8.7513 3.75024C7.83464 3.75024 7.08463 4.50024 7.08464 5.41691L7.08464 14.1669C7.08464 15.7752 8.39297 17.0836 10.0013 17.0836C11.6096 17.0836 12.918 15.7752 12.918 14.1669L12.918 6.25024L14.5846 6.25024L14.5846 14.1669C14.5846 16.7002 12.5346 18.7502 10.0013 18.7502Z" fill="#F2F5F7"/>
</svg>
