<svg width="16" height="14" viewBox="0 0 16 14" fill="none" xmlns="http://www.w3.org/2000/svg">
<path fill-rule="evenodd" clip-rule="evenodd" d="M14.7239 7.93746C15.1723 7.93746 15.394 7.39272 15.0731 7.07957L7.9619 0.141865C7.76768 -0.0476166 7.45778 -0.0476135 7.26357 0.141872L0.152728 7.07958C-0.168243 7.39273 0.053468 7.93746 0.501897 7.93746H1.18554C1.46169 7.93746 1.68554 8.16132 1.68554 8.43746V13.3761C1.68554 13.6523 1.9094 13.8761 2.18554 13.8761H4.64749H5.62846C5.9046 13.8761 6.12846 13.6523 6.12846 13.3761V10.1208C6.12846 9.84467 6.35232 9.62081 6.62846 9.62081H8.5904C8.86654 9.62081 9.0904 9.84467 9.0904 10.1208V13.3761C9.0904 13.6523 9.31426 13.8761 9.5904 13.8761H10.5714H13.0333C13.3095 13.8761 13.5333 13.6523 13.5333 13.3761V8.43746C13.5333 8.16132 13.7572 7.93746 14.0333 7.93746H14.7239Z" fill="#0070BB"/>
</svg>
