<svg width="20" height="20" viewBox="0 0 20 20" fill="none" xmlns="http://www.w3.org/2000/svg">
<path fill-rule="evenodd" clip-rule="evenodd" d="M16.7239 10.9375C17.1723 10.9375 17.394 10.3927 17.073 10.0796L9.96189 3.14186C9.76767 2.95238 9.45778 2.95239 9.26356 3.14187L2.15272 10.0796C1.83175 10.3927 2.05346 10.9375 2.50189 10.9375H3.18554C3.46168 10.9375 3.68554 11.1613 3.68554 11.4375V16.3761C3.68554 16.6523 3.90939 16.8761 4.18554 16.8761H6.64748H7.62845C7.90459 16.8761 8.12845 16.6523 8.12845 16.3761V13.1208C8.12845 12.8447 8.35231 12.6208 8.62845 12.6208H10.5904C10.8665 12.6208 11.0904 12.8447 11.0904 13.1208V16.3761C11.0904 16.6523 11.3142 16.8761 11.5904 16.8761H12.5714H15.0333C15.3094 16.8761 15.5333 16.6523 15.5333 16.3761V11.4375C15.5333 11.1613 15.7572 10.9375 16.0333 10.9375H16.7239Z" fill="#F2F5F7" fill-opacity="0.7"/>
</svg>
