<svg width="10" height="10" viewBox="0 0 10 10" fill="none" xmlns="http://www.w3.org/2000/svg">
<path d="M9.18807 1.84449C9.12654 1.72438 9.05769 1.5984 8.98152 1.46656L7.25006 3.19802L6.80181 2.74978L8.53327 1.01832C8.39851 0.936283 8.27253 0.86597 8.15534 0.807376C8.03815 0.748782 7.91657 0.694582 7.79059 0.644777C7.66461 0.594972 7.53571 0.55835 7.40387 0.534912C7.27203 0.511475 7.12701 0.499756 6.96881 0.499756C6.73443 0.502686 6.51031 0.533448 6.29644 0.592042C6.08257 0.650636 5.88188 0.735598 5.69438 0.846927C5.50688 0.958256 5.33549 1.09009 5.18022 1.24244C5.02494 1.39478 4.89164 1.56617 4.78031 1.7566C4.66898 1.94703 4.58402 2.14918 4.52543 2.36305C4.46683 2.57692 4.43754 2.79958 4.43754 3.03103C4.43754 3.10134 4.44046 3.17019 4.44632 3.23757C4.45218 3.30496 4.46097 3.37234 4.47269 3.43972L0.930668 6.98175C0.790042 7.1253 0.683107 7.28644 0.609864 7.46515C0.536621 7.64386 0.5 7.83136 0.5 8.02766C0.5 8.22981 0.539551 8.42024 0.618653 8.59895C0.697756 8.77766 0.803225 8.9344 0.935062 9.06917C1.0669 9.20394 1.22217 9.30941 1.40089 9.38558C1.5796 9.46175 1.77003 9.49984 1.97218 9.49984C2.1714 9.49984 2.36037 9.46321 2.53908 9.38997C2.71779 9.31673 2.87746 9.20979 3.01809 9.06917L6.56011 5.52714C6.63043 5.53886 6.69927 5.54765 6.76666 5.55351C6.83404 5.55937 6.90142 5.5623 6.96881 5.5623C7.20319 5.55937 7.42731 5.52861 7.64118 5.47002C7.85505 5.41142 8.05573 5.32646 8.24323 5.21513C8.43074 5.1038 8.60212 4.97196 8.7574 4.81962C8.91267 4.66727 9.04597 4.49589 9.1573 4.30545C9.26863 4.11502 9.35359 3.91287 9.41219 3.699C9.47078 3.48513 9.50008 3.26248 9.50008 3.03103C9.49422 2.86989 9.48104 2.72341 9.46053 2.59157C9.44002 2.45973 9.40486 2.33229 9.35506 2.20924C9.30525 2.0862 9.24959 1.96461 9.18807 1.84449Z" fill="#F2F5F7"/>
</svg>
