<svg width="20" height="20" viewBox="0 0 20 20" fill="none" xmlns="http://www.w3.org/2000/svg">
<path d="M9.9987 1.66406C6.4987 1.66406 3.33203 4.3474 3.33203 8.4974C3.33203 11.1474 5.3737 14.2641 9.4487 17.8557C9.76537 18.1307 10.2404 18.1307 10.557 17.8557C14.6237 14.2641 16.6654 11.1474 16.6654 8.4974C16.6654 4.3474 13.4987 1.66406 9.9987 1.66406ZM9.9987 9.99739C9.08203 9.99739 8.33203 9.2474 8.33203 8.33073C8.33203 7.41406 9.08203 6.66406 9.9987 6.66406C10.9154 6.66406 11.6654 7.41406 11.6654 8.33073C11.6654 9.2474 10.9154 9.99739 9.9987 9.99739Z" fill="#F2F5F7"/>
</svg>
