<svg width="20" height="20" viewBox="0 0 20 20" fill="none" xmlns="http://www.w3.org/2000/svg">
<path d="M10.0007 1.6665C6.50065 1.6665 3.33398 4.34984 3.33398 8.49984C3.33398 11.1498 5.37565 14.2665 9.45065 17.8582C9.76732 18.1332 10.2423 18.1332 10.559 17.8582C14.6257 14.2665 16.6673 11.1498 16.6673 8.49984C16.6673 4.34984 13.5007 1.6665 10.0007 1.6665ZM10.0007 9.99984C9.08398 9.99984 8.33398 9.24984 8.33398 8.33317C8.33398 7.4165 9.08398 6.6665 10.0007 6.6665C10.9173 6.6665 11.6673 7.4165 11.6673 8.33317C11.6673 9.24984 10.9173 9.99984 10.0007 9.99984Z" fill="#9DB9CC"/>
</svg>
