<svg width="20" height="20" viewBox="0 0 20 20" fill="none" xmlns="http://www.w3.org/2000/svg">
<path d="M4.4 16C4.015 16 3.68553 15.8532 3.4116 15.5597C3.13767 15.2662 3.00047 14.913 3 14.5V5.5C3 5.0875 3.1372 4.7345 3.4116 4.441C3.686 4.1475 4.01547 4.0005 4.4 4H15.6C15.985 4 16.3147 4.147 16.5891 4.441C16.8635 4.735 17.0005 5.088 17 5.5V14.5C17 14.9125 16.863 15.2657 16.5891 15.5597C16.3152 15.8537 15.9855 16.0005 15.6 16H4.4ZM10 10.75L15.6 7V5.5L10 9.25L4.4 5.5V7L10 10.75Z" fill="#9DB9CC"/>
</svg>
