<svg width="20" height="20" viewBox="0 0 20 20" fill="none" xmlns="http://www.w3.org/2000/svg">
<path d="M6.66667 5.33333C6.66667 6.06971 6.06971 6.66667 5.33333 6.66667C4.59695 6.66667 4 6.06971 4 5.33333C4 4.59695 4.59695 4 5.33333 4C6.06971 4 6.66667 4.59695 6.66667 5.33333Z" fill="#0070BB"/>
<path d="M6.66667 10C6.66667 10.7364 6.06971 11.3333 5.33333 11.3333C4.59695 11.3333 4 10.7364 4 10C4 9.26362 4.59695 8.66667 5.33333 8.66667C6.06971 8.66667 6.66667 9.26362 6.66667 10Z" fill="#0070BB"/>
<path d="M6.66667 14.6667C6.66667 15.403 6.06971 16 5.33333 16C4.59695 16 4 15.403 4 14.6667C4 13.9303 4.59695 13.3333 5.33333 13.3333C6.06971 13.3333 6.66667 13.9303 6.66667 14.6667Z" fill="#0070BB"/>
<path d="M11.3333 5.33333C11.3333 6.06971 10.7364 6.66667 10 6.66667C9.26362 6.66667 8.66667 6.06971 8.66667 5.33333C8.66667 4.59695 9.26362 4 10 4C10.7364 4 11.3333 4.59695 11.3333 5.33333Z" fill="#0070BB"/>
<path d="M11.3333 10C11.3333 10.7364 10.7364 11.3333 10 11.3333C9.26362 11.3333 8.66667 10.7364 8.66667 10C8.66667 9.26362 9.26362 8.66667 10 8.66667C10.7364 8.66667 11.3333 9.26362 11.3333 10Z" fill="#0070BB"/>
<path d="M11.3333 14.6667C11.3333 15.403 10.7364 16 10 16C9.26362 16 8.66667 15.403 8.66667 14.6667C8.66667 13.9303 9.26362 13.3333 10 13.3333C10.7364 13.3333 11.3333 13.9303 11.3333 14.6667Z" fill="#0070BB"/>
<path d="M16 5.33333C16 6.06971 15.403 6.66667 14.6667 6.66667C13.9303 6.66667 13.3333 6.06971 13.3333 5.33333C13.3333 4.59695 13.9303 4 14.6667 4C15.403 4 16 4.59695 16 5.33333Z" fill="#0070BB"/>
<path d="M16 10C16 10.7364 15.403 11.3333 14.6667 11.3333C13.9303 11.3333 13.3333 10.7364 13.3333 10C13.3333 9.26362 13.9303 8.66667 14.6667 8.66667C15.403 8.66667 16 9.26362 16 10Z" fill="#0070BB"/>
<path d="M16 14.6667C16 15.403 15.403 16 14.6667 16C13.9303 16 13.3333 15.403 13.3333 14.6667C13.3333 13.9303 13.9303 13.3333 14.6667 13.3333C15.403 13.3333 16 13.9303 16 14.6667Z" fill="#0070BB"/>
</svg>
