<svg width="20" height="20" viewBox="0 0 20 20" fill="none" xmlns="http://www.w3.org/2000/svg">
<path d="M14.6533 6.49414C14.585 6.36068 14.5085 6.2207 14.4238 6.07422L12.5 7.99805L12.002 7.5L13.9258 5.57617C13.776 5.48503 13.6361 5.4069 13.5059 5.3418C13.3757 5.27669 13.2406 5.21647 13.1006 5.16113C12.9606 5.10579 12.8174 5.0651 12.6709 5.03906C12.5244 5.01302 12.3633 5 12.1875 5C11.9271 5.00326 11.6781 5.03743 11.4404 5.10254C11.2028 5.16764 10.9798 5.26204 10.7715 5.38574C10.5632 5.50944 10.3727 5.65592 10.2002 5.8252C10.0277 5.99447 9.87956 6.1849 9.75586 6.39648C9.63216 6.60807 9.53776 6.83268 9.47266 7.07031C9.40755 7.30794 9.375 7.55534 9.375 7.8125C9.375 7.89063 9.37826 7.96712 9.38477 8.04199C9.39128 8.11686 9.40104 8.19173 9.41406 8.2666L5.47852 12.2021C5.32227 12.3617 5.20345 12.5407 5.12207 12.7393C5.04069 12.9378 5 13.1462 5 13.3643C5 13.5889 5.04395 13.8005 5.13184 13.999C5.21973 14.1976 5.33691 14.3717 5.4834 14.5215C5.62988 14.6712 5.80241 14.7884 6.00098 14.873C6.19954 14.9577 6.41113 15 6.63574 15C6.8571 15 7.06706 14.9593 7.26562 14.8779C7.46419 14.7965 7.6416 14.6777 7.79785 14.5215L11.7334 10.5859C11.8115 10.599 11.888 10.6087 11.9629 10.6152C12.0378 10.6217 12.1126 10.625 12.1875 10.625C12.4479 10.6217 12.6969 10.5876 12.9346 10.5225C13.1722 10.4574 13.3952 10.363 13.6035 10.2393C13.8118 10.1156 14.0023 9.96908 14.1748 9.7998C14.3473 9.63053 14.4954 9.4401 14.6191 9.22852C14.7428 9.01693 14.8372 8.79232 14.9023 8.55469C14.9674 8.31706 15 8.06966 15 7.8125C14.9935 7.63346 14.9788 7.4707 14.9561 7.32422C14.9333 7.17773 14.8942 7.03613 14.8389 6.89941C14.7835 6.7627 14.7217 6.6276 14.6533 6.49414Z" fill="#6D8CAC"/>
</svg>
