<svg width="590" height="289" viewBox="0 0 590 289" fill="none" xmlns="http://www.w3.org/2000/svg">
<mask id="path-1-inside-1_37_14" fill="white">
<path fill-rule="evenodd" clip-rule="evenodd" d="M0 0H542L552.723 10.3456V31.0368L590 67V289H58L0 231V0Z"/>
</mask>
<path fill-rule="evenodd" clip-rule="evenodd" d="M0 0H542L552.723 10.3456V31.0368L590 67V289H58L0 231V0Z" fill="#0070BB"/>
<path d="M542 0L542.694 -0.719671L542.404 -1H542V0ZM0 0V-1H-1V0H0ZM552.723 10.3456H553.723V9.92083L553.418 9.62592L552.723 10.3456ZM552.723 31.0368H551.723V31.4615L552.029 31.7564L552.723 31.0368ZM590 67H591V66.5752L590.694 66.2803L590 67ZM590 289V290H591V289H590ZM58 289L57.2929 289.707L57.5858 290H58V289ZM0 231H-1V231.414L-0.707107 231.707L0 231ZM542 -1H0V1H542V-1ZM553.418 9.62592L542.694 -0.719671L541.306 0.719671L552.029 11.0653L553.418 9.62592ZM553.723 31.0368V10.3456H551.723V31.0368H553.723ZM590.694 66.2803L553.418 30.3171L552.029 31.7564L589.306 67.7197L590.694 66.2803ZM591 289V67H589V289H591ZM58 290H590V288H58V290ZM-0.707107 231.707L57.2929 289.707L58.7071 288.293L0.707107 230.293L-0.707107 231.707ZM-1 0V231H1V0H-1Z" fill="#9DB9CC" mask="url(#path-1-inside-1_37_14)"/>
</svg>
