<svg width="185" height="38" viewBox="0 0 185 38" fill="none" xmlns="http://www.w3.org/2000/svg">
<path fill-rule="evenodd" clip-rule="evenodd" d="M83.2513 22.4886H84.8477L85.5733 23.7368L86.4151 22.4886H88.0986C87.471 36.4183 91.8647 36.0673 92.2891 36.0647C94.316 36.0841 96.8075 34.1587 96.5414 23.2355H95.1207L99.0362 14.9922L102.952 23.2355L101.524 23.2788C101.695 26.5235 101.927 32.6308 96.9024 36.3109C95.1064 37.5714 93.5426 37.6129 92.298 37.6543C91.9353 37.6085 82.0583 38.2833 83.2513 22.4886ZM180.236 24.5732H176.46L176.011 26.6845C175.863 27.3882 175.79 27.9665 175.79 28.4247C175.79 29.0358 175.911 29.4831 176.153 29.7668C176.293 29.9413 176.643 30.0669 177.2 30.1542V30.7433H173.645V30.1542C174.027 30.0341 174.345 29.7122 174.59 29.1831C174.837 28.6594 175.144 27.5682 175.505 25.9153L179.329 8.62146H179.48L183.334 26.3953C183.703 28.081 184.004 29.1394 184.241 29.5758C184.421 29.9086 184.674 30.0996 185 30.1542V30.7433H179.827V30.1542H180.04C180.454 30.1542 180.748 30.0341 180.914 29.7995C181.03 29.6304 181.089 29.3849 181.089 29.063C181.089 28.8721 181.073 28.6757 181.041 28.4739C181.03 28.3757 180.952 27.9774 180.804 27.2737L180.236 24.5732ZM45.0077 9.0688H50.5251V9.66342H50.2506C49.8361 9.66342 49.5508 9.75071 49.3947 9.92533C49.2386 10.0999 49.1283 10.3454 49.0637 10.6509C48.9991 10.9618 48.9641 11.7365 48.9641 12.9694V23.5803C48.9641 25.5224 49.0368 26.8045 49.182 27.4373C49.3274 28.0647 49.5643 28.5829 49.8953 29.003C50.2264 29.4177 50.6435 29.6249 51.1495 29.6249C51.7281 29.6249 52.2207 29.3631 52.6271 28.8339C53.0361 28.3047 53.3403 27.5791 53.5422 26.6517C53.7441 25.7243 53.8463 24.1095 53.8463 21.8073V12.9694C53.8463 11.9984 53.7951 11.3055 53.6956 10.8909C53.596 10.4763 53.4695 10.1872 53.3188 10.029C53.082 9.78348 52.7482 9.66342 52.3149 9.66342V9.0688H56.0129V9.66342H55.7922C55.4935 9.66342 55.2431 9.78348 55.044 10.029C54.8449 10.2745 54.6995 10.64 54.6106 11.131C54.5434 11.4746 54.5084 12.0856 54.5084 12.9694V21.2017C54.5084 23.7494 54.425 25.5879 54.2608 26.7172C54.0939 27.8465 53.6902 28.883 53.0496 29.8323C52.4091 30.7815 51.5317 31.2561 50.4228 31.2561C49.4997 31.2561 48.7837 31.0051 48.2778 30.5033C47.5915 29.8214 47.1043 28.9485 46.819 27.8846C46.5364 26.8154 46.3938 25.386 46.3938 23.5803V12.9694C46.3938 11.7256 46.3615 10.951 46.2915 10.6454C46.2242 10.3399 46.1058 10.0999 45.9362 9.91987C45.7693 9.73439 45.4598 9.65255 45.0077 9.66342V9.0688ZM4.0775 20.3234V27.0336C4.0775 28.1411 4.10714 28.8339 4.16636 29.1121C4.22826 29.3904 4.34667 29.6304 4.5216 29.8377C4.6992 30.0505 4.93608 30.1542 5.23485 30.1542H5.59009V30.7433H0V30.1542H0.35532C0.664817 30.1542 0.915066 30.0396 1.10351 29.8159C1.24075 29.6686 1.34573 29.4122 1.41841 29.0466C1.47763 28.7957 1.50727 28.1247 1.50727 27.0336V12.7785C1.50727 11.671 1.47763 10.9782 1.41841 10.7C1.36186 10.4218 1.24345 10.1817 1.06855 9.97442C0.893533 9.7671 0.654008 9.66342 0.35532 9.66342H0V9.0688H5.59009V9.66342H5.23485C4.92536 9.66342 4.67497 9.77256 4.48667 9.99621C4.34937 10.149 4.24168 10.4 4.16366 10.7655C4.10444 11.0218 4.0775 11.6929 4.0775 12.7785V18.9159H7.85362V12.7785C7.85362 11.671 7.82401 10.9782 7.76746 10.7C7.70821 10.4218 7.5898 10.1817 7.41223 9.97442C7.23186 9.7671 6.99504 9.66342 6.69359 9.66342H6.34638V9.0688H11.9311V9.66342H11.5839C11.269 9.66342 11.0187 9.77256 10.833 9.99621C10.6984 10.149 10.5908 10.4 10.51 10.7655C10.4535 11.0218 10.4239 11.6929 10.4239 12.7785V27.0336C10.4239 28.1411 10.4535 28.8339 10.51 29.1121C10.5692 29.3904 10.6876 29.6304 10.8653 29.8377C11.0456 30.0505 11.2825 30.1542 11.5839 30.1542H11.9311V30.7433H6.34638V30.1542H6.69359C7.00847 30.1542 7.2588 30.0396 7.44448 29.8159C7.57908 29.6686 7.68671 29.4122 7.76746 29.0466C7.82401 28.7957 7.85362 28.1247 7.85362 27.0336V20.3234H4.0775ZM19.4764 8.57783L19.5652 15.8008H19.2395C19.0888 13.9896 18.7147 12.533 18.1172 11.4255C17.5198 10.3235 16.8765 9.77256 16.1821 9.77256C15.6465 9.77256 15.2213 10.0617 14.909 10.6454C14.5941 11.2237 14.4381 11.8947 14.4381 12.653C14.4381 13.1277 14.4946 13.5587 14.6049 13.9297C14.7557 14.4315 15.0005 14.9279 15.337 15.4135C15.5846 15.7681 16.1551 16.39 17.0487 17.2847C18.3003 18.534 19.1427 19.7124 19.5787 20.8198C20.0119 21.9273 20.2273 23.1929 20.2273 24.6223C20.2273 26.4335 19.8774 27.9938 19.183 29.2976C18.4859 30.6015 17.6005 31.2561 16.5293 31.2561C16.1929 31.2561 15.8726 31.1852 15.5738 31.0488C15.2751 30.907 14.8983 30.6451 14.4462 30.2632C14.1931 30.0505 13.9859 29.9468 13.8244 29.9468C13.6872 29.9468 13.5418 30.0505 13.3911 30.2632C13.2377 30.476 13.1139 30.8034 13.0197 31.2397H12.729V23.0566H13.0197C13.2511 25.3588 13.6952 27.11 14.3573 28.3211C15.0167 29.5322 15.7272 30.1377 16.4889 30.1377C17.0784 30.1377 17.5466 29.8104 17.8965 29.1612C18.2464 28.512 18.4213 27.7537 18.4213 26.8918C18.4213 26.379 18.354 25.8825 18.2195 25.4024C18.0849 24.9278 17.8831 24.4696 17.6086 24.0385C17.334 23.6076 16.8523 23.0457 16.1578 22.3528C15.1863 21.3817 14.4865 20.558 14.0613 19.8761C13.6333 19.1941 13.3077 18.4304 13.0789 17.5902C12.8501 16.7501 12.7343 15.8227 12.7343 14.808C12.7343 13.084 13.0493 11.611 13.6737 10.3945C14.3008 9.18337 15.0894 8.57783 16.0394 8.57783C16.3866 8.57783 16.723 8.65964 17.0487 8.82873C17.2963 8.95972 17.5978 9.19424 17.9504 9.54341C18.3056 9.88716 18.5559 10.0617 18.6959 10.0617C18.8332 10.0617 18.9408 9.97443 19.0188 9.80527C19.0996 9.63617 19.1723 9.22703 19.2395 8.57783H19.4764ZM29.2824 9.0688L34.5576 22.511V13.1931C34.5576 11.8947 34.4661 11.0164 34.2831 10.5581C34.0301 9.94166 33.6075 9.64163 33.0127 9.66342V9.0688H36.5439V9.66342C36.0917 9.77802 35.7903 9.93079 35.6341 10.1163C35.4781 10.3018 35.357 10.6072 35.2708 11.0273C35.1846 11.4474 35.1416 12.1729 35.1416 13.1931V31.2397H34.8725L27.6433 13.1931V26.9736C27.6433 28.2174 27.7833 29.0576 28.0659 29.494C28.3458 29.9359 28.6687 30.1542 29.0294 30.1542H29.2824V30.7433H25.4902V30.1542C26.0796 30.1432 26.4887 29.8977 26.7201 29.4177C26.9516 28.9376 27.0674 28.1247 27.0674 26.9736V11.6765L26.8386 11.0983C26.6125 10.5254 26.4133 10.149 26.2384 9.9635C26.0662 9.78348 25.8158 9.68526 25.4902 9.66342V9.0688H29.2824ZM42.3221 24.5732H38.5461L38.0966 26.6845C37.9486 27.3882 37.8759 27.9665 37.8759 28.4247C37.8759 29.0358 37.997 29.4831 38.2392 29.7668C38.3792 29.9413 38.7291 30.0669 39.2862 30.1542V30.7433H35.7309V30.1542C36.113 30.0341 36.4306 29.7122 36.6755 29.1831C36.9231 28.6594 37.2299 27.5682 37.5906 25.9153L41.4151 8.62146H41.5658L45.4199 26.3953C45.7887 28.081 46.0901 29.1394 46.327 29.5758C46.5073 29.9086 46.7603 30.0996 47.086 30.1542V30.7433H41.9131V30.1542H42.1256C42.5401 30.1542 42.8335 30.0341 43.0003 29.7995C43.1161 29.6304 43.1753 29.3849 43.1753 29.063C43.1753 28.8721 43.1592 28.6757 43.1269 28.4739C43.1161 28.3757 43.0381 27.9774 42.89 27.2737L42.3221 24.5732ZM42.053 23.3893L40.4623 15.9263L38.8206 23.3893H42.053ZM26.1955 24.8787H21.596V21.5672H26.1955V24.8787ZM62.6862 17.3666L66.4462 26.9081C66.979 28.2502 67.4366 29.1613 67.8187 29.6414C68.0986 29.9795 68.392 30.1542 68.7015 30.1542V30.7433H63.1357V30.1542C63.4882 30.0887 63.7143 29.9741 63.8166 29.8159C63.9216 29.6577 63.9727 29.4613 63.9727 29.2267C63.9727 28.7793 63.7305 27.9337 63.246 26.7008L60.7941 20.4489L60.3985 21.1199V27.0336C60.3985 28.1629 60.4308 28.8666 60.4954 29.1448C60.5573 29.4231 60.6784 29.6577 60.8561 29.8541C61.0363 30.0559 61.3216 30.1542 61.7173 30.1542V30.7433H56.3237V30.1542H56.679C56.9885 30.1542 57.2388 30.0396 57.4272 29.8159C57.5644 29.6686 57.6694 29.4122 57.7421 29.0466C57.8013 28.7957 57.8282 28.1247 57.8282 27.0336V12.7785C57.8282 11.671 57.8013 10.9782 57.7421 10.7C57.6855 10.4218 57.5671 10.1817 57.3922 9.97442C57.2145 9.7671 56.9777 9.66342 56.679 9.66342H56.3237V9.0688H61.6446V9.66342C61.284 9.66342 61.0067 9.7671 60.8183 9.97988C60.6811 10.1326 60.5734 10.3836 60.4954 10.7327C60.4308 11.0001 60.3985 11.682 60.3985 12.7785V19.5214L64.3657 13.0185C64.9174 12.113 65.1946 11.3873 65.1946 10.8473C65.1946 10.4381 65.0815 10.1217 64.8555 9.88716C64.7397 9.76709 64.4518 9.69619 63.9942 9.66342V9.0688H68.1659V9.66342C67.7918 9.71798 67.5011 9.8489 67.2885 10.0672C67.0732 10.2854 66.5834 11.0273 65.8163 12.2821L62.6862 17.3666ZM75.8986 24.5732H72.1225L71.673 26.6845C71.525 27.3882 71.4523 27.9665 71.4523 28.4247C71.4523 29.0358 71.5734 29.4831 71.8157 29.7668C71.9556 29.9413 72.3055 30.0669 72.8626 30.1542V30.7433H69.3073V30.1542C69.6894 30.0341 70.007 29.7122 70.2519 29.1831C70.4996 28.6594 70.8064 27.5682 71.167 25.9153L74.9915 8.62146H75.1423L78.9964 26.3953C79.3651 28.081 79.6666 29.1394 79.9034 29.5758C80.0838 29.9086 80.3367 30.0996 80.6624 30.1542V30.7433H75.4895V30.1542H75.7021C76.1166 30.1542 76.4099 30.0341 76.5768 29.7995C76.6926 29.6304 76.7517 29.3849 76.7517 29.063C76.7517 28.8721 76.7356 28.6757 76.7033 28.4739C76.6926 28.3757 76.6145 27.9774 76.4664 27.2737L75.8986 24.5732ZM75.6294 23.3893L74.0388 15.9263L72.397 23.3893H75.6294ZM110.505 18.0376L113.455 26.9081C113.945 28.3757 114.292 29.2704 114.499 29.5868C114.706 29.8977 114.954 30.0887 115.237 30.1542V30.7433H110.023V30.1542C110.44 30.0887 110.707 29.9577 110.828 29.7668C110.949 29.5758 111.011 29.3413 111.011 29.063C111.011 28.8721 110.992 28.703 110.954 28.5557C110.882 28.2338 110.696 27.6392 110.403 26.7609L108.842 22.08L107.211 26.1225C106.721 27.35 106.476 28.1793 106.476 28.6157C106.476 28.9266 106.541 29.2158 106.664 29.4831C106.791 29.7449 106.979 29.9413 107.224 30.0559C107.335 30.1214 107.561 30.1542 107.902 30.1542V30.7433H103.795V30.1542C104.264 30.0123 104.632 29.7559 104.899 29.3849C105.251 28.8939 105.744 27.8738 106.374 26.3135L108.495 21.0763L105.773 12.9694C105.327 11.6383 105.074 10.8964 105.009 10.7491C104.866 10.4 104.729 10.149 104.592 9.99621C104.455 9.8489 104.266 9.73439 104.024 9.66342V9.0688H109.332V9.66342H109.062C108.758 9.66342 108.546 9.76164 108.425 9.95804C108.303 10.1544 108.242 10.4 108.242 10.7C108.242 10.9346 108.26 11.1364 108.298 11.3055L108.842 12.9694L110.166 17.061L111.294 14.2624C111.872 12.8276 112.16 11.8184 112.16 11.2455C112.16 10.9564 112.12 10.689 112.039 10.4436C111.958 10.1981 111.84 10.0071 111.689 9.87075C111.536 9.72893 111.299 9.66342 110.979 9.66342V9.0688H114.914V9.66342C114.604 9.67434 114.354 9.75071 114.165 9.89253C113.974 10.0398 113.772 10.3072 113.557 10.7C113.42 10.9564 113.078 11.7528 112.532 13.084L110.505 18.0376ZM123.861 8.57783V16.0845H123.554C123.323 14.126 122.892 12.6258 122.259 11.5783C121.63 10.5363 120.914 10.0126 120.114 10.0126C119.447 10.0126 118.836 10.4 118.279 11.1801C117.722 11.9602 117.313 12.9749 117.057 14.2351C116.726 15.8445 116.559 17.6339 116.559 19.6033C116.559 21.54 116.68 23.3075 116.922 24.9006C117.165 26.4935 117.541 27.6992 118.058 28.512C118.572 29.3303 119.24 29.7341 120.061 29.7341C120.733 29.7341 121.35 29.4395 121.91 28.8394C122.469 28.2447 123.059 27.2191 123.681 25.757V27.6283C123.08 28.8939 122.456 29.8159 121.807 30.3833C121.156 30.9561 120.4 31.2397 119.53 31.2397C118.392 31.2397 117.377 30.776 116.492 29.8486C115.606 28.9212 114.923 27.5901 114.441 25.8552C113.962 24.115 113.72 22.2655 113.72 20.307C113.72 18.2394 113.986 16.2809 114.522 14.426C115.055 12.5712 115.773 11.131 116.68 10.1108C117.587 9.08518 118.551 8.57783 119.571 8.57783C120.322 8.57783 121.116 8.90516 121.953 9.5652C122.437 9.94712 122.744 10.1435 122.876 10.1435C123.043 10.1435 123.188 10.0181 123.312 9.7671C123.436 9.51617 123.516 9.1179 123.554 8.57783H123.861ZM129.077 24.8787H124.477V21.5672H129.077V24.8787ZM132.889 20.3234V27.0336C132.889 28.1411 132.919 28.8339 132.978 29.1121C133.04 29.3904 133.158 29.6304 133.333 29.8377C133.511 30.0505 133.748 30.1542 134.046 30.1542H134.402V30.7433H128.811V30.1542H129.167C129.476 30.1542 129.727 30.0396 129.915 29.8159C130.052 29.6686 130.157 29.4122 130.23 29.0466C130.289 28.7957 130.319 28.1247 130.319 27.0336V12.7785C130.319 11.671 130.289 10.9782 130.23 10.7C130.173 10.4218 130.055 10.1817 129.88 9.97442C129.705 9.7671 129.465 9.66342 129.167 9.66342H128.811V9.0688H134.402V9.66342H134.046C133.737 9.66342 133.486 9.77256 133.298 9.99621C133.161 10.149 133.053 10.4 132.975 10.7655C132.916 11.0218 132.889 11.6929 132.889 12.7785V18.9159H136.665V12.7785C136.665 11.671 136.635 10.9782 136.579 10.7C136.52 10.4218 136.401 10.1817 136.224 9.97442C136.043 9.7671 135.807 9.66342 135.505 9.66342H135.158V9.0688H140.743V9.66342H140.395C140.081 9.66342 139.83 9.77256 139.644 9.99621C139.51 10.149 139.402 10.4 139.322 10.7655C139.265 11.0218 139.235 11.6929 139.235 12.7785V27.0336C139.235 28.1411 139.265 28.8339 139.322 29.1121C139.381 29.3904 139.499 29.6304 139.677 29.8377C139.857 30.0505 140.094 30.1542 140.395 30.1542H140.743V30.7433H135.158V30.1542H135.505C135.82 30.1542 136.07 30.0396 136.256 29.8159C136.391 29.6686 136.498 29.4122 136.579 29.0466C136.635 28.7957 136.665 28.1247 136.665 27.0336V20.3234H132.889ZM147.421 24.5732H143.645L143.196 26.6845C143.048 27.3882 142.975 27.9665 142.975 28.4247C142.975 29.0358 143.096 29.4831 143.338 29.7668C143.478 29.9413 143.828 30.0669 144.385 30.1542V30.7433H140.83V30.1542C141.212 30.0341 141.53 29.7122 141.775 29.1831C142.022 28.6594 142.329 27.5682 142.69 25.9153L146.514 8.62146H146.665L150.519 26.3953C150.888 28.081 151.189 29.1394 151.426 29.5758C151.606 29.9086 151.859 30.0996 152.185 30.1542V30.7433H147.012V30.1542H147.225C147.639 30.1542 147.933 30.0341 148.099 29.7995C148.215 29.6304 148.274 29.3849 148.274 29.063C148.274 28.8721 148.258 28.6757 148.226 28.4739C148.215 28.3757 148.137 27.9774 147.989 27.2737L147.421 24.5732ZM147.152 23.3893L145.561 15.9263L143.92 23.3893H147.152ZM158.089 9.0688H161.668V9.66342C161.299 9.72344 160.998 9.99621 160.764 10.4763C160.53 10.9564 160.225 11.9438 159.854 13.4331L156.525 26.6681C156.005 28.7357 155.556 30.0123 155.174 30.5033C154.792 30.9943 154.339 31.2397 153.815 31.2397C153.241 31.2397 152.808 30.9233 152.517 30.296C152.224 29.6686 152.079 28.9648 152.079 28.1847C152.079 27.5574 152.184 27.0391 152.391 26.6299C152.598 26.2153 152.851 26.0135 153.152 26.0135C153.435 26.0135 153.642 26.1608 153.774 26.4608C153.906 26.7609 153.998 27.2955 154.051 28.0756C154.113 28.9921 154.299 29.4504 154.611 29.4504C154.977 29.4504 155.33 28.7357 155.666 27.3064L155.817 26.6681L151.992 12.5875C151.667 11.4037 151.384 10.6345 151.145 10.2854C150.905 9.93625 150.558 9.72344 150.1 9.66342V9.0688H155.429V9.66342H155.225C154.606 9.66342 154.294 9.95804 154.294 10.5581C154.294 10.7818 154.353 11.1091 154.469 11.5456L157.141 21.4254L159.168 13.3404C159.445 12.2275 159.585 11.4365 159.585 10.9564C159.585 10.5963 159.504 10.2963 159.34 10.0617C159.179 9.82711 158.761 9.69619 158.089 9.66342V9.0688ZM161.809 9.0688H167.375V9.66342H167.195C166.67 9.66342 166.317 9.85436 166.142 10.2472C165.965 10.6345 165.879 11.371 165.879 12.4566V18.9323C166.614 18.9323 167.093 18.8832 167.313 18.7795C167.534 18.6813 167.739 18.3867 167.927 17.9012C168.118 17.4157 168.298 16.4828 168.473 15.0971C168.678 13.4768 168.877 12.2603 169.068 11.4528C169.259 10.64 169.526 10.0017 169.865 9.52703C170.204 9.05247 170.626 8.81241 171.138 8.81241C171.641 8.81241 172.047 9.10697 172.352 9.68526C172.656 10.269 172.809 10.9837 172.809 11.8347C172.809 12.4948 172.707 13.0185 172.502 13.4004C172.298 13.7878 172.042 13.9787 171.738 13.9787C171.138 13.9787 170.815 13.275 170.766 11.8674C170.745 11.1637 170.624 10.8146 170.403 10.8146C170.169 10.8146 169.964 11.0819 169.797 11.6274C169.628 12.1729 169.448 13.1441 169.254 14.5515C169.063 15.9263 168.901 16.9574 168.764 17.6448C168.627 18.3322 168.433 18.9104 168.18 19.3796C168.516 19.5488 168.775 19.7724 168.958 20.0506C169.138 20.3288 169.302 20.6889 169.45 21.1308C169.598 21.5727 169.913 22.691 170.395 24.4913L171.485 28.4247C171.652 29.0139 171.854 29.4449 172.088 29.7286C172.322 30.0123 172.605 30.1542 172.936 30.1542V30.7433H169.356L167.154 22.4347C166.904 21.4963 166.718 20.929 166.6 20.7326C166.482 20.5307 166.242 20.4161 165.879 20.3889V27.721C165.879 28.7684 165.984 29.434 166.196 29.7177C166.412 30.0068 166.805 30.1542 167.375 30.1542V30.7433H161.809V30.1542C162.426 30.1323 162.827 29.9468 163.02 29.6032C163.212 29.254 163.308 28.512 163.308 27.3719V12.8767C163.308 11.6056 163.23 10.7545 163.08 10.3181C162.926 9.88169 162.579 9.66342 162.038 9.66342H161.809V9.0688ZM179.967 23.3893L178.376 15.9263L176.735 23.3893H179.967ZM101.409 15.2282H99.8122L99.0866 13.9801L98.2448 15.2282H96.5613C97.1889 1.2985 92.7952 1.64946 92.3708 1.65211C90.3439 1.63274 87.8524 3.5581 88.1185 14.4813H89.5393L85.6237 22.7246L81.7082 14.4813L83.1359 14.438C82.9648 11.1933 82.7331 5.08602 87.7575 1.40593C89.5536 0.145442 91.1173 0.103914 92.3619 0.0625C92.7246 0.108323 102.602 -0.56648 101.409 15.2282Z" fill="#0070BB"/>
</svg>
