<svg width="283" height="61" viewBox="0 0 283 61" fill="none" xmlns="http://www.w3.org/2000/svg">
<path fill-rule="evenodd" clip-rule="evenodd" d="M127.352 34.3059H129.794L130.904 36.2152L132.192 34.3059H134.767C133.807 55.6146 140.528 55.0777 141.177 55.0737C144.278 55.1033 148.089 52.158 147.682 35.4484H145.509L151.499 22.8384L157.488 35.4484L155.304 35.5147C155.566 40.4782 155.92 49.8207 148.235 55.4502C145.487 57.3784 143.095 57.442 141.191 57.5053C140.636 57.4352 125.527 58.4675 127.352 34.3059ZM275.713 37.4948H269.936L269.249 40.7244C269.022 41.801 268.911 42.6856 268.911 43.3866C268.911 44.3213 269.096 45.0056 269.467 45.4395C269.681 45.7066 270.216 45.8986 271.068 46.0321V46.9334H265.63V46.0321C266.214 45.8485 266.7 45.3561 267.075 44.5466C267.454 43.7455 267.923 42.0763 268.475 39.5477L274.325 13.0929H274.556L280.451 40.2821C281.016 42.8608 281.477 44.4798 281.839 45.1474C282.115 45.6565 282.502 45.9486 283 46.0321V46.9334H275.087V46.0321H275.412C276.046 46.0321 276.495 45.8485 276.75 45.4896C276.927 45.2309 277.018 44.8554 277.018 44.363C277.018 44.0709 276.993 43.7704 276.944 43.4617C276.927 43.3115 276.808 42.7022 276.581 41.6258L275.713 37.4948ZM68.8495 13.7772H77.2898V14.6868H76.8698C76.2358 14.6868 75.7993 14.8203 75.5606 15.0875C75.3217 15.3545 75.1529 15.73 75.0542 16.1974C74.9553 16.673 74.9018 17.8581 74.9018 19.7441V35.9759C74.9018 38.9468 75.013 40.9081 75.2352 41.876C75.4575 42.8358 75.8199 43.6286 76.3263 44.2712C76.8327 44.9055 77.4709 45.2225 78.2449 45.2225C79.1301 45.2225 79.8835 44.822 80.5052 44.0125C81.131 43.2029 81.5962 42.093 81.9051 40.6743C82.2139 39.2556 82.3703 36.7854 82.3703 33.2636V19.7441C82.3703 18.2587 82.292 17.1988 82.1398 16.5645C81.9874 15.9303 81.7939 15.488 81.5633 15.246C81.2011 14.8705 80.6905 14.6868 80.0276 14.6868V13.7772H85.6846V14.6868H85.347C84.89 14.6868 84.507 14.8705 84.2024 15.246C83.8978 15.6215 83.6755 16.1806 83.5395 16.9318C83.4366 17.4575 83.3831 18.3922 83.3831 19.7441V32.3373C83.3831 36.2345 83.2555 39.047 83.0043 40.7745C82.749 42.5019 82.1315 44.0876 81.1516 45.5397C80.1717 46.9918 78.8295 47.7178 77.1333 47.7178C75.7212 47.7178 74.6259 47.3339 73.852 46.5662C72.8021 45.523 72.0569 44.1878 71.6204 42.5603C71.1881 40.9247 70.9699 38.7382 70.9699 35.9759V19.7441C70.9699 17.8414 70.9205 16.6564 70.8135 16.189C70.7105 15.7217 70.5294 15.3545 70.2699 15.0791C70.0147 14.7954 69.5412 14.6702 68.8495 14.6868V13.7772ZM6.23748 30.9937V41.2585C6.23748 42.9527 6.28282 44.0125 6.37341 44.4381C6.46809 44.8637 6.64923 45.2309 6.91682 45.548C7.18851 45.8735 7.55087 46.0321 8.00791 46.0321H8.55132V46.9334H0V46.0321H0.543543C1.01699 46.0321 1.3998 45.8568 1.68807 45.5147C1.89801 45.2893 2.05861 44.8971 2.16978 44.3379C2.26037 43.9541 2.30571 42.9275 2.30571 41.2585V19.452C2.30571 17.7579 2.26037 16.6981 2.16978 16.2725C2.08328 15.8469 1.90214 15.4796 1.63459 15.1626C1.36686 14.8454 1.00046 14.6868 0.543543 14.6868H0V13.7772H8.55132V14.6868H8.00791C7.53446 14.6868 7.15144 14.8538 6.86339 15.1959C6.65336 15.4296 6.48863 15.8135 6.36928 16.3727C6.27868 16.7648 6.23748 17.7913 6.23748 19.452V28.8406H12.0139V19.452C12.0139 17.7579 11.9686 16.6981 11.8821 16.2725C11.7915 15.8469 11.6103 15.4796 11.3387 15.1626C11.0628 14.8454 10.7005 14.6868 10.2394 14.6868H9.70825V13.7772H18.2513V14.6868H17.7203C17.2386 14.6868 16.8556 14.8538 16.5715 15.1959C16.3657 15.4296 16.201 15.8135 16.0775 16.3727C15.991 16.7648 15.9457 17.7913 15.9457 19.452V41.2585C15.9457 42.9527 15.991 44.0125 16.0775 44.4381C16.168 44.8637 16.3492 45.2309 16.6209 45.548C16.8968 45.8735 17.2591 46.0321 17.7203 46.0321H18.2513V46.9334H9.70825V46.0321H10.2394C10.7211 46.0321 11.104 45.8568 11.388 45.5147C11.5939 45.2893 11.7586 44.8971 11.8821 44.3379C11.9686 43.9541 12.0139 42.9275 12.0139 41.2585V30.9937H6.23748ZM29.7936 13.0262L29.9295 24.0753H29.4313C29.2007 21.3047 28.6285 19.0765 27.7145 17.3823C26.8005 15.6966 25.8164 14.8538 24.7542 14.8538C23.9349 14.8538 23.2844 15.2961 22.8068 16.189C22.3251 17.0736 22.0863 18.1001 22.0863 19.2601C22.0863 19.9862 22.1729 20.6455 22.3416 21.213C22.5722 21.9807 22.9467 22.7401 23.4614 23.4829C23.8403 24.0253 24.713 24.9767 26.0799 26.3453C27.9944 28.2565 29.2831 30.059 29.9501 31.7531C30.6129 33.4473 30.9423 35.3833 30.9423 37.5699C30.9423 40.3406 30.4071 42.7273 29.3448 44.7218C28.2785 46.7164 26.9239 47.7178 25.2854 47.7178C24.7707 47.7178 24.2808 47.6093 23.8237 47.4007C23.3668 47.1837 22.7904 46.7831 22.0987 46.1989C21.7117 45.8735 21.3946 45.7149 21.1476 45.7149C20.9377 45.7149 20.7153 45.8735 20.4848 46.1989C20.2501 46.5245 20.0607 47.0252 19.9166 47.6928H19.472V35.1747H19.9166C20.2706 38.6965 20.95 41.3753 21.9628 43.228C22.9715 45.0807 24.0584 46.007 25.2236 46.007C26.1253 46.007 26.8416 45.5063 27.3769 44.5132C27.9121 43.5201 28.1796 42.3601 28.1796 41.0415C28.1796 40.2571 28.0767 39.4977 27.8709 38.7632C27.665 38.0372 27.3563 37.3362 26.9363 36.6769C26.5164 36.0176 25.7794 35.1581 24.7171 34.0981C23.2309 32.6127 22.1604 31.3526 21.5099 30.3094C20.8553 29.2662 20.3571 28.0979 20.0071 26.8127C19.6572 25.5275 19.4801 24.1088 19.4801 22.5566C19.4801 19.9194 19.9619 17.6661 20.917 15.8052C21.8763 13.9525 23.0827 13.0262 24.536 13.0262C25.0671 13.0262 25.5817 13.1513 26.0799 13.41C26.4587 13.6103 26.9198 13.9691 27.4592 14.5032C28.0026 15.0291 28.3855 15.2961 28.5996 15.2961C28.8096 15.2961 28.9743 15.1626 29.0937 14.9038C29.2172 14.6451 29.3284 14.0193 29.4313 13.0262H29.7936ZM44.7941 13.7772L52.8637 34.3402V20.0863C52.8637 18.1001 52.7238 16.7565 52.4439 16.0555C52.0568 15.1124 51.4104 14.6535 50.5006 14.6868V13.7772H55.9022V14.6868C55.2106 14.8621 54.7494 15.0958 54.5106 15.3796C54.2719 15.6633 54.0866 16.1306 53.9548 16.7732C53.823 17.4158 53.7572 18.5257 53.7572 20.0863V47.6928H53.3455L42.2867 20.0863V41.1667C42.2867 43.0694 42.501 44.3546 42.9332 45.0223C43.3614 45.6982 43.8554 46.0321 44.4072 46.0321H44.7941V46.9334H38.9931V46.0321C39.8947 46.0154 40.5205 45.6398 40.8746 44.9055C41.2287 44.1711 41.4057 42.9275 41.4057 41.1667V17.7663L41.0557 16.8817C40.71 16.0054 40.4053 15.4296 40.1377 15.1459C39.8742 14.8705 39.4912 14.7202 38.9931 14.6868V13.7772H44.7941ZM64.7414 37.4948H58.9651L58.2775 40.7244C58.051 41.801 57.9399 42.6856 57.9399 43.3866C57.9399 44.3213 58.1251 45.0056 58.4957 45.4395C58.7098 45.7066 59.245 45.8986 60.0972 46.0321V46.9334H54.6585V46.0321C55.2431 45.8485 55.729 45.3561 56.1036 44.5466C56.4824 43.7455 56.9517 42.0763 57.5034 39.5477L63.3539 13.0929H63.5845L69.4802 40.2821C70.0443 42.8608 70.5055 44.4798 70.8677 45.1474C71.1436 45.6565 71.5306 45.9486 72.0288 46.0321V46.9334H64.1156V46.0321H64.4408C65.0749 46.0321 65.5237 45.8485 65.7789 45.4896C65.956 45.2309 66.0465 44.8554 66.0465 44.363C66.0465 44.0709 66.0219 43.7704 65.9725 43.4617C65.956 43.3115 65.8366 42.7022 65.61 41.6258L64.7414 37.4948ZM64.3297 35.6838L61.8964 24.2674L59.385 35.6838H64.3297ZM40.0721 37.9621H33.036V32.8964H40.0721V37.9621ZM95.893 26.4706L101.645 41.0665C102.46 43.1196 103.16 44.5132 103.744 45.2477C104.173 45.765 104.621 46.0321 105.095 46.0321V46.9334H96.5805V46.0321C97.1199 45.9319 97.4656 45.7567 97.6222 45.5147C97.7827 45.2726 97.8609 44.9723 97.8609 44.6134C97.8609 43.929 97.4904 42.6354 96.7492 40.7495L92.9985 31.1856L92.3933 32.2121V41.2585C92.3933 42.986 92.4428 44.0625 92.5415 44.4881C92.6363 44.9137 92.8215 45.2726 93.0933 45.5731C93.3691 45.8819 93.8055 46.0321 94.4108 46.0321V46.9334H86.16V46.0321H86.7035C87.1769 46.0321 87.5599 45.8568 87.848 45.5147C88.058 45.2893 88.2186 44.8971 88.3298 44.3379C88.4203 43.9541 88.4615 42.9275 88.4615 41.2585V19.452C88.4615 17.7579 88.4203 16.6981 88.3298 16.2725C88.2432 15.8469 88.0621 15.4796 87.7946 15.1626C87.5227 14.8454 87.1605 14.6868 86.7035 14.6868H86.16V13.7772H94.2996V14.6868C93.7479 14.6868 93.3238 14.8454 93.0356 15.1709C92.8257 15.4045 92.6609 15.7884 92.5415 16.3225C92.4428 16.7315 92.3933 17.7746 92.3933 19.452V29.7669L98.4621 19.8192C99.306 18.434 99.7301 17.3239 99.7301 16.4978C99.7301 15.8719 99.5571 15.3879 99.2114 15.0291C99.0343 14.8454 98.5938 14.7369 97.8939 14.6868V13.7772H104.275V14.6868C103.703 14.7703 103.258 14.9705 102.933 15.3045C102.604 15.6382 101.855 16.7732 100.681 18.6926L95.893 26.4706ZM116.104 37.4948H110.328L109.64 40.7244C109.414 41.801 109.303 42.6856 109.303 43.3866C109.303 44.3213 109.488 45.0056 109.859 45.4395C110.073 45.7066 110.608 45.8986 111.46 46.0321V46.9334H106.021V46.0321C106.606 45.8485 107.092 45.3561 107.466 44.5466C107.845 43.7455 108.315 42.0763 108.866 39.5477L114.717 13.0929H114.947L120.843 40.2821C121.407 42.8608 121.868 44.4798 122.231 45.1474C122.506 45.6565 122.893 45.9486 123.392 46.0321V46.9334H115.479V46.0321H115.804C116.438 46.0321 116.887 45.8485 117.142 45.4896C117.319 45.2309 117.409 44.8554 117.409 44.363C117.409 44.0709 117.385 43.7704 117.335 43.4617C117.319 43.3115 117.199 42.7022 116.973 41.6258L116.104 37.4948ZM115.693 35.6838L113.259 24.2674L110.748 35.6838H115.693ZM169.043 27.497L173.555 41.0665C174.305 43.3115 174.836 44.6801 175.153 45.1642C175.47 45.6398 175.848 45.9319 176.281 46.0321V46.9334H168.306V46.0321C168.944 45.9319 169.352 45.7316 169.537 45.4395C169.722 45.1474 169.817 44.7886 169.817 44.363C169.817 44.0709 169.788 43.8122 169.73 43.5869C169.619 43.0945 169.335 42.1849 168.886 40.8413L166.498 33.6809L164.003 39.8648C163.254 41.7425 162.879 43.011 162.879 43.6787C162.879 44.1543 162.978 44.5967 163.168 45.0056C163.361 45.4061 163.649 45.7066 164.024 45.8819C164.193 45.9819 164.539 46.0321 165.061 46.0321V46.9334H158.779V46.0321C159.495 45.8151 160.059 45.4228 160.467 44.8554C161.006 44.1043 161.76 42.5437 162.723 40.1569L165.967 32.1454L161.805 19.7441C161.121 17.7079 160.734 16.5729 160.636 16.3476C160.417 15.8135 160.207 15.4296 159.997 15.1959C159.787 14.9706 159.499 14.7954 159.129 14.6868V13.7772H167.248V14.6868H166.836C166.371 14.6868 166.046 14.8371 165.86 15.1375C165.675 15.438 165.58 15.8135 165.58 16.2725C165.58 16.6313 165.609 16.9401 165.667 17.1988L166.498 19.7441L168.524 26.0031L170.249 21.7219C171.134 19.5271 171.575 17.9833 171.575 17.107C171.575 16.6648 171.513 16.2557 171.39 15.8803C171.266 15.5047 171.085 15.2126 170.854 15.004C170.62 14.787 170.257 14.6868 169.767 14.6868V13.7772H175.787V14.6868C175.313 14.7035 174.93 14.8203 174.642 15.0373C174.35 15.2626 174.041 15.6716 173.712 16.2725C173.502 16.6648 172.979 17.8831 172.143 19.9194L169.043 27.497ZM189.474 13.0262V24.5093H189.004C188.65 21.5133 187.991 19.2184 187.024 17.616C186.061 16.0221 184.965 15.221 183.743 15.221C182.722 15.221 181.787 15.8135 180.935 17.0069C180.082 18.2003 179.457 19.7525 179.065 21.6803C178.559 24.1421 178.304 26.8794 178.304 29.8922C178.304 32.8548 178.489 35.5586 178.86 37.9955C179.23 40.4323 179.807 42.2766 180.597 43.5201C181.383 44.7719 182.405 45.3895 183.66 45.3895C184.689 45.3895 185.632 44.9388 186.489 44.0208C187.345 43.1112 188.247 41.5423 189.198 39.3057V42.1682C188.28 44.1043 187.324 45.5147 186.332 46.3826C185.336 47.2588 184.179 47.6928 182.849 47.6928C181.108 47.6928 179.555 46.9834 178.201 45.5647C176.846 44.146 175.801 42.1097 175.064 39.4559C174.331 36.7938 173.96 33.9646 173.96 30.9686C173.96 27.8058 174.368 24.8098 175.187 21.9723C176.002 19.1349 177.102 16.9318 178.489 15.3712C179.877 13.8023 181.351 13.0262 182.911 13.0262C184.06 13.0262 185.274 13.5269 186.555 14.5366C187.296 15.1208 187.765 15.4212 187.967 15.4212C188.222 15.4212 188.444 15.2293 188.634 14.8454C188.823 14.4616 188.947 13.8523 189.004 13.0262H189.474ZM197.452 37.9621H190.416V32.8964H197.452V37.9621ZM203.284 30.9937V41.2585C203.284 42.9527 203.33 44.0125 203.42 44.4381C203.515 44.8637 203.696 45.2309 203.964 45.548C204.235 45.8735 204.598 46.0321 205.055 46.0321H205.598V46.9334H197.047V46.0321H197.59C198.064 46.0321 198.447 45.8568 198.735 45.5147C198.945 45.2893 199.105 44.8971 199.216 44.3379C199.307 43.9541 199.352 42.9275 199.352 41.2585V19.452C199.352 17.7579 199.307 16.6981 199.216 16.2725C199.13 15.8469 198.949 15.4796 198.681 15.1626C198.414 14.8454 198.047 14.6868 197.59 14.6868H197.047V13.7772H205.598V14.6868H205.055C204.581 14.6868 204.198 14.8538 203.91 15.1959C203.7 15.4296 203.535 15.8135 203.416 16.3727C203.325 16.7648 203.284 17.7913 203.284 19.452V28.8406H209.061V19.452C209.061 17.7579 209.015 16.6981 208.929 16.2725C208.838 15.8469 208.657 15.4796 208.385 15.1626C208.11 14.8454 207.747 14.6868 207.286 14.6868H206.755V13.7772H215.298V14.6868H214.767C214.285 14.6868 213.902 14.8538 213.618 15.1959C213.412 15.4296 213.248 15.8135 213.124 16.3727C213.038 16.7648 212.992 17.7913 212.992 19.452V41.2585C212.992 42.9527 213.038 44.0125 213.124 44.4381C213.215 44.8637 213.396 45.2309 213.668 45.548C213.944 45.8735 214.306 46.0321 214.767 46.0321H215.298V46.9334H206.755V46.0321H207.286C207.768 46.0321 208.151 45.8568 208.435 45.5147C208.641 45.2893 208.805 44.8971 208.929 44.3379C209.015 43.9541 209.061 42.9275 209.061 41.2585V30.9937H203.284ZM225.515 37.4948H219.738L219.051 40.7244C218.824 41.801 218.713 42.6856 218.713 43.3866C218.713 44.3213 218.898 45.0056 219.269 45.4395C219.483 45.7066 220.018 45.8986 220.87 46.0321V46.9334H215.432V46.0321C216.016 45.8485 216.502 45.3561 216.877 44.5466C217.256 43.7455 217.725 42.0763 218.277 39.5477L224.127 13.0929H224.358L230.253 40.2821C230.818 42.8608 231.279 44.4798 231.641 45.1474C231.917 45.6565 232.304 45.9486 232.802 46.0321V46.9334H224.889V46.0321H225.214C225.848 46.0321 226.297 45.8485 226.552 45.4896C226.729 45.2309 226.82 44.8554 226.82 44.363C226.82 44.0709 226.795 43.7704 226.746 43.4617C226.729 43.3115 226.61 42.7022 226.383 41.6258L225.515 37.4948ZM225.103 35.6838L222.67 24.2674L220.158 35.6838H225.103ZM241.833 13.7772H247.308V14.6868C246.744 14.7786 246.283 15.1959 245.925 15.9303C245.567 16.6648 245.102 18.1752 244.534 20.4535L239.441 40.6994C238.646 43.8623 237.958 45.8151 237.374 46.5662C236.789 47.3173 236.098 47.6928 235.295 47.6928C234.418 47.6928 233.755 47.2087 233.31 46.2491C232.861 45.2893 232.639 44.2127 232.639 43.0194C232.639 42.0597 232.8 41.2669 233.117 40.6409C233.434 40.0067 233.821 39.698 234.282 39.698C234.714 39.698 235.031 39.9233 235.233 40.3823C235.435 40.8413 235.575 41.6591 235.657 42.8524C235.752 44.2545 236.036 44.9555 236.513 44.9555C237.073 44.9555 237.613 43.8623 238.127 41.6758L238.358 40.6994L232.507 19.1599C232.009 17.349 231.577 16.1723 231.21 15.6382C230.844 15.1042 230.313 14.7786 229.613 14.6868V13.7772H237.765V14.6868H237.452C236.505 14.6868 236.027 15.1375 236.027 16.0555C236.027 16.3976 236.118 16.8984 236.295 17.566L240.383 32.6794L243.484 20.3116C243.908 18.6091 244.122 17.3991 244.122 16.6647C244.122 16.1139 243.998 15.6549 243.747 15.2961C243.5 14.9372 242.862 14.7369 241.833 14.6868V13.7772ZM247.525 13.7772H256.039V14.6868H255.763C254.96 14.6868 254.421 14.9789 254.153 15.5798C253.881 16.1723 253.75 17.299 253.75 18.9597V28.8656C254.874 28.8656 255.606 28.7905 255.944 28.6319C256.282 28.4817 256.595 28.0311 256.883 27.2883C257.175 26.5456 257.451 25.1186 257.719 22.9989C258.031 20.5203 258.336 18.6593 258.628 17.4242C258.921 16.1806 259.328 15.2042 259.847 14.4782C260.366 13.7522 261.012 13.385 261.794 13.385C262.564 13.385 263.186 13.8356 263.651 14.7202C264.117 15.6132 264.351 16.7064 264.351 18.0083C264.351 19.0181 264.195 19.8192 263.882 20.4034C263.569 20.996 263.178 21.2881 262.713 21.2881C261.794 21.2881 261.301 20.2115 261.226 18.0584C261.193 16.9818 261.008 16.4478 260.671 16.4478C260.312 16.4478 259.999 16.8567 259.744 17.6912C259.485 18.5257 259.209 20.0112 258.913 22.1643C258.62 24.2674 258.373 25.8446 258.163 26.8962C257.953 27.9477 257.657 28.8322 257.27 29.5499C257.784 29.8087 258.18 30.1508 258.46 30.5765C258.735 31.002 258.987 31.5528 259.213 32.2288C259.439 32.9048 259.921 34.6156 260.658 37.3695L262.326 43.3866C262.581 44.2879 262.89 44.9472 263.248 45.3811C263.606 45.8151 264.038 46.0321 264.545 46.0321V46.9334H259.069L255.701 34.2234C255.318 32.788 255.034 31.92 254.853 31.6196C254.672 31.3109 254.305 31.1356 253.75 31.0939V42.31C253.75 43.9123 253.91 44.9304 254.235 45.3644C254.565 45.8068 255.166 46.0321 256.039 46.0321V46.9334H247.525V46.0321C248.467 45.9987 249.081 45.7149 249.377 45.1892C249.67 44.6551 249.818 43.5201 249.818 41.776V19.6022C249.818 17.6579 249.698 16.3559 249.468 15.6883C249.233 15.0207 248.702 14.6868 247.874 14.6868H247.525V13.7772ZM275.301 35.6838L272.868 24.2674L270.356 35.6838H275.301ZM155.128 23.1994H152.686L151.576 21.2901L150.288 23.1994H147.713C148.673 1.89074 141.952 2.42762 141.302 2.43167C138.202 2.40204 134.39 5.34732 134.797 22.0569H136.971L130.981 34.6669L124.991 22.0569L127.176 21.9906C126.914 17.0271 126.559 7.68462 134.245 2.05508C136.993 0.126879 139.385 0.0633525 141.289 0C141.844 0.0700968 156.953 -0.962169 155.128 23.1994Z" fill="#F2F5F7"/>
</svg>
