<svg width="177" height="37" viewBox="0 0 177 37" fill="none" xmlns="http://www.w3.org/2000/svg">
<g clip-path="url(#clip0_373_15507)">
<path fill-rule="evenodd" clip-rule="evenodd" d="M20.0634 0.171746C15.7794 0.611219 11.1315 2.27934 7.46591 4.69277C4.95254 6.34778 1.78303 9.60909 0.493599 11.8676L0.138489 12.4895L1.93291 12.482L3.72734 12.4745L4.28245 11.6074C5.02169 10.4529 7.02737 8.35546 8.18596 7.52522C10.0989 6.15451 10.1534 6.22819 8.45844 7.89304C6.93348 9.39083 6.00709 10.5071 5.00012 12.0601L4.72177 12.4895L6.28638 12.482L7.85099 12.4745L8.4061 11.603C9.11331 10.4929 10.8357 8.66691 11.8357 7.96751L12.6091 7.42656L11.7367 8.40838C10.6989 9.57646 9.25748 11.4596 8.94123 12.0601L8.71522 12.4895H10.3694H12.0237L12.5367 11.5946C13.0503 10.6989 14.9994 8.62351 15.1695 8.79119C15.2192 8.84005 14.9489 9.23487 14.5689 9.66857C14.1889 10.1023 13.6071 10.8969 13.2761 11.4343L12.6744 12.4114L14.3576 12.4559L16.0409 12.5002L17.2101 11.4254C19.2762 9.52619 21.9953 7.87071 24.5042 6.98474C28.1808 5.68646 32.5823 5.67757 36.5868 6.96023C38.9154 7.70616 41.765 9.21333 43.8507 10.8023C44.2518 11.1078 44.1918 10.9728 43.4565 9.91352C42.3194 8.27553 39.258 5.25089 37.7044 4.23019C34.0635 1.83846 29.9056 0.509898 24.9634 0.159101C22.4922 -0.0162199 21.8798 -0.0146587 20.0634 0.171746ZM68.8075 7.78438C67.5828 8.18201 66.9308 8.60556 65.9993 9.60878C64.8158 10.8833 64.4777 11.8566 64.4826 13.9726C64.4861 15.4902 64.5348 15.7929 64.9016 16.5763C65.6767 18.2315 67.2567 19.5574 69.0632 20.0685C70.4608 20.464 72.3139 20.3188 73.6346 19.7106C78.5879 17.4289 78.5849 10.3599 73.6298 8.07601C72.7212 7.6573 72.3462 7.57643 71.1332 7.53802C70.0678 7.5043 69.4781 7.56675 68.8075 7.78438ZM83.226 7.65355C81.4831 8.08615 79.6313 9.69386 78.9657 11.3521C78.6656 12.0996 78.6031 12.5511 78.6031 13.9726C78.6031 16.2461 78.9512 17.168 80.3182 18.5138C81.4954 19.6723 82.5937 20.1339 84.4558 20.2529C86.5987 20.3898 88.9015 19.5636 89.8859 18.3046L90.2829 17.797L89.5409 16.9421L88.799 16.0872L88.0077 16.7028C87.0872 17.4192 86.4047 17.6393 85.1007 17.6404C82.757 17.6426 81.1831 15.839 81.407 13.4079C81.5904 11.4176 83.034 10.1477 85.1134 10.1477C86.2311 10.1477 86.9354 10.378 87.7973 11.0251L88.3633 11.45L89.2366 10.5904L90.1097 9.73086L89.6899 9.23956C89.4588 8.96947 88.7398 8.4905 88.0919 8.1753C87.0176 7.65262 86.7782 7.59797 85.3678 7.55395C84.5172 7.52741 83.5535 7.57221 83.226 7.65355ZM152.655 7.81186C147.761 9.35758 146.74 15.9681 150.914 19.0811C152.083 19.953 153.005 20.2173 154.875 20.2168C156.329 20.2165 156.55 20.175 157.53 19.7184C162.817 17.2551 162.354 9.47779 156.82 7.78219C155.597 7.40782 153.896 7.41984 152.655 7.81186ZM52.8147 13.8795V20.1393H54.1628H55.5109V18.2118V16.2844L57.6292 16.1902C60.7483 16.0515 61.9749 15.5108 62.884 13.8742C63.2736 13.173 63.3498 12.8563 63.3513 11.9374C63.3533 10.547 62.7651 9.23831 61.8791 8.6627C60.624 7.84729 60.1121 7.7569 56.3436 7.68602L52.8147 7.61967V13.8795ZM90.562 8.89407V10.1383L92.5842 10.182L94.6064 10.2258L94.6482 15.1825L94.6901 20.1393H96.036H97.3819V15.1435V10.1477H99.4437H101.506V8.89875V7.64981H96.0338H90.562V8.89407ZM102.616 13.8966V20.1727L106.224 20.1051C109.446 20.0446 109.926 20.0014 110.704 19.7007C111.184 19.5156 111.781 19.1768 112.031 18.9481C113.396 17.6988 113.424 15.1171 112.086 13.9829L111.545 13.5248L112.032 12.8451C112.433 12.2848 112.529 11.9801 112.579 11.1111C112.653 9.83093 112.382 9.09827 111.633 8.55061C110.647 7.82887 110.198 7.75628 106.303 7.68649L102.616 7.62061V13.8966ZM114.987 13.8967V20.1438L119.864 20.1024L124.741 20.0612L124.787 18.8542L124.833 17.6473L121.298 17.6053L117.762 17.5633L117.716 16.2753L117.67 14.9874H120.928H124.186V13.8198V12.652L120.974 12.6098L117.762 12.5675L117.716 11.3576L117.67 10.1477H121.086H124.503V8.89875V7.64981H119.745H114.987V13.8967ZM126.723 13.8795V20.1393H128.071H129.42V18.1878V16.2363L130.728 16.2332C135.229 16.2226 137.219 14.8787 137.21 11.857C137.206 10.5872 136.908 9.81173 136.119 9.0149C135.046 7.93035 134.277 7.75597 130.252 7.68337L126.723 7.61967V13.8795ZM137.35 8.89875V10.1477H139.411H141.473V15.1435V20.1393H142.819H144.165L144.207 15.1825L144.249 10.2258L146.271 10.182L148.293 10.1383V8.89407V7.64981H142.821H137.35V8.89875ZM163.833 8.07913C163.832 8.31534 163.762 9.89557 163.678 11.5909C163.45 16.2219 163.077 17.3763 161.744 17.5863L161.14 17.6813V18.9103V20.1393L161.973 20.1383C164.411 20.1358 165.387 19.028 165.992 15.5756C166.129 14.7949 166.289 13.3069 166.347 12.269L166.453 10.3819L168.475 10.3382L170.498 10.2944V15.2169V20.1393H171.846H173.194V13.8945V7.64981H168.515H163.836L163.833 8.07913ZM28.8658 10.0294C26.7226 12.3916 22.4164 15.23 20.4305 15.5893C18.933 15.8604 17.0512 15.3252 15.8993 14.3007L15.2631 13.7351L8.30571 13.7757L1.34831 13.8165L9.6995 15.1141C14.2928 15.8279 18.4323 16.4492 18.8984 16.495C19.6692 16.5704 20.149 16.4402 24.187 15.0593C27.9652 13.7671 32.6264 11.9915 38.144 9.74179L39.4128 9.22457L34.4962 9.23362L29.5795 9.24268L28.8658 10.0294ZM55.6167 10.2518C55.5585 10.309 55.5109 11.0817 55.5109 11.9691V13.5823H57.3428C59.4118 13.5823 59.9453 13.4129 60.3597 12.624C60.8722 11.6483 60.2693 10.5719 59.0552 10.2944C58.3421 10.1316 55.7712 10.0998 55.6167 10.2518ZM69.3342 10.412C67.647 11.2304 66.8561 13.2032 67.4175 15.1936C67.6326 15.9556 68.5728 16.9844 69.3886 17.35C70.2116 17.7191 71.5784 17.7191 72.4035 17.3502C73.5798 16.8241 74.5432 15.2684 74.5432 13.8945C74.5432 12.5452 73.6117 11.0363 72.4314 10.474C71.5842 10.0701 70.1001 10.0404 69.3342 10.412ZM105.471 11.3013V12.4895H107.146C109.304 12.4895 109.746 12.2848 109.75 11.2831C109.754 10.469 109.225 10.2396 107.185 10.171L105.471 10.1132V11.3013ZM129.525 10.2518C129.467 10.309 129.42 11.0817 129.42 11.9691V13.5823H131.169C133.712 13.5823 134.336 13.2501 134.336 11.8964C134.336 11.0707 133.889 10.5433 133.001 10.3233C132.236 10.1336 129.698 10.0813 129.525 10.2518ZM153.198 10.4563C152.414 10.8646 151.519 11.8823 151.318 12.5955C150.913 14.0296 151.197 15.4743 152.071 16.4279C153.824 18.342 156.792 17.9734 158.014 15.6899C158.487 14.8045 158.483 12.9794 158.006 12.0798C157.622 11.3546 156.869 10.6715 156.109 10.3581C155.367 10.0522 153.879 10.1023 153.198 10.4563ZM39.369 13.4652C38.7875 14.4779 37.5764 15.6107 36.5025 16.1464C34.769 17.011 34.69 17.0166 24.1141 17.0203C14.983 17.0236 14.3128 17.0422 13.7193 17.3106C13.3703 17.4682 12.9489 17.7477 12.7827 17.9316L12.4806 18.2658H23.9705C36.4433 18.2658 36.3429 18.2721 38.1305 17.3902C39.8434 16.5453 41.4837 14.9358 42.365 13.2351L42.6707 12.6456H41.2551H39.8396L39.369 13.4652ZM105.471 16.3376V17.6877L107.284 17.5998C108.282 17.5514 109.297 17.418 109.541 17.3031C110.141 17.0199 110.373 16.3476 110.06 15.7985C109.678 15.1294 109.203 14.9922 107.255 14.9897L105.471 14.9874V16.3376ZM9.90299 19.1929C9.06842 19.3894 7.76059 20.1806 7.1855 20.8368C6.4821 21.6392 6.1143 22.3458 5.81771 23.4635L5.5814 24.3544H15.3654H25.1496L25.4259 23.8941C25.9602 23.0036 27.6618 20.8321 28.5211 19.9441L29.3898 19.0464L19.8892 19.0624C14.6639 19.0713 10.1701 19.13 9.90299 19.1929ZM53.3257 24.3935C54.5141 25.9394 54.8914 26.5465 54.7779 26.7312C54.7106 26.8408 54.277 27.4361 53.8144 28.054C53.3519 28.6719 52.9733 29.2163 52.9733 29.2639C52.9733 29.3114 53.185 29.3502 53.4437 29.3502C53.8377 29.3502 54.0429 29.1829 54.7043 28.323L55.4944 27.2957L56.2451 28.323C56.9154 29.24 57.0533 29.3502 57.5315 29.3502C58.1564 29.3502 58.1812 29.4139 56.9163 27.768L56.0004 26.576L56.9411 25.3481C57.4584 24.6728 57.8836 24.0675 57.8858 24.0032C57.8881 23.9389 57.6752 23.8861 57.4126 23.8861C57.0108 23.8861 56.8288 24.033 56.2627 24.8144C55.8928 25.3249 55.5471 25.7464 55.4943 25.7511C55.4415 25.7558 55.0979 25.338 54.7308 24.8228C54.1279 23.9768 54.0087 23.8861 53.4994 23.8861H52.9357L53.3257 24.3935ZM59.7142 24.132C58.5452 24.7321 58.1494 25.4371 58.2354 26.7663C58.3109 27.9331 58.7583 28.6326 59.6982 29.0528C60.5654 29.4405 61.3223 29.4241 62.177 28.999C64.8052 27.6921 63.8304 23.8828 60.8688 23.887C60.4953 23.8877 59.9757 23.9979 59.7142 24.132ZM64.8596 25.4863C64.8494 27.2929 64.6361 28.1085 64.1151 28.3334C63.869 28.4397 63.7583 28.6213 63.7583 28.9189C63.7583 29.277 63.8268 29.3502 64.1619 29.3502C64.6902 29.3502 65.2737 28.7613 65.4956 28.0042C65.5931 27.6712 65.7167 26.7841 65.77 26.0327L65.867 24.6667H66.8702H67.8735L67.9173 26.9694L67.9612 29.2722L68.3974 29.3215L68.8335 29.371V26.6285V23.8861H66.851H64.8685L64.8596 25.4863ZM70.6632 25.5644C70.5234 27.6161 70.3152 28.3167 69.8248 28.3854C69.5006 28.4307 69.4679 28.5198 69.4679 29.3612C69.4679 30.2446 69.486 30.2869 69.8644 30.2869C70.1992 30.2869 70.2609 30.214 70.2609 29.8186V29.3502H72.3228H74.3846V29.8186C74.3846 30.214 74.4463 30.2869 74.7811 30.2869C75.16 30.2869 75.1776 30.2453 75.1776 29.3502C75.1776 28.5176 75.1424 28.4135 74.8604 28.4135C74.5578 28.4135 74.5432 28.3094 74.5432 26.1498V23.8861H72.6604H70.7775L70.6632 25.5644ZM75.8479 26.5791C75.8902 29.2024 75.9002 29.2734 76.2331 29.3201C76.5037 29.358 76.9 28.9681 78.1363 27.4467L79.6978 25.5253L79.7423 27.4378L79.7869 29.3502H80.1785H80.5701V26.6182V23.8861H80.2097C79.9374 23.8861 79.4824 24.3488 78.3462 25.7811L76.8429 27.676L76.7984 25.7811L76.7538 23.8861H76.2793H75.8046L75.8479 26.5791ZM81.8389 26.6182V29.3502H82.2354C82.623 29.3502 82.6319 29.3242 82.6319 28.1793V27.0085H84.1386H85.6453V28.1896V29.371L86.0815 29.3215L86.5177 29.2722L86.5611 26.5791L86.6044 23.8861H86.1318H85.6593L85.6127 25.0179L85.566 26.1498H84.1386H82.7112L82.6646 25.0179C82.6199 23.9326 82.6021 23.8861 82.2284 23.8861H81.8389V26.6182ZM87.7072 26.6285V29.371L88.1433 29.3215L88.5795 29.2722L88.6234 26.9694L88.6672 24.6667H90.1698C91.6667 24.6667 91.6722 24.6653 91.6722 24.2764V23.8861H89.6897H87.7072V26.6285ZM94.2099 26.6213V29.3919L95.7578 29.3185C97.8791 29.218 98.4775 28.8727 98.487 27.743C98.4907 27.3268 98.3827 27.0426 98.1243 26.7883C97.7657 26.4353 97.7637 26.4175 98.045 26.0756C98.468 25.5616 98.4163 24.7977 97.9281 24.3463C97.5648 24.0102 97.3511 23.9651 95.8663 23.9111L94.2099 23.8507V26.6213ZM99.4437 26.6182V29.3502H101.506H103.567V28.8819V28.4135H101.981H100.395V27.711V27.0085H101.823C103.24 27.0085 103.25 27.0055 103.25 26.6182C103.25 26.2308 103.24 26.2279 101.823 26.2279H100.395V25.4473V24.6667H101.981H103.567V24.2764V23.8861H101.506H99.4437V26.6182ZM104.519 26.6182V29.3502H104.995H105.471V28.4135V27.4768L106.224 27.4759C108.006 27.4738 108.96 26.8581 108.96 25.7096C108.96 24.3577 108.154 23.8884 105.827 23.887L104.519 23.8861V26.6182ZM109.277 24.2764C109.277 24.6455 109.325 24.6667 110.149 24.6667H111.022V27.0085V29.3502H111.497H111.973V27.0085V24.6667H112.925C113.834 24.6667 113.877 24.6494 113.877 24.2764V23.8861H111.577H109.277V24.2764ZM115.228 24.2431C113.411 25.2559 113.452 28.0301 115.298 28.9907C117.792 30.2893 120.377 27.7367 119.059 25.2766C118.349 23.952 116.598 23.4796 115.228 24.2431ZM120.637 25.617C120.525 27.4365 120.244 28.4135 119.832 28.4135C119.665 28.4135 119.586 28.5628 119.586 28.8819C119.586 29.4506 119.971 29.5099 120.584 29.0355C121.127 28.6157 121.366 27.8412 121.477 26.1498L121.569 24.7447H122.6H123.631L123.674 27.0475L123.718 29.3502H124.111H124.503V26.6182V23.8861H122.623H120.744L120.637 25.617ZM125.772 26.6182V29.3502H127.834H129.895V28.8819V28.4135H128.23H126.565V27.711V27.0085H128.071C129.567 27.0085 129.578 27.0055 129.578 26.6241C129.578 26.2464 129.552 26.2388 128.111 26.1948L126.644 26.1498V25.4473V24.7447L128.19 24.7001C129.716 24.6559 129.737 24.6501 129.737 24.2708V23.8861H127.754H125.772V26.6182ZM130.213 24.2764C130.213 24.6494 130.255 24.6667 131.164 24.6667H132.116V27.0085V29.3502H132.592H133.067V27.0085V24.6667H133.94C134.764 24.6667 134.812 24.6455 134.812 24.2764V23.8861H132.512H130.213V24.2764ZM135.482 26.5791L135.526 29.2722L136.239 29.3232C138.338 29.4732 139.511 28.9118 139.68 27.6763C139.761 27.0796 139.718 26.9669 139.229 26.4858C138.75 26.0135 138.562 25.9417 137.544 25.841L136.398 25.7278V24.807C136.398 23.8862 136.398 23.8861 135.918 23.8861H135.439L135.482 26.5791ZM140.24 26.5791L140.284 29.2722L140.72 29.3215L141.156 29.371V26.6285V23.8861H140.676H140.197L140.24 26.5791ZM144.17 26.6182V29.3502H144.645H145.121V28.4135V27.4768L145.875 27.4759C147.657 27.4738 148.61 26.8581 148.61 25.7096C148.61 24.3577 147.804 23.8884 145.478 23.887L144.17 23.8861V26.6182ZM150.831 24.0614C149.84 24.4506 149.199 25.4537 149.199 26.6182C149.199 27.8551 149.725 28.6388 150.871 29.1101C151.682 29.4437 152.388 29.4102 153.215 28.999C154.006 28.6054 154.549 27.911 154.705 27.0926C154.923 25.9465 154.17 24.5376 153.103 24.099C152.506 23.8536 151.407 23.8354 150.831 24.0614ZM156.929 24.1057C155.79 24.5941 155.106 26.038 155.424 27.2812C155.671 28.2493 155.986 28.6603 156.762 29.0303C157.867 29.5569 159.201 29.4155 159.99 28.6883C160.32 28.3843 160.327 28.3386 160.091 28.0822C159.848 27.8171 159.816 27.8196 159.383 28.1352C158.814 28.549 157.691 28.5774 157.095 28.1932C156.863 28.0434 156.566 27.6691 156.435 27.3614C155.724 25.6863 157.466 24.104 159.098 24.9422C159.555 25.1772 159.725 25.1997 159.931 25.052C160.338 24.7585 160.239 24.5624 159.504 24.2122C158.725 23.8411 157.65 23.7966 156.929 24.1057ZM162.25 24.0614C161.223 24.4648 160.664 25.3817 160.664 26.6653C160.664 28.1564 161.569 29.1755 163.013 29.3121C163.875 29.3936 164.653 29.1935 165.26 28.7345C165.642 28.4449 165.645 28.4294 165.361 28.1211L165.07 27.8048L164.599 28.1483C163.99 28.5909 162.886 28.5913 162.281 28.1492C161.262 27.405 161.322 25.73 162.393 25.0226C163.055 24.5853 163.582 24.573 164.385 24.9758C164.844 25.2062 165.054 25.2412 165.212 25.1127C166.093 24.393 163.632 23.5192 162.25 24.0614ZM166.374 26.6182C166.374 29.3494 166.374 29.3502 166.731 29.3432C166.994 29.338 167.482 28.8425 168.594 27.4534L170.101 25.5706L170.146 27.4703L170.19 29.3701L170.621 29.321L171.053 29.2722L171.096 26.5791L171.139 23.8861H170.74C170.42 23.8861 170.036 24.2636 168.794 25.7985L167.246 27.711L167.202 25.7985L167.157 23.8861H166.765H166.374V26.6182ZM172.242 26.6182C172.242 29.3474 172.242 29.3502 172.599 29.3498C172.865 29.3493 173.339 28.8736 174.463 27.4776L175.969 25.6059L176.014 27.4781L176.058 29.3502H176.529H177V26.6182V23.8861H176.615C176.312 23.8861 175.905 24.2895 174.712 25.7695L173.194 27.6531V25.7695V23.8861H172.718H172.242V26.6182ZM27.2303 25.5297C24.4295 28.1575 20.6811 30.0732 17.1481 30.6822C11.7864 31.6066 5.9013 30.024 0.873768 26.3058L0.240629 25.8376L0.536422 26.3059C1.81127 28.3241 4.31448 30.9464 6.32873 32.3739C9.03306 34.2906 12.5524 35.7219 16.1776 36.3793C18.487 36.798 22.8191 36.9594 24.8214 36.7012C29.1571 36.1421 33.4123 34.5997 36.9545 32.3032C39.5007 30.6524 42.6619 27.3205 44.3114 24.5496C44.4015 24.3982 44.0261 24.3555 42.6339 24.3594L40.8402 24.3643L40.1706 25.3428C39.2314 26.7151 37.868 28.1589 36.5033 29.2267C34.5883 30.725 34.1712 30.794 35.7267 29.3552C36.9374 28.2357 39.1429 25.6007 39.6496 24.6687C39.8155 24.3637 39.7749 24.3544 38.2685 24.3559L36.7166 24.3571L36.0838 25.3316C35.4097 26.3695 33.0093 28.8625 32.365 29.1938C32.1186 29.3204 32.4088 28.8897 33.1653 28.0053C34.7953 26.1003 35.6857 24.8409 35.6857 24.4403C35.6857 24.393 34.9845 24.3544 34.1274 24.3544H32.569L31.821 25.5167C31.1097 26.6221 29.6631 28.1013 29.2934 28.1013C29.1984 28.1013 29.3364 27.8729 29.5999 27.5939C30.5187 26.6213 31.7206 24.8687 31.7206 24.5017C31.7206 24.4186 31.0118 24.3573 30.0949 24.3608L28.4693 24.3671L27.2303 25.5297ZM60.0016 24.9711C59.3583 25.3572 59.106 25.826 59.106 26.6349C59.106 27.9125 60.2753 28.7979 61.456 28.4143C63.0073 27.9103 63.2266 25.8241 61.8174 24.9784C61.1654 24.5872 60.6449 24.585 60.0016 24.9711ZM71.5298 25.5041C71.5298 26.3329 71.3344 27.6126 71.1272 28.1403C71.0305 28.3867 71.1461 28.4135 72.3058 28.4135H73.5916V26.5401V24.6667H72.5607H71.5298V25.5041ZM95.0744 24.8645C95.0227 24.9969 95.0033 25.3403 95.0314 25.6276L95.0822 26.1498L95.9918 26.1318C96.951 26.113 97.3819 25.9008 97.3819 25.4473C97.3819 25.019 97.0022 24.81 96.0482 24.713C95.3437 24.6415 95.1496 24.6717 95.0744 24.8645ZM105.471 25.582V26.5401H106.433C107.68 26.5401 108.008 26.3643 108.008 25.695C108.008 24.9908 107.721 24.8017 106.503 24.7056L105.471 24.6239V25.582ZM115.83 24.8952C115.211 25.16 114.828 25.8466 114.828 26.6908C114.828 27.1927 114.939 27.4443 115.359 27.8954C115.829 28.3999 115.977 28.4655 116.652 28.4655C117.327 28.4655 117.475 28.3999 117.945 27.8954C118.367 27.4422 118.476 27.1938 118.476 26.6836C118.476 25.8771 118.083 25.2092 117.428 24.9034C116.811 24.6153 116.487 24.6136 115.83 24.8952ZM145.121 25.582V26.5401H146.083C147.331 26.5401 147.659 26.3643 147.659 25.695C147.659 24.9908 147.371 24.8017 146.154 24.7056L145.121 24.6239V25.582ZM150.979 25.0204C150.218 25.5252 149.937 26.3236 150.218 27.1805C150.782 28.8997 153.019 28.9426 153.674 27.2468C153.985 26.4446 153.668 25.525 152.909 25.0231C152.227 24.5722 151.656 24.5715 150.979 25.0204ZM136.398 27.5549V28.4135H137.325C138.325 28.4135 138.777 28.1378 138.777 27.5277C138.777 26.9763 138.279 26.6962 137.297 26.6962H136.398V27.5549ZM95.0029 27.711V28.4135H96.0814C97.2228 28.4135 97.5405 28.2605 97.5405 27.711C97.5405 27.1614 97.2228 27.0085 96.0814 27.0085H95.0029V27.711Z" fill="#0C3F75"/>
</g>
<defs>
<clipPath id="clip0_373_15507">
<rect width="177" height="37" fill="white"/>
</clipPath>
</defs>
</svg>
