<svg width="148" height="39" viewBox="0 0 148 39" fill="none" xmlns="http://www.w3.org/2000/svg">
<g clip-path="url(#clip0_373_15504)">
<path fill-rule="evenodd" clip-rule="evenodd" d="M19.1869 1.95253C15.9739 5.92085 14.7997 7.17451 13.9031 7.59332C12.5932 8.20518 10.8296 8.6011 8.9589 8.70354C7.34032 8.79215 7.26799 8.81104 7.12521 9.18163C6.97433 9.57325 7.13905 9.8156 7.55948 9.82113C7.65965 9.82236 8.59664 10.0665 9.64205 10.3636C11.8551 10.9925 13.7151 11.8261 14.9213 12.7294C16.0462 13.572 18.9654 16.2547 18.9654 16.4459C18.9654 16.7291 18.1084 17.3921 17.2545 17.7691C16.1772 18.2449 14.1585 18.6809 12.3897 18.8201L11.0245 18.9274L11.4813 17.7158C11.9564 16.4554 12.7773 14.3492 13.3605 12.895C13.5468 12.4304 13.6361 12.1194 13.5588 12.2039C13.4815 12.2884 12.5425 13.4287 11.472 14.738C8.81487 17.9878 7.99811 18.8413 7.12879 19.2762C6.00779 19.8371 4.15963 20.2874 2.18392 20.4809C0.578721 20.638 0.400469 20.6862 0.285212 20.9938C0.171043 21.2982 0.225794 21.3506 0.812346 21.4983C2.53934 21.9336 5.15432 22.8007 6.14264 23.2657C7.45154 23.8819 8.54516 24.6986 10.6641 26.6421C12.1555 28.0101 12.2531 28.0727 12.4917 27.8126C12.8341 27.4391 12.8294 27.4166 12.118 26.0231C11.0191 23.8707 10.3557 21.2692 10.6302 20.1889C10.7265 19.8103 10.7826 19.7832 11.2785 19.875C12.2793 20.0604 15.767 21.2164 16.7101 21.6753C17.9381 22.273 19.4865 23.4588 21.2749 25.1712C22.0746 25.9369 22.7834 26.5635 22.8503 26.5635C22.917 26.5635 23.0721 26.4142 23.1948 26.2318C23.3993 25.9274 23.3507 25.7675 22.6048 24.2985C21.6574 22.4322 21.143 20.7043 21.143 19.3882C21.143 18.2637 21.6593 16.7233 23.9369 11.0521C24.1236 10.5875 24.2124 10.2765 24.1344 10.361C24.0565 10.4454 23.4074 11.2402 22.6921 12.1271C20.2689 15.1314 19.7816 15.6602 19.6192 15.4607C19.2733 15.0356 18.4595 13.2564 18.0398 12.0078C17.4201 10.1636 17.3154 9.14846 17.6332 8.06865C17.8619 7.29231 19.337 3.36392 20.1894 1.26143C20.3692 0.817892 20.4901 0.455139 20.4579 0.455139C20.4257 0.455139 19.8537 1.12904 19.1869 1.95253ZM51.8208 8.76451C46.5301 9.37191 41.3244 11.8556 37.5413 15.5774C34.2772 18.7884 32.362 22.3813 31.862 26.2315C31.4257 29.5915 32.6028 32.8676 35.063 35.1401C36.826 36.7683 38.9628 37.7907 41.6887 38.31C43.4084 38.6375 47.1753 38.6402 49.063 38.3152C57.9952 36.7772 65.4797 30.5502 67.5264 22.9544C67.9593 21.3478 67.9964 18.5057 67.6038 17.0416C66.0181 11.1285 59.7698 7.85179 51.8208 8.76451ZM78.4343 16.8497C74.5801 21.221 71.4462 24.8205 71.4702 24.8488C71.5655 24.9618 74.343 24.0364 75.7712 23.4158C80.9074 21.1838 85.6736 17.1233 89.7314 11.5225C90.4313 10.5563 91.1057 9.57157 91.2302 9.33398L91.4563 8.90196H88.4492H85.4421L78.4343 16.8497ZM92.7798 10.6297C90.9783 14.4041 89.8052 17.8688 89.1784 21.2663C88.7794 23.4285 88.7734 28.0912 89.1669 30.0135C89.5632 31.9487 90.2025 33.8322 91.2799 36.239L92.2081 38.3123L97.3274 38.3527L102.447 38.3932L98.8171 23.9931C96.8208 16.073 95.1498 9.43749 95.1037 9.24751C95.0321 8.95188 94.9176 8.90196 94.3122 8.90196H93.6044L92.7798 10.6297ZM112.291 8.97875C112.291 9.02114 110.366 15.596 108.014 23.5896C105.661 31.5832 103.736 38.1833 103.736 38.2564C103.736 38.3293 106.344 38.3887 109.53 38.3883L115.324 38.3877L117.185 32.17C118.208 28.7503 119.095 26.0034 119.156 26.0659C119.217 26.1284 120.944 28.9094 122.995 32.2459L126.723 38.3123L133.531 38.3523C140.019 38.3904 140.329 38.3795 140.105 38.122C139.435 37.3533 129.067 24.0711 129.011 23.9104C128.975 23.8057 132.226 21.0998 136.342 17.8095C140.411 14.5575 144.581 11.223 145.61 10.3994L147.481 8.90196H141.65H135.82L128.061 15.5834C123.794 19.2581 120.282 22.2037 120.256 22.1292C120.231 22.0546 121.053 19.0844 122.084 15.5287C123.114 11.9731 123.957 9.02759 123.957 8.98305C123.957 8.93836 121.332 8.90196 118.124 8.90196C114.916 8.90196 112.291 8.93652 112.291 8.97875ZM49.9962 16.0403C45.262 17.0693 41.2081 21.5005 41.2081 25.6465C41.2081 28.5507 43.0343 30.5842 46.227 31.2354C47.701 31.5361 48.1747 31.5378 49.706 31.2486C51.9701 30.8209 54.4062 29.409 56.1254 27.5281C59.638 23.6853 59.5044 18.6476 55.8375 16.677C54.3508 15.8781 51.9478 15.6161 49.9962 16.0403ZM73.9886 26.8828C72.5219 27.0616 69.4229 27.8353 68.6729 28.21C68.303 28.3948 66.7908 30.0628 63.9996 33.3646C61.7301 36.0494 59.8732 38.2782 59.8732 38.3175C59.8732 38.3568 62.4947 38.3891 65.6987 38.3891H71.5241L73.1776 36.239L74.831 34.0889H81.0399C85.6932 34.0889 87.2487 34.0437 87.2487 33.9084C87.2487 33.809 87.0039 33.2389 86.7047 32.6414C85.2855 29.8077 82.969 27.9568 79.8605 27.1731C78.3926 26.8029 75.7252 26.6712 73.9886 26.8828Z" fill="#0C3F75"/>
</g>
<defs>
<clipPath id="clip0_373_15504">
<rect width="148" height="39" fill="white"/>
</clipPath>
</defs>
</svg>
