<svg width="203" height="47" viewBox="0 0 203 47" fill="none" xmlns="http://www.w3.org/2000/svg">
<path fill-rule="evenodd" clip-rule="evenodd" d="M17.2861 9.40364C16.0904 11.6091 15.1122 13.4811 15.1122 13.5634C15.1122 13.6456 17.0637 17.3029 19.4489 21.6906C22.6485 27.5764 23.9892 29.8301 24.5618 30.2857C25.3235 30.8916 25.4149 30.9047 29.3734 30.9771L33.4086 31.0509L33.0236 30.2721C32.8118 29.8437 30.9958 26.4794 28.9881 22.7958C26.9805 19.1122 24.1358 13.8776 22.666 11.1633C21.1966 8.44907 19.8741 6.04055 19.7271 5.81096C19.4954 5.44929 19.1708 5.92705 17.2861 9.40364ZM126.244 6.91969C123.112 8.08388 121.414 11.1001 121.618 15.1369C121.776 18.2615 123.112 20.6808 125.331 21.8619C126.838 22.6637 130.007 22.699 131.398 21.9294C134.165 20.3981 135.763 16.5603 135.128 12.97C134.431 9.02646 131.816 6.56272 128.357 6.59116C127.666 6.5968 126.715 6.74461 126.244 6.91969ZM169.823 6.93191C165.968 8.22112 163.996 13.9979 165.923 18.3515C167.076 20.9541 168.943 22.3312 171.562 22.5094C174.59 22.7154 176.667 21.4624 178.01 18.6196C178.707 17.1445 178.753 16.8968 178.753 14.5758C178.753 12.4048 178.681 11.9456 178.169 10.8108C177.378 9.06265 176.644 8.21313 175.234 7.41319C173.786 6.5921 171.457 6.38506 169.823 6.93191ZM49.7914 7.00288L48.2689 7.0722V14.7109V22.3493L49.5604 22.2788L50.8517 22.2083L50.8075 16.3333L50.7631 10.4583L52.1987 16.1392C52.9882 19.2635 53.7018 21.9338 53.7844 22.073C53.8669 22.2121 54.4319 22.3258 55.04 22.3258C56.1277 22.3258 56.1495 22.3112 56.3706 21.4446C56.494 20.96 57.153 18.3033 57.8349 15.5414C58.5168 12.7792 59.1136 10.4785 59.1614 10.4289C59.2092 10.3791 59.2 13.0356 59.1411 16.3321L59.0342 22.3258H60.3054H61.5766V14.6883V7.05082H59.6754H57.7742L57.4325 8.28457C57.2446 8.96325 56.6652 11.3161 56.1446 13.5133C55.624 15.7106 55.1276 17.5915 55.0409 17.693C54.9546 17.7948 54.277 15.4236 53.5354 12.4239C52.3683 7.70459 52.1281 6.96763 51.7503 6.95165C51.5103 6.94154 50.6288 6.96457 49.7914 7.00288ZM75.2791 6.98948L73.9822 7.07432V7.88906C73.9822 8.58913 73.546 9.25535 70.8808 12.6236L67.7794 16.5434L67.7183 11.7971L67.6574 7.05082H66.3086H64.96V14.7001V22.3493L66.2569 22.2788L67.5539 22.2083L67.6725 21.1508C67.7776 20.2132 68.1353 19.6579 70.8303 16.2487L73.8694 12.4041L73.9303 17.365L73.9912 22.3258H75.34H76.6889V14.5708C76.6889 10.3056 76.6634 6.83579 76.6325 6.86023C76.6016 6.88467 75.9926 6.94295 75.2791 6.98948ZM79.9274 7.17043C79.8793 7.30086 79.8669 10.7377 79.8996 14.8079L79.9594 22.2083L81.2564 22.2788L82.5533 22.3493V18.8126V15.2758H85.7111H88.8689V18.8126V22.3493L90.1658 22.2788L91.4627 22.2083L91.5223 14.6524L91.5816 7.09664L90.4495 7.01486C89.8268 6.96998 89.2164 6.96857 89.0931 7.01157C88.9613 7.05763 88.8689 8.24391 88.8689 9.89032V12.6908H85.7111H82.5533V9.81207V6.93332H81.2841C80.586 6.93332 79.9754 7.04001 79.9274 7.17043ZM95.1118 7.00922C94.7669 7.07855 94.7333 7.75981 94.7333 14.7055V22.3258H96.0866H97.44V15.9808V9.63582H100.485H103.53V15.9926V22.3493L104.827 22.2788L106.124 22.2083L106.183 14.6296C106.216 10.4611 106.165 7.0487 106.071 7.04635C103.581 6.98196 95.3858 6.95423 95.1118 7.00922ZM137.814 14.6296L137.814 22.3258H139.085H140.356L140.251 16.2158C140.193 12.8553 140.169 10.1324 140.198 10.1646C140.227 10.197 140.825 12.5498 141.528 15.3933C142.23 18.2368 142.904 20.96 143.025 21.4446C143.242 22.3143 143.26 22.3258 144.369 22.3258C145.32 22.3258 145.526 22.2445 145.709 21.7971C145.828 21.5064 146.496 18.9418 147.194 16.0983C147.891 13.2548 148.511 10.8754 148.571 10.8108C148.631 10.7462 148.651 13.2842 148.616 16.4508L148.551 22.2083L149.837 22.2788L151.122 22.3493L151.122 14.6413V6.93332L149.29 6.97421C148.282 6.99653 147.378 7.10228 147.28 7.20921C147.183 7.3159 146.527 9.78269 145.822 12.6908C145.118 15.5989 144.516 18.0053 144.485 18.0382C144.454 18.0711 143.841 15.6918 143.123 12.7507C142.404 9.80972 141.742 7.31731 141.651 7.2125C141.56 7.10745 140.659 7.0017 139.65 6.9775L137.814 6.93332L137.814 14.6296ZM158.159 6.99653L153.129 7.05998L153.197 8.28903L153.265 9.51832L155.122 9.58647L156.979 9.65462L157.039 15.9315L157.099 22.2083L158.396 22.2788L159.693 22.3493V15.9926V9.63582H161.723H163.753V8.26506C163.753 7.31449 163.667 6.90018 163.471 6.91381C163.316 6.92439 160.926 6.96175 158.159 6.99653ZM109.448 14.6296L109.507 22.2083L110.797 22.2786L112.086 22.3488L112.15 19.6936L112.214 17.0383L114.695 16.9149C117.46 16.7775 118.261 16.4738 119.174 15.2173C120.981 12.7282 120.222 8.97077 117.641 7.6308C116.595 7.08771 116.297 7.05082 112.956 7.05082H109.388L109.448 14.6296ZM181.572 14.7001V22.3493L182.869 22.2788L184.166 22.2083L184.23 19.5646L184.294 16.9208H186.497C188.394 16.9208 188.857 16.8395 189.817 16.3373C191.349 15.536 192.018 14.4477 192.133 12.5686C192.284 10.0997 191.409 8.35389 189.589 7.49262C188.83 7.1333 188.083 7.06022 185.125 7.05599L181.572 7.05082V14.7001ZM194.203 14.6883V22.3258H195.557H196.91V15.9808V9.63582H199.842H202.774V8.34332V7.05082H198.489H194.203V14.6883ZM126.871 9.48025C124.528 10.5887 123.545 14.7412 124.948 17.6065C126.48 20.7337 130.368 20.6895 131.93 17.5274C133.151 15.0552 132.386 11.0954 130.445 9.84567C129.463 9.21352 127.795 9.04315 126.871 9.48025ZM170.385 9.61349C168.773 10.3761 168.036 11.9673 168.044 14.6646C168.05 16.6607 168.52 17.8972 169.677 18.9552C171.217 20.3645 173.468 20.208 174.867 18.5943C175.924 17.3748 176.237 16.2802 176.109 14.2449C175.86 10.2755 173.324 8.223 170.385 9.61349ZM112.15 12.0208C112.223 15.0782 112.048 14.8982 114.694 14.6293C116.551 14.4404 117.289 13.698 117.289 12.0171C117.289 11.1086 117.164 10.6853 116.745 10.1777C116.234 9.55944 116.072 9.51315 114.143 9.43583L112.086 9.35335L112.15 12.0208ZM184.328 12.0446L184.392 14.6883L186.042 14.6275C186.95 14.5938 187.979 14.412 188.33 14.2233C189.373 13.6611 189.77 11.8693 189.135 10.5897C188.712 9.7371 187.773 9.40082 185.817 9.40082H184.264L184.328 12.0446ZM7.04001 28.2767C3.29195 35.1688 0.225525 40.9056 0.225525 41.0255C0.225299 41.2995 8.77543 41.2471 9.02219 40.9717C9.3303 40.6274 16.966 26.4872 17.4284 25.4043C18.1252 23.7727 17.8987 22.8494 15.8768 19.0758C14.8979 17.2491 14.0426 15.7524 13.9758 15.75C13.9091 15.7477 10.7881 21.3846 7.04001 28.2767ZM64.8731 25.9869C63.336 26.4985 61.5857 28.3569 60.9004 30.2056C60.5041 31.2753 60.3805 32.0825 60.3805 33.6058C60.3805 36.2789 60.997 37.9677 62.5718 39.6084C66.0859 43.2695 71.936 41.7728 73.5221 36.8065C74.2488 34.5312 74.1211 31.4727 73.2218 29.6108C71.975 27.0296 70.2375 25.8266 67.5687 25.6976C66.5533 25.6485 65.5753 25.7535 64.8731 25.9869ZM80.2772 25.981C78.7809 26.4611 77.3394 27.8869 76.5614 29.6559C75.9826 30.9719 75.9089 31.402 75.9044 33.4883C75.8983 36.4164 76.3345 37.8443 77.7293 39.4606C79.0935 41.0415 80.6875 41.6832 82.8916 41.5387C84.7369 41.4177 85.9035 40.8685 87.096 39.5595C87.7873 38.8007 88.6433 37.4145 88.6433 37.054C88.6433 36.9536 86.5174 35.9558 86.3041 35.9558C86.2418 35.9558 85.9601 36.384 85.6777 36.9073C83.9373 40.1339 79.8153 39.2677 78.946 35.4929C78.554 33.7901 78.7601 31.5421 79.4244 30.277C80.7807 27.6946 84.3487 27.5499 85.4314 30.0336C85.6398 30.512 85.8279 30.936 85.8493 30.9759C85.9057 31.0814 88.4177 30.302 88.4177 30.179C88.4177 30.1222 88.2026 29.5988 87.9396 29.016C87.3524 27.7141 85.8126 26.2623 84.6268 25.8922C83.4621 25.5286 81.566 25.5674 80.2772 25.981ZM94.5808 26.0007C91.163 27.2625 89.3461 32.1615 90.6447 36.6152C91.6145 39.9424 94.0708 41.7521 97.3272 41.5387C99.1725 41.4177 100.339 40.8685 101.532 39.5595C102.223 38.8007 103.079 37.4145 103.079 37.054C103.079 36.9536 100.953 35.9558 100.74 35.9558C100.677 35.9558 100.396 36.384 100.113 36.9073C98.3729 40.1339 94.2508 39.2677 93.3815 35.4929C92.9895 33.7901 93.1957 31.5421 93.8599 30.277C94.844 28.4032 97.3003 27.6707 98.9117 28.7705C99.3594 29.0762 99.9423 30.0178 100.263 30.9534C100.29 31.0323 102.662 30.3579 102.777 30.239C102.833 30.1805 102.658 29.6428 102.388 29.0445C101.789 27.7172 100.257 26.2651 99.0624 25.8922C97.8755 25.5216 95.7382 25.5735 94.5808 26.0007ZM48.2686 33.6646V41.2433L49.5656 41.2116L50.8627 41.1799L50.9264 38.5885L50.99 35.9969L53.4075 35.9156C56.2662 35.8193 57.2525 35.4217 58.1545 34.0016C58.9778 32.7053 59.1305 30.1217 58.4637 28.7669C57.3493 26.5025 56.3097 26.0858 51.7722 26.0858H48.2689L48.2686 33.6646ZM105.162 33.6554L105.222 41.225L106.462 41.2259L107.703 41.2271L107.816 40.245C107.912 39.4087 108.38 38.6844 110.973 35.3641L114.018 31.465L114.079 36.2954C114.113 38.9521 114.214 41.1326 114.305 41.1409C114.395 41.1491 115.002 41.1754 115.654 41.1996L116.838 41.2433V33.6646V26.0858H115.484H114.131V26.9236C114.131 27.6512 113.724 28.2819 111.03 31.7223L107.928 35.6832L107.867 30.8845L107.806 26.0858H106.455H105.103L105.162 33.6554ZM120.221 33.7026C120.221 40.83 120.246 41.3143 120.616 41.2405C120.833 41.1973 121.442 41.1538 121.969 41.1439C122.928 41.1258 122.928 41.1256 122.928 40.2237C122.928 39.4129 123.242 38.9213 126.029 35.3686L129.131 31.4156L129.243 36.3295C129.305 39.0322 129.432 41.2168 129.525 41.1846C129.618 41.1524 130.202 41.1258 130.822 41.1258H131.95V33.6058V26.0858H130.597H129.243V26.9121C129.243 27.6265 128.824 28.2699 126.142 31.6673L123.041 35.5963L122.979 30.841L122.918 26.0858H121.57H120.221V33.7026ZM65.4025 28.7296C62.0038 30.5151 62.5519 37.7839 66.1617 38.7965C68.9187 39.5701 71.2593 37.3122 71.2706 33.8681C71.2769 31.97 70.9428 30.8074 70.0762 29.7123C68.8452 28.1562 67.1659 27.8032 65.4025 28.7296ZM50.9755 31.0208V33.6058H52.6525C53.5748 33.6058 54.5851 33.5045 54.8973 33.3809C55.5723 33.1135 56.1633 32.0245 56.1633 31.0478C56.1633 29.149 55.1799 28.4358 52.5616 28.4358H50.9755V31.0208ZM15.9016 33.5732C15.5295 33.8126 15.0644 34.2088 14.8679 34.4535C14.3744 35.0682 11.248 40.9383 11.3549 41.0494C11.5423 41.2447 38.7955 41.232 38.7955 41.0368C38.7955 40.923 37.8568 39.0992 36.7091 36.9832L34.6227 33.1363L25.6005 33.137C17.2112 33.1375 16.5309 33.168 15.9016 33.5732Z" fill="#0C3F75"/>
</svg>
