<svg width="218" height="19" viewBox="0 0 218 19" fill="none" xmlns="http://www.w3.org/2000/svg">
<g clip-path="url(#clip0_373_15508)">
<path fill-rule="evenodd" clip-rule="evenodd" d="M67.586 0.477302C63.5303 1.68198 61.6921 7.84515 64.0453 12.3476C66.2313 16.5308 73.7195 16.3896 76.0543 12.1215C77.2847 9.87225 77.1904 5.20689 75.8727 3.13184C74.3149 0.678155 70.7516 -0.463188 67.586 0.477302ZM0.69277 1.35763C1.4493 2.17643 2.11531 2.26238 7.69232 2.26238C13.5478 2.26238 13.8559 2.21714 13.8559 1.35763C13.8559 0.492682 13.5478 0.452873 6.85635 0.452873C-0.114106 0.452873 -0.139509 0.456492 0.69277 1.35763ZM17.089 7.91708V15.3813H22.4004H27.7118V14.2503C27.7118 13.1375 27.6518 13.1194 23.9929 13.1194H20.2735L20.4135 10.7444L20.5529 8.36945L23.4396 8.23465C25.5923 8.13422 26.3262 7.93291 26.3262 7.44299C26.3262 6.93633 25.6408 6.78614 23.3241 6.78614H20.322V4.52426V2.26238H24.0169C27.4038 2.26238 27.7118 2.18683 27.7118 1.35763C27.7118 0.505349 27.4038 0.452873 22.4004 0.452873H17.089V7.91708ZM30.9449 0.674537C30.9449 0.796226 31.8936 2.34561 33.0528 4.11757C34.2126 5.88908 35.0624 7.59137 34.9409 7.90034C34.8199 8.20931 33.7673 9.91929 32.6021 11.7003C31.4368 13.4809 30.483 15.0379 30.483 15.1596C30.483 15.2818 31.1587 15.3813 31.9841 15.3808C33.3166 15.3804 33.6353 15.1139 34.8241 13.0059C37.0133 9.12221 36.9126 9.1403 38.7776 12.306C40.3198 14.9235 40.5974 15.1664 42.1913 15.2971L43.9256 15.4387L42.812 13.7138C42.1991 12.7647 41.0556 10.9973 40.2699 9.7863L38.8419 7.58413L41.1285 4.26505C42.3862 2.43971 43.4152 0.83513 43.4152 0.699417C43.4152 0.563705 42.7303 0.452873 41.8929 0.452873C40.5447 0.452873 40.2145 0.719323 39.0063 2.78306C38.2557 4.06464 37.4429 5.13316 37.1995 5.15804C36.9565 5.18247 36.1344 4.13431 35.3732 2.82785C34.1438 0.717513 33.82 0.452873 32.4672 0.452873C31.6298 0.452873 30.9449 0.552395 30.9449 0.674537ZM47.1101 7.91708V15.3813H48.4957H49.8813V11.9885V8.59564H53.1144H56.3474V11.9885V15.3813H57.733H59.1186V7.91708V0.452873H57.733H56.3474V3.39332V6.33376H53.1144H49.8813V3.39332V0.452873H48.4957H47.1101V7.91708ZM82.5199 4.48128C82.1749 9.24163 81.0128 12.7041 79.5469 13.3397C78.6536 13.7269 78.5169 14.1318 78.5169 16.3932C78.5169 18.8727 78.5737 19.0003 79.6716 19.0003C80.7108 19.0003 80.8262 18.8193 80.8262 17.1908V15.3813H86.3686H91.911V17.1908C91.911 18.8193 92.0265 19.0003 93.0657 19.0003C94.1663 19.0003 94.2203 18.8763 94.2203 16.339C94.2203 14.0576 94.0882 13.6437 93.2966 13.4406C92.4278 13.218 92.3729 12.8235 92.3729 6.82866V0.452873H87.5926H82.8118L82.5199 4.48128ZM98.3771 7.91708V15.3813H99.9641C101.491 15.3813 101.668 15.1908 104.603 10.4192C106.282 7.68998 107.855 5.33718 108.097 5.19016C108.368 5.02639 108.538 6.94583 108.538 10.1523V15.3813H109.924H111.309V7.91708V0.452873L109.808 0.465992C108.389 0.478206 108.131 0.766822 105.074 5.75517L101.841 11.0317L101.711 5.74251L101.581 0.452873H99.9788H98.3771V7.91708ZM115.466 7.91708V15.3813H117.083H118.699V11.9885V8.59564H121.932H125.165V11.9885V15.3813H126.551H127.936V7.91708V0.452873H126.551H125.165V3.39332V6.33376H121.932H118.699V3.39332V0.452873H117.083H115.466V7.91708ZM133.88 7.9216L131.279 15.3813H132.768C134.104 15.3813 134.313 15.1963 134.81 13.5718L135.363 11.7623H138.328H141.294L141.847 13.5718C142.346 15.2026 142.549 15.3813 143.909 15.3813H145.417L142.872 7.91708L140.326 0.452873L138.404 0.457398L136.481 0.461467L133.88 7.9216ZM148.72 7.89129V15.3813H150.106H151.492V10.4051C151.492 7.38916 151.673 5.42901 151.953 5.42901C152.207 5.42901 152.415 5.64796 152.415 5.91622C152.415 6.18403 153.172 8.12834 154.097 10.2373C155.638 13.7514 155.879 14.0603 156.973 13.935C158.011 13.8161 158.426 13.2031 160.131 9.27421L162.093 4.75045L162.104 10.0659L162.114 15.3813H163.731H165.347V7.91708V0.452873L163.385 0.456042L161.422 0.459659L159.36 5.4652C158.227 8.21836 157.169 10.5499 157.009 10.6463C156.85 10.7426 155.795 8.53955 154.665 5.75065L152.611 0.679061L150.666 0.540182L148.72 0.400851V7.89129ZM169.504 7.91708V15.3813L171.005 15.3745C172.426 15.3682 172.679 15.0868 175.739 10.088L178.972 4.8079L179.103 10.0944L179.232 15.3813H180.604H181.975V7.91708V0.452873H180.637C179.424 0.452873 179.007 0.93375 176.134 5.64027C174.393 8.49386 172.813 10.8349 172.622 10.8426C172.431 10.8507 172.275 8.51648 172.275 5.6552V0.452873H170.89H169.504V7.91708ZM186.593 7.91708V15.3813H187.979H189.364V11.9885C189.364 8.68069 189.393 8.59564 190.507 8.59564C191.425 8.59564 192.083 9.2629 193.856 11.9876C195.86 15.0687 196.199 15.3795 197.562 15.3804C198.388 15.3808 199.064 15.2858 199.064 15.1691C199.064 15.0524 198.024 13.3976 196.754 11.4922C195.484 9.58635 194.445 7.79675 194.445 7.51492C194.445 7.23309 195.38 5.6371 196.523 3.96829C197.666 2.29902 198.602 0.82563 198.602 0.693084C198.602 0.56099 197.926 0.453325 197.101 0.453777C195.75 0.455135 195.416 0.748727 193.767 3.39422C192.219 5.87731 191.734 6.33376 190.649 6.33376C189.376 6.33376 189.364 6.30752 189.364 3.39332V0.452873H187.979H186.593V7.91708ZM205.938 1.67067C205.082 3.79367 201.373 14.6403 201.373 15.023C201.373 15.2202 201.976 15.3813 202.714 15.3813C204.179 15.3813 203.974 15.8423 206.979 5.76829C207.554 3.84027 208.159 2.41528 208.325 2.60166C208.49 2.78849 208.99 4.25328 209.436 5.85741C209.882 7.46153 210.351 9.03942 210.478 9.36332C210.642 9.78041 210.222 9.95277 209.043 9.95277C207.701 9.95277 207.377 10.1238 207.377 10.8317C207.377 11.542 207.753 11.7369 209.34 11.8496C211.185 11.9803 211.329 12.0902 211.731 13.6849C212.121 15.2343 212.296 15.3813 213.743 15.3813C215.003 15.3813 215.27 15.2338 215.045 14.6606C214.125 12.3115 214.18 11.7623 215.338 11.7623C215.961 11.7623 216.848 11.3551 217.307 10.8575C218.133 9.96408 218.114 9.95277 215.801 9.95277H213.458L211.883 5.31592L210.308 0.679061L208.379 0.53973C206.638 0.414422 206.401 0.523897 205.938 1.67067ZM67.4557 3.2463C66.2877 4.4745 65.8457 6.67666 66.2161 9.42168C66.8354 14.0101 71.5206 15.1035 73.2447 11.062C74.465 8.20117 73.8022 3.63308 72.0328 2.70525C70.5807 1.94436 68.4557 2.19543 67.4557 3.2463ZM85.2592 3.7326C85.1341 4.541 84.9128 6.39076 84.7678 7.84289C84.6223 9.29502 84.1905 11.076 83.8076 11.8012L83.112 13.1194H86.3566H89.6017V7.69089V2.26238H87.5441C85.5774 2.26238 85.4768 2.32707 85.2592 3.7326ZM137.679 3.9131C137.415 4.87123 136.903 6.62238 136.539 7.80398L135.879 9.95277H138.32H140.761L139.666 6.2641C139.064 4.23564 138.478 2.48495 138.365 2.37321C138.251 2.26193 137.943 2.95497 137.679 3.9131ZM6.00421 9.72658V15.3813H7.62074H9.23726V9.72658V4.07188H7.62074H6.00421V9.72658Z" fill="#0C3F75"/>
</g>
<defs>
<clipPath id="clip0_373_15508">
<rect width="218" height="19" fill="white"/>
</clipPath>
</defs>
</svg>
