<svg width="201" height="54" viewBox="0 0 201 54" fill="none" xmlns="http://www.w3.org/2000/svg">
<path fill-rule="evenodd" clip-rule="evenodd" d="M23.7513 9.42586C14.8833 11.3288 8.75775 19.2147 9.28714 28.0464C9.70936 35.0882 14.2629 41.2689 20.8923 43.798C23.1807 44.6711 24.9316 44.9733 27.6771 44.9694C32.5026 44.9627 36.6563 43.3454 40.1159 40.1258C48.2187 32.5855 47.6866 19.7591 38.9904 12.9955C37.1194 11.5403 34.4979 10.226 32.2899 9.63588C30.0418 9.03533 26.031 8.93658 23.7513 9.42586ZM26.0086 11.1109C22.0736 11.6732 18.912 13.105 16.3428 15.4881C12.7581 18.8132 10.8025 24.0251 11.3906 28.6875C11.5076 29.6157 11.6675 30.4384 11.7459 30.5161C11.8242 30.5937 14.447 28.942 17.5745 26.8455C20.7017 24.7491 26.2858 21.0135 29.9835 18.544C33.6812 16.0746 36.7064 13.9765 36.7064 13.8818C36.7064 13.5704 33.1066 11.9612 31.5483 11.576C30.0168 11.1974 27.11 10.9535 26.0086 11.1109ZM36.8049 14.3113C36.6 14.8669 29.4437 42.4694 29.4437 42.7039C29.4437 42.9014 29.6496 42.9199 30.376 42.7882C35.639 41.834 39.9948 38.5133 42.3096 33.6904C43.2738 31.6814 43.6071 30.2776 43.7196 27.7496C43.9288 23.0479 42.3862 19.0834 39.0689 15.7969C37.6122 14.3539 36.9496 13.919 36.8049 14.3113ZM65.4582 15.6191C60.3461 16.3573 57.3053 19.1063 57.5623 22.7571C57.6659 24.2292 58.151 25.26 59.2139 26.266C60.4222 27.4098 62.1346 28.0476 66.6405 29.0323C71.7534 30.1497 72.3268 30.3744 72.6336 31.3803C72.9669 32.4729 72.5309 33.3986 71.4154 33.9671C70.1888 34.5924 67.6142 34.5937 66.3044 33.9702C65.2564 33.4713 64.5794 32.5622 64.5794 31.654V31.05H60.8224H57.0655L57.1754 32.0962C57.4851 35.0452 59.7091 37.1855 63.4121 38.0987C64.1949 38.2918 65.913 38.4485 67.9163 38.5099C70.6917 38.5947 71.436 38.5517 73.1178 38.21C76.7134 37.4792 79.2116 35.8052 79.97 33.6181C80.7342 31.4147 80.1612 28.7461 78.6425 27.436C77.2389 26.2253 75.9781 25.7763 70.9039 24.6803C65.7352 23.5638 65.1683 23.2688 65.1683 21.6943C65.1683 19.9142 68.1803 18.8606 70.4173 19.8583C71.2554 20.232 71.6743 20.8337 71.932 22.0339L72.0459 22.5643H75.7783H79.5109L79.3926 21.5518C79.3274 20.9948 78.9931 19.978 78.6496 19.2922C77.6236 17.2435 75.5877 16.1321 71.9499 15.6349C70.2791 15.4066 66.9849 15.3985 65.4582 15.6191ZM166.524 15.7024C161.673 16.6052 158.811 18.7995 157.322 22.7571C156.874 23.9499 156.762 24.6109 156.686 26.5261C156.574 29.3522 156.802 30.5557 157.834 32.5809C158.807 34.4896 160.464 36.0718 162.539 37.0708C165.039 38.2746 166.091 38.4701 170.085 38.4727C173.175 38.4748 173.81 38.4204 175.147 38.0395C179.691 36.7456 182.564 34.0273 183.555 30.0857C183.921 28.6273 183.871 25.2752 183.46 23.7353C182.383 19.7092 179.676 17.084 175.385 15.9055C173.783 15.4658 168.453 15.3435 166.524 15.7024ZM81.0716 22.9982C81.0757 30.5854 81.2012 32.0737 81.9793 33.7774C82.5446 35.0149 84.0436 36.5491 85.3022 37.1784C87.7455 38.3998 92.0911 38.9803 95.9525 38.6015C100.813 38.1245 103.743 36.7676 105.065 34.381C106.095 32.5226 106.187 31.6305 106.19 23.4803L106.193 16.0071H102.672H99.1514L99.0898 23.3839C99.0309 30.4307 99.0095 30.7994 98.612 31.6285C97.7501 33.426 96.3808 34.1731 93.9301 34.1831C91.1424 34.1945 89.1988 32.9527 88.7442 30.87C88.6079 30.2459 88.5267 27.2846 88.5267 22.9405V16.0071H84.7972H81.0677L81.0716 22.9982ZM108.156 27.0964V38.1857H111.837H115.518L117.36 35.7819L119.203 33.3781L121.776 35.7781L124.349 38.178L132.201 38.1336L140.053 38.0893L140.105 33.6053L140.158 29.1214H144.473H148.787V33.6535V38.1857H152.517H156.246V27.0964V16.0071H152.517H148.787V20.3464V24.6857H144.469H140.151V20.3464V16.0071H136.423H132.695L132.644 26.8952L132.594 37.7834L127.934 32.9593L123.275 28.1349L125.079 25.7836C126.071 24.4903 128.146 21.8052 129.689 19.8168C131.233 17.8283 132.495 16.1577 132.495 16.1043C132.495 16.0509 130.556 16.0071 128.187 16.0071H123.878L119.746 21.3346L115.615 26.6621V21.3346V16.0071H111.885H108.156V27.0964ZM184.316 27.1006V38.194L188.094 38.1417L191.873 38.0893L191.924 27.0482L191.974 16.0071H188.145H184.316V27.1006ZM26.029 23.8244L18.9936 28.5341L22.6958 28.5866L26.3983 28.6393L27.6574 32.0642C28.35 33.948 28.9402 35.4662 28.9689 35.438C29.0774 35.3314 33.1973 19.245 33.1323 19.1813C33.095 19.1445 29.8985 21.2339 26.029 23.8244ZM168.514 20.034C167.498 20.2974 166.328 20.9799 165.76 21.6397C163.533 24.2282 163.627 30.3711 165.927 32.5575C167.361 33.9216 170.094 34.4281 172.429 33.7627C173.771 33.3803 175.094 32.0829 175.689 30.5678C176.293 29.0282 176.365 25.3314 175.82 23.7976C174.867 21.1165 173.403 20.0369 170.579 19.9348C169.768 19.9053 168.838 19.9501 168.514 20.034ZM11.8984 31.3875C12.3341 33.1899 13.7545 35.7609 15.2777 37.5043C17.1911 39.6946 20.2593 41.6106 23.1677 42.4318C24.5814 42.8308 29.2474 43.2194 29.2474 42.9381C29.2474 42.871 28.2632 40.1252 27.0603 36.8366L24.8733 30.8571H18.3217H11.7702L11.8984 31.3875Z" fill="#0C3F75"/>
</svg>
