<svg width="124" height="39" viewBox="0 0 124 39" fill="none" xmlns="http://www.w3.org/2000/svg">
<g clip-path="url(#clip0_373_15503)">
<path fill-rule="evenodd" clip-rule="evenodd" d="M0.384766 6.72387V13.1645L2.89552 15.6566L5.40627 18.1488V11.7108V5.27283H11.8854H18.3645L15.8564 2.77801L13.3484 0.283202H6.86658H0.384766V6.72387ZM23.4579 2.77667L20.9485 5.27283H27.3598H33.771V11.7108V18.1488L36.351 15.5879L38.9308 13.027L38.8956 6.6888L38.8604 0.350629L32.4137 0.315567L25.9672 0.28064L23.4579 2.77667ZM33.7719 27.0182L33.771 33.4575H27.3923C23.8841 33.4575 21.0137 33.5036 21.0137 33.56C21.0137 33.6165 22.0983 34.7391 23.424 36.0548L25.8343 38.4471H32.3764H38.9184L38.9256 32.0845L38.9327 25.7221L36.3529 23.1504L33.7729 20.5788L33.7719 27.0182ZM2.86159 23.2339L0.384766 25.683V32.065V38.4471H6.86658H13.3484L15.8564 35.9523L18.3645 33.4575H11.8867H5.40899L5.3737 27.1212L5.33841 20.7849L2.86159 23.2339ZM50.5998 30.8193V38.4471H52.2284H53.857V35.75V33.0529H56.2036C58.8951 33.0529 59.7182 32.8993 60.8369 32.1882C61.6552 31.6681 62.1241 31.1157 62.5702 30.1461C62.8229 29.5967 62.8773 29.2418 62.8788 28.1307C62.8805 26.9336 62.8381 26.6913 62.5004 25.973C62.02 24.9508 61.0159 23.9971 59.9898 23.5884C59.2528 23.2948 59.0225 23.2789 54.9088 23.2362L50.5998 23.1914V30.8193ZM53.857 28.131V30.2451L55.9267 30.1994C57.6933 30.1603 58.074 30.1131 58.5268 29.8771C59.8808 29.1711 59.9126 27.1739 58.5825 26.3776C58.1936 26.1447 57.8404 26.1017 55.9946 26.0623L53.857 26.0167V28.131ZM68.3787 27.3639C67.2362 27.6606 66.3736 28.1714 65.6638 28.9714C64.9719 29.7514 64.6421 30.3702 64.3744 31.3915C63.8419 33.4224 64.3782 35.5245 65.813 37.0321C66.8905 38.1643 68.2719 38.7087 70.0751 38.712C73.1343 38.7173 75.3515 36.8729 75.8655 33.8951C76.0693 32.7133 75.8866 31.388 75.3711 30.3104C74.1753 27.8106 71.3092 26.6028 68.3787 27.3639ZM82.3814 27.2636C79.7248 27.7831 77.8788 30.0938 77.8788 32.8996C77.8788 35.5094 79.2266 37.4934 81.611 38.3933C82.6364 38.7802 85.0011 38.7505 86.0418 38.3376C86.8402 38.0208 88.0576 37.0704 88.0576 36.7638C88.0576 36.6665 87.6439 36.2225 87.1383 35.7771L86.2191 34.9673L85.7261 35.4162C85.2355 35.863 84.497 36.1531 83.8503 36.1531C82.5894 36.1531 81.3044 35.1217 81.0014 33.8664C80.4034 31.3899 82.2089 29.3346 84.5447 29.8323C85.0001 29.9294 85.412 30.1355 85.7414 30.4312L86.2437 30.8822L87.1507 30.0688C87.6495 29.6215 88.0576 29.1756 88.0576 29.0779C88.0576 28.9803 87.8415 28.7119 87.5775 28.4816C86.2934 27.3612 84.2872 26.891 82.3814 27.2636ZM104.547 27.2978C101.143 28.1647 99.4098 31.6282 100.602 35.18C100.867 35.9687 101.65 37.0139 102.406 37.5869C104.151 38.9095 107.215 39.0758 109.556 37.9752C109.95 37.79 110.373 37.5279 110.496 37.3929C110.706 37.1625 110.682 37.0936 110.104 36.2619L109.489 35.3762L108.534 35.863C107.685 36.2959 107.464 36.3501 106.535 36.3532C105.677 36.3562 105.37 36.2954 104.816 36.0123C104.155 35.6742 103.55 34.9233 103.328 34.1655L103.239 33.862H107.407H111.575L111.498 32.7495C111.4 31.3285 111.12 30.435 110.473 29.479C109.49 28.0261 108.103 27.2707 106.244 27.1765C105.675 27.1478 104.926 27.2013 104.547 27.2978ZM89.9576 28.6701V29.9513H91.5183H93.0791V34.1992V38.4471H94.5041H95.9291V34.1992V29.9513H97.4898H99.0506V28.6701V27.389H94.5041H89.9576V28.6701ZM112.487 27.4602C112.487 27.4993 113.28 28.6763 114.251 30.076C115.221 31.4755 116.015 32.6935 116.015 32.7828C116.015 32.8721 115.354 33.8948 114.546 35.0555C113.738 36.2163 112.881 37.4542 112.64 37.8065L112.202 38.4471H113.827H115.452L116.633 36.7277C117.283 35.7821 117.862 34.9561 117.92 34.8925C117.979 34.8287 118.582 35.6025 119.262 36.6119L120.499 38.4471H122.133C123.404 38.4471 123.744 38.4096 123.665 38.2785C123.609 38.1859 122.722 36.9127 121.694 35.4496L119.824 32.7891L121.652 30.169C122.657 28.7281 123.48 27.5131 123.48 27.469C123.48 27.425 122.754 27.389 121.868 27.389H120.257L119.142 29.0747C118.529 30.0018 118.01 30.7604 117.99 30.7604C117.97 30.7604 117.447 30.0018 116.829 29.0747L115.706 27.389H114.096C113.211 27.389 112.487 27.421 112.487 27.4602ZM105.245 29.561C104.313 29.7788 103.558 30.5272 103.322 31.4684L103.228 31.8392H105.957C108.052 31.8392 108.686 31.8 108.683 31.6706C108.676 31.2701 108.137 30.3644 107.715 30.0444C107.462 29.8532 106.982 29.6342 106.648 29.5576C105.95 29.3978 105.944 29.3979 105.245 29.561ZM69.1755 29.8926C68.4222 30.1231 67.648 30.9113 67.4384 31.6611C67.2094 32.4811 67.2644 33.8557 67.5511 34.4689C68.408 36.3025 70.6039 36.7111 71.9788 35.2928C72.6118 34.64 72.8579 33.9505 72.856 32.835C72.8535 31.3589 72.0257 30.1756 70.7537 29.8304C70.0821 29.6481 69.9584 29.653 69.1755 29.8926Z" fill="#0C3F75"/>
</g>
<defs>
<clipPath id="clip0_373_15503">
<rect width="124" height="39" fill="white"/>
</clipPath>
</defs>
</svg>
