<svg width="161" height="42" viewBox="0 0 161 42" fill="none" xmlns="http://www.w3.org/2000/svg">
<path fill-rule="evenodd" clip-rule="evenodd" d="M13.2446 3.0778C8.09185 4.49856 3.7629 8.07435 1.39627 12.8652C0.582245 14.5127 -0.0245733 16.0105 0.047985 16.1937C0.169998 16.5011 20.1773 13.9167 20.5473 13.5456C20.7722 13.32 21.5812 3.14116 21.4011 2.80589C21.1617 2.36018 15.1166 2.56149 13.2446 3.0778ZM23.8608 8.88684C22.7999 11.3847 21.9996 13.4967 22.0822 13.5796C22.2945 13.7925 35.4016 14.5782 35.5896 14.3892C35.8589 14.1191 33.8056 10.5835 32.414 8.92087C31.0946 7.34442 27.0278 4.34468 26.2101 4.34468C25.9787 4.34468 24.9218 6.38856 23.8608 8.88684ZM46.2059 11.9481V19.25L50.5706 19.1294C54.649 19.0164 54.98 18.9524 55.6244 18.1536C56.5001 17.0674 56.6124 13.0097 55.7854 12.3214C55.3233 11.9365 55.3287 11.7722 55.8298 11.0053C56.2428 10.3735 56.3561 9.57006 56.2363 8.12359C55.9868 5.10647 55.6533 4.91023 50.5258 4.76685L46.2059 4.64628V11.9481ZM58.8404 11.9481V19.1895H63.5332H68.2261V17.7412V16.293H64.9566H61.6868L61.798 14.7542L61.9088 13.2154L64.526 13.1089L67.1431 13.0025V11.7671V10.5317L64.526 10.4253L61.9088 10.3188L61.7969 8.96106L61.6846 7.6033H64.9555H68.2261V6.15502V4.70675H63.5332H58.8404V11.9481ZM70.753 11.9481V19.1895H72.1969H73.6409V16.655V14.1205H76.3082C80.0314 14.1205 80.6032 13.618 80.7971 10.1747C80.9649 7.19815 80.4931 5.70932 79.1946 5.11589C78.7026 4.89068 76.6017 4.70675 74.5264 4.70675H70.753V11.9481ZM81.9436 6.15502V7.6033H83.7485H85.5534V13.3964V19.1895H86.9974H88.4413V13.3964V7.6033H90.2463H92.0512V6.15502V4.70675H86.9974H81.9436V6.15502ZM94.5279 5.39902C93.6958 6.07465 93.6756 6.22961 93.6756 11.9481C93.6756 19.2645 93.6233 19.1895 98.7208 19.1895C101.554 19.1895 102.206 19.0755 103.013 18.4389L103.964 17.6887V11.9481V6.20752L103.013 5.45732C102.206 4.8208 101.554 4.70675 98.7208 4.70675C95.9693 4.70675 95.2297 4.82877 94.5279 5.39902ZM107.592 10.0302C107.34 12.9583 107.053 15.5652 106.954 15.8234C106.855 16.0815 106.467 16.293 106.091 16.293C105.55 16.293 105.408 16.5584 105.408 17.5714C105.408 18.3582 105.61 18.9281 105.934 19.053C106.879 19.4162 109.006 18.4523 109.538 17.4197C109.921 16.676 110.811 10.0574 110.821 7.87485C110.822 7.72532 111.635 7.6033 112.627 7.6033H114.432V13.3964V19.1895H115.876H117.32V11.9481V4.70675H112.685H108.05L107.592 10.0302ZM119.486 11.9481V19.1895H124.179H128.872V17.7412V16.293H125.602H122.333L122.444 14.7542L122.555 13.2154L125.172 13.1089L127.789 13.0025V11.7671V10.5317L125.172 10.4253L122.555 10.3188L122.443 8.96106L122.33 7.6033H125.601H128.872V6.15502V4.70675H124.179H119.486V11.9481ZM130.677 6.15502V7.6033H132.482H134.287V13.3964V19.1895H135.731H137.174V13.3964V7.6033H138.979H140.784V6.15502V4.70675H135.731H130.677V6.15502ZM142.589 11.9481V19.1895H146.54C150.196 19.1895 150.566 19.1243 151.504 18.3158C152.46 17.4907 152.516 17.276 152.516 14.4826C152.516 11.6892 152.46 11.4745 151.504 10.6494C150.643 9.90715 150.113 9.77571 147.984 9.77571H145.477V7.24123V4.70675H144.033H142.589V11.9481ZM154.141 11.9481V19.1895H155.585H157.029V11.9481V4.70675H155.585H154.141V11.9481ZM49.0938 9.05158V10.5361L51.1695 10.4274L53.2451 10.3188V9.05158V7.78433L51.1695 7.67571L49.0938 7.56709V9.05158ZM73.6409 9.41365V11.224H75.6263H77.6117V9.41365V7.6033H75.6263H73.6409V9.41365ZM96.744 11.9481V16.293H98.9099H101.076V11.9481V7.6033H98.9099H96.744V11.9481ZM145.477 14.4826V16.293H147.463H149.448V14.4826V12.6723H147.463H145.477V14.4826ZM49.0938 14.6455V16.293H51.2803H53.4671L53.356 14.7542L53.2451 13.2154L51.1695 13.1067L49.0938 12.9981V14.6455ZM11.2324 22.4814L1.45944 30.1182L2.03161 31.2279C3.67265 34.4109 8.54741 38.2289 12.5558 39.4708C15.1462 40.2731 20.0055 40.4285 22.7418 39.7967C30.3885 38.0301 36.5647 30.5679 36.9083 22.6802L37.0007 20.5589L29.42 17.7083C25.2506 16.1405 21.6516 14.8548 21.4224 14.8512C21.1931 14.8476 16.6079 18.2811 11.2324 22.4814ZM46.2059 30.7453V38.0171H47.6498H49.0938V35.4826V32.9481H51.8174C54.2281 32.9481 54.6432 32.846 55.4273 32.0592C56.2193 31.2652 56.3135 30.8651 56.3135 28.2977C56.3135 23.9446 56.0724 23.7469 50.5706 23.5944L46.2059 23.4739V30.7453ZM59.0047 24.4232C58.1419 25.2882 58.1185 25.4573 58.1185 30.7757C58.1185 36.0941 58.1419 36.2632 59.0047 37.1282C59.8219 37.9483 60.158 38.0171 63.3528 38.0171C66.5475 38.0171 66.8836 37.9483 67.7008 37.1282C68.5636 36.2632 68.5871 36.0941 68.5871 30.7757C68.5871 25.4573 68.5636 25.2882 67.7008 24.4232C66.8836 23.6031 66.5475 23.5343 63.3528 23.5343C60.158 23.5343 59.8219 23.6031 59.0047 24.4232ZM72.2818 23.9098C70.9656 24.4399 70.6934 25.8396 70.818 31.4416C70.9638 38.0026 70.9753 38.0171 76.0274 38.0171C80.2119 38.0171 80.8606 37.5797 80.8606 34.7585V32.9481H79.4167C78.0478 32.9481 77.9727 33.0053 77.9727 34.0524V35.1567L75.897 35.0481L73.8214 34.9395V30.7757V26.6119L75.8728 26.504L77.9243 26.3961L78.0388 27.5902C78.1435 28.6844 78.2666 28.7937 79.5069 28.8966L80.8606 29.0092V27.0221C80.8606 25.3067 80.7307 24.9326 79.9094 24.2849C79.1174 23.66 78.468 23.5383 76.0288 23.5571C74.4177 23.5698 72.7315 23.7284 72.2818 23.9098ZM84.2199 24.4073C83.228 25.2621 83.2045 25.3718 83.0854 29.7047C82.8709 37.5124 83.1828 38.0171 88.2208 38.0171C92.4613 38.0171 93.1414 37.5985 93.4071 34.8258L93.5868 32.9481H91.9165C90.3015 32.9481 90.2463 32.984 90.2463 34.0343C90.2463 35.1097 90.226 35.1205 88.2608 35.1205H86.2754V30.7757V26.4309H88.2381C90.1881 26.4309 90.2011 26.4381 90.3138 27.6076C90.4206 28.7202 90.5054 28.7843 91.8707 28.7843C93.2464 28.7843 93.32 28.7268 93.4309 27.5645C93.5872 25.9254 92.8537 24.2711 91.7909 23.866C91.3126 23.6835 89.6412 23.5343 88.0771 23.5343C85.5917 23.5343 85.1047 23.6444 84.2199 24.4073ZM95.9018 23.7758C95.7693 23.9083 95.661 27.167 95.661 31.0172V38.0171H97.0942H98.5273L101.155 33.5817L103.783 29.1464L103.885 33.6031L103.986 38.0595L105.329 37.9479L106.671 37.8361V30.7757V23.7154H105.248H103.825L101.278 28.1395L98.7294 32.5636L98.6284 28.049L98.5273 23.5343H97.3349C96.679 23.5343 96.0339 23.643 95.9018 23.7758ZM109.018 30.754V38.0171L110.371 38.0124C111.72 38.008 111.734 37.9921 114.252 33.6364L116.779 29.2652L116.88 33.6411L116.982 38.0171H118.414H119.847V30.7757V23.5343H118.476C117.106 23.5343 117.105 23.5354 114.596 27.86L112.086 32.186L111.905 27.9505L111.725 23.7154L110.371 23.6031L109.018 23.4905V30.754ZM49.0938 28.2231V30.0516H51.2796H53.4653L53.3552 28.3317L53.2451 26.6119L51.1695 26.5033L49.0938 26.3947V28.2231ZM61.2626 26.6565C61.1219 26.798 61.0063 28.768 61.0063 31.0342V35.1549L63.2625 35.0474L65.5187 34.9395V30.7757V26.6119L63.5188 26.5055C62.4189 26.4472 61.4038 26.5149 61.2626 26.6565Z" fill="#0C3F75"/>
</svg>
