<svg width="302" height="252" viewBox="0 0 302 252" fill="none" xmlns="http://www.w3.org/2000/svg">
<path fill-rule="evenodd" clip-rule="evenodd" d="M1 1H269L301 33V219L269 251H1V1Z" fill="#F2F5F7"/>
<path d="M269 1L269.354 0.646447L269.207 0.5H269V1ZM1 1V0.5H0.5V1H1ZM301 33H301.5V32.7929L301.354 32.6464L301 33ZM301 219L301.354 219.354L301.5 219.207V219H301ZM269 251V251.5H269.207L269.354 251.354L269 251ZM1 251H0.5V251.5H1V251ZM269 0.5H1V1.5H269V0.5ZM301.354 32.6464L269.354 0.646447L268.646 1.35355L300.646 33.3536L301.354 32.6464ZM301.5 219V33H300.5V219H301.5ZM269.354 251.354L301.354 219.354L300.646 218.646L268.646 250.646L269.354 251.354ZM1 251.5H269V250.5H1V251.5ZM0.5 1V251H1.5V1H0.5Z" fill="#99AEBC"/>
</svg>
