<svg width="345" height="267" viewBox="0 0 345 267" fill="none" xmlns="http://www.w3.org/2000/svg">
<path fill-rule="evenodd" clip-rule="evenodd" d="M125.983 1.2616C125.804 1.44073 125.657 4.59421 125.657 8.27002V14.9532L126.994 15.1071L128.33 15.2605L128.47 21.814C128.639 29.7103 128.484 30.5521 126.863 30.5521H125.657V37.3483V44.1446L133.556 44.1931C142.959 44.2504 143.828 44.4228 144.043 46.2699C144.258 48.1248 142.926 49.4845 140.893 49.4845C139.41 49.4845 139.267 49.6132 139.267 50.9409V52.3972H132.137C125.113 52.3972 124.968 52.3754 122.423 50.9409C119.696 49.404 116.421 48.9608 116.421 50.1283C116.421 51.5715 114.038 52.922 109.338 54.1414C104.057 55.5124 99.1284 57.6153 94.9618 60.277C89.3043 63.8917 86.0399 67.6869 68.477 91.0685C58.9986 103.687 50.3931 114.738 49.3529 115.627C45.5027 118.919 43.4267 119.602 36.7052 119.791C30.6964 119.96 30.6162 119.948 29.4511 118.705C28.5878 117.784 27.7838 117.447 26.4457 117.447C25.0609 117.447 24.5461 117.218 24.3176 116.5C24.1519 115.978 23.2526 114.789 22.3184 113.856C20.3945 111.935 17.3449 111.189 14.3949 111.919C9.59056 113.108 5.61495 125.922 3.19138 148.03C1.63935 162.189 1.46484 166.262 1.46484 188.323C1.46484 210.374 1.62961 214.231 3.18554 228.615C4.86784 244.167 7.63265 256.111 10.7999 261.509C12.7102 264.764 16.224 265.875 19.8375 264.368C21.3944 263.718 24.5534 260.569 24.5534 259.666C24.5534 259.409 25.3875 259.198 26.4068 259.198C27.8504 259.198 28.5756 258.864 29.6878 257.688L31.1154 256.178L37.4674 256.427C44.8864 256.717 48.9923 257.953 50.2983 260.289C51.0031 261.549 50.9657 261.764 49.6168 264.173C48.8313 265.575 47.5739 267.574 46.8219 268.616C46.07 269.657 45.4565 270.858 45.4595 271.286C45.4633 271.966 54.3736 278.11 55.946 278.517C56.2527 278.597 57.2288 277.505 58.1154 276.09C60.8481 271.732 62.9309 269.392 64.0795 269.392C64.6633 269.392 70.468 272.898 76.979 277.182C85.8907 283.047 88.9427 285.306 89.3262 286.32C90.5341 289.515 101.551 295.377 109.616 297.115C112.477 297.732 115.161 298.602 115.723 299.095C117.184 300.376 119.44 300.177 122.254 298.519C123.614 297.718 124.846 297.063 124.991 297.063C125.248 297.063 122.292 300.765 118.306 305.437C117.224 306.705 116.045 307.743 115.686 307.743C114.749 307.743 113.019 310.108 113.019 311.389C113.019 311.988 112.691 312.75 112.29 313.083C111.465 313.766 111.339 315.835 112.014 317.607C112.7 319.409 117.327 323.912 120.789 326.148C125.385 329.114 128.367 329.661 129.789 327.798C130.056 327.448 131.04 326.753 131.976 326.254C133.138 325.635 133.896 324.75 134.367 323.463C134.747 322.426 136.278 319.959 137.77 317.981L140.482 314.385L140.631 316.404L140.781 318.423H143.311C145.469 318.423 145.912 318.583 146.321 319.515L146.801 320.607H190.791H234.781L234.936 319.515C235.077 318.523 235.355 318.423 237.974 318.423H240.857V316.08C240.857 313.53 239.8 312.071 237.454 311.38C235.434 310.785 235.024 310.161 235.024 307.684C235.024 305.639 234.891 305.315 234.052 305.315C233.346 305.315 233.079 304.992 233.079 304.137C233.079 302.643 235.182 300.946 237.034 300.946C238.36 300.946 238.426 300.843 238.426 298.762V296.577H247.95C257.065 296.577 257.485 296.536 257.728 295.607C257.957 294.733 258.391 294.636 262.078 294.636C270.812 294.636 281.848 291.316 290.607 286.054C300.332 280.213 309.27 270.412 313.994 260.412C318.346 251.199 319.599 246.131 319.949 236.327L320.22 228.748L322.219 228.248C323.319 227.973 326.953 226.941 330.294 225.956C333.636 224.971 337.136 223.95 338.071 223.686C353.347 219.378 359.099 217.727 360.901 217.133C363.067 216.42 363.075 216.422 364.045 217.783C366.403 221.095 370.768 225.093 373.758 226.681L376.941 228.372L378.228 232.498C379.882 237.805 382.244 245.404 382.866 247.426C383.133 248.293 383.499 249.002 383.679 248.999C384.101 248.993 399.449 244.666 399.599 244.51C399.663 244.445 401.024 242.683 402.626 240.594C405.829 236.417 405.796 236.647 403.959 231.285C402.093 225.836 400.714 220.665 400.937 219.95C401.075 219.509 401.76 217.782 402.46 216.112C403.16 214.442 404.008 211.165 404.345 208.83L404.957 204.585L409.55 203.266C413.386 202.164 414.39 202.036 415.648 202.487C417.638 203.202 419.334 202.723 421.115 200.944C421.917 200.143 422.793 199.488 423.062 199.488C424.147 199.488 425.512 196.851 426.037 193.745C427.075 187.6 424.702 170.818 420.431 154.099C413.55 127.162 403.562 102.764 397.095 97.0929C395.848 96.0002 394.877 95.5778 393.578 95.5647C392.591 95.5545 390.72 95.5108 389.421 95.4671C387.348 95.3977 386.896 95.571 385.723 96.8812C384.989 97.7026 383.755 98.524 382.981 98.7061C382.208 98.8886 380.055 99.4978 378.196 100.06C375.805 100.784 374.763 100.92 374.63 100.523C374.528 100.215 373.727 99.1065 372.852 98.0604C371.897 96.9186 371.132 95.3608 370.941 94.1652C370.65 92.3452 370.77 92.0209 372.331 90.4146C373.272 89.448 374.041 88.3975 374.041 88.0805C374.041 87.7635 373.592 85.3591 373.045 82.7377C372.182 78.6129 371.71 77.4749 369.541 74.2865C368.163 72.2598 367.011 70.5501 366.981 70.4874C366.951 70.4248 365.245 70.1399 363.189 69.8544C352.932 68.4297 339.875 72.703 335.88 78.792C335.435 79.4701 335.184 80.2075 335.322 80.4304C335.46 80.6532 335.905 82.7372 336.311 85.0615C336.856 88.1786 337.439 89.852 338.533 91.4399C340.189 93.8443 340.289 94.2807 339.392 95.2035C336.664 98.0099 334.794 102.605 334.014 108.418L333.431 112.762L331.498 113.366C328.432 114.325 322.877 115.926 321.5 116.248L320.239 116.543L319.927 111.049C319.131 97.0502 313 83.3707 302.93 73.1205C292.069 62.0664 279.3 56.0847 263.459 54.6313C258.836 54.2075 257.626 53.9453 257.626 53.3681C257.626 52.7584 256.419 52.6181 250.214 52.506L242.801 52.372V50.9283C242.801 49.5773 242.681 49.4845 240.932 49.4845C238.869 49.4845 237.454 48.3578 237.454 46.7145C237.454 44.6796 238.583 44.4004 247.856 44.1446L256.654 43.9019V22.5422V1.18249L191.481 1.05917C155.636 0.991697 126.162 1.08247 125.983 1.2616ZM127.115 7.97876C127.115 13.2046 127.176 13.5614 128.07 13.5614C129.69 13.5614 130.032 15.143 130.032 22.6451C130.032 28.3812 129.877 30.0705 129.275 30.9293C128.859 31.523 128.202 32.0084 127.817 32.0084C127.248 32.0084 127.115 33.0186 127.115 37.3483V42.6883H134.649H142.183V22.5422V2.39611H134.649H127.115V7.97876ZM143.163 22.6636C143.158 36.0182 143.325 43.1737 143.642 43.1737C144.293 43.1737 144.293 3.88838 143.642 2.88156C143.333 2.40485 143.168 9.24238 143.163 22.6636ZM145.598 3.64126C145.877 4.3738 146.072 12.7667 146.072 24.0301C146.072 40.7232 146.165 43.1737 146.801 43.1737C147.438 43.1737 147.53 40.5848 147.53 22.7849V2.39611H146.327C145.236 2.39611 145.168 2.51259 145.598 3.64126ZM149.475 6.22725V10.0584L151.278 9.13994C152.271 8.63458 153.802 8.22148 154.681 8.22148H156.28V5.3088V2.39611H152.877H149.475V6.22725ZM157.335 3.97382C157.196 7.33651 157.622 8.09383 159.834 8.42539C166.874 9.47979 172.806 15.9488 172.806 22.5728C172.806 29.3462 167.951 34.8507 160.318 36.7318L157.195 37.5018L157.44 41.1872C157.574 43.2145 157.696 45.1461 157.711 45.4796C157.732 45.9573 163.52 46.0864 184.958 46.0864H212.178V24.2413V2.39611H184.789H157.4L157.335 3.97382ZM213.636 24.2413V46.0864H217.039H220.441V24.2413V2.39611H217.039H213.636V24.2413ZM222.386 22.7849C222.386 40.5848 222.478 43.1737 223.115 43.1737C223.752 43.1737 223.844 40.5848 223.844 22.7849C223.844 4.985 223.752 2.39611 223.115 2.39611C222.478 2.39611 222.386 4.985 222.386 22.7849ZM225.302 24.2413V46.0864H227.49H229.677V38.2619V30.4375L228.239 28.8021C226.503 26.8277 225.59 23.734 225.995 21.2024C226.297 19.3164 228.478 15.5032 229.255 15.5032C229.487 15.5032 229.677 12.5541 229.677 8.94966V2.39611H227.49H225.302V24.2413ZM230.649 8.48122C230.649 14.3469 230.683 14.5483 231.589 14.0639C232.92 13.3527 237.195 13.4405 239.057 14.2172C239.921 14.5779 241.336 15.678 242.201 16.6615L243.773 18.4498V10.423V2.39611H237.211H230.649V8.48122ZM244.745 22.5422V42.6883H249.606H254.467V22.5422V2.39611H249.606H244.745V22.5422ZM157.268 11.0283C158.213 11.8313 159.561 13.5488 160.264 14.845C163.847 21.4519 162.478 29.5749 156.966 34.4075L155.108 36.0377L157.031 35.6988C163.505 34.558 167.105 32.4784 169.609 28.4322C171.48 25.4107 171.666 20.7388 170.036 17.6877C167.762 13.4269 163.132 10.3836 158.102 9.84334L155.55 9.56909L157.268 11.0283ZM151.662 10.724C149.565 11.8692 149.475 12.3624 149.475 22.6573C149.475 32.5007 149.479 32.5424 150.668 33.7294C152.336 35.3954 153.134 35.2289 154.849 32.858C155.669 31.723 156.819 30.6802 157.404 30.5404C158.917 30.1787 160.338 26.9709 160.57 23.3922C160.831 19.3839 159.215 15.0178 157.471 15.0178C156.827 15.0178 156.228 14.6537 156.071 14.1682C155.843 13.4648 153.052 10.1293 152.731 10.1779C152.678 10.1861 152.197 10.4317 151.662 10.724ZM190.592 11.8978C187.613 12.9881 185.44 14.9319 184.181 17.6309C180.62 25.2695 185.818 33.9046 193.999 33.9395C198.577 33.9594 202.543 31.7021 204.526 27.9481C206.15 24.8743 206.039 19.8227 204.286 17.1149C200.918 11.9084 195.845 9.97589 190.592 11.8978ZM192.492 13.0444C188.618 13.9862 185.974 16.5212 184.982 20.2436C183.727 24.9563 186.211 29.7851 190.897 31.74C194.775 33.358 199.324 32.0351 202.171 28.4617C203.414 26.901 203.672 26.101 203.83 23.3169C204.042 19.563 203.338 17.711 200.826 15.4144C199.564 14.2605 195.266 12.4536 194.226 12.6401C194.075 12.6677 193.294 12.8493 192.492 13.0444ZM231.818 15.9421C226.585 18.3154 226.252 26.0529 231.252 29.0986C233.702 30.5909 235.48 30.7385 238.002 29.6589C241.254 28.2666 242.558 26.2039 242.558 22.4529C242.558 19.7844 242.395 19.278 241.1 17.9028C238.367 15.0017 235.313 14.3566 231.818 15.9421ZM242.898 27.8622C241.976 29.8831 238.844 31.5973 235.908 31.6866C234.486 31.7303 232.721 31.5977 231.986 31.3924L230.649 31.0191V38.5527V46.0864H232.68C234.381 46.0864 234.965 45.8097 236.27 44.3873C237.725 42.8004 238.024 42.6883 240.801 42.6883H243.773V34.6784C243.773 30.2729 243.699 26.6685 243.608 26.6685C243.517 26.6685 243.198 27.2059 242.898 27.8622ZM149.475 40.7339V46.0864H152.877H156.28V41.7795V37.4726L154.284 37.1537C153.187 36.9784 151.656 36.5081 150.882 36.1085L149.475 35.3818V40.7339ZM146.072 45.601C146.072 45.868 146.4 46.0864 146.801 46.0864C147.202 46.0864 147.53 45.868 147.53 45.601C147.53 45.334 147.202 45.1155 146.801 45.1155C146.4 45.1155 146.072 45.334 146.072 45.601ZM222.386 45.601C222.386 45.868 222.714 46.0864 223.115 46.0864C223.516 46.0864 223.844 45.868 223.844 45.601C223.844 45.334 223.516 45.1155 223.115 45.1155C222.714 45.1155 222.386 45.334 222.386 45.601ZM145.586 48.5136C145.111 49.4001 145.217 49.4845 146.801 49.4845C148.386 49.4845 148.491 49.4001 148.016 48.5136C147.73 47.9797 147.183 47.5427 146.801 47.5427C146.419 47.5427 145.872 47.9797 145.586 48.5136ZM149.475 47.751C149.475 47.8651 149.818 48.302 150.238 48.7219C150.745 49.2277 151.89 49.4845 153.641 49.4845C155.955 49.4845 156.28 49.3651 156.28 48.5136C156.28 47.635 155.955 47.5427 152.877 47.5427C151.006 47.5427 149.475 47.6364 149.475 47.751ZM157.597 48.5136C157.847 49.47 158.26 49.4845 185.015 49.4845C211.854 49.4845 212.178 49.4729 212.178 48.5136C212.178 47.5544 211.854 47.5427 184.761 47.5427C157.582 47.5427 157.345 47.551 157.597 48.5136ZM213.636 48.5136C213.636 49.352 213.961 49.4845 216.013 49.4845C217.663 49.4845 218.74 49.1928 219.537 48.5296L220.684 47.5753L217.16 47.5587C213.955 47.5442 213.636 47.6306 213.636 48.5136ZM221.709 48.3107C221.267 49.4593 221.294 49.4845 222.924 49.4845C224.101 49.4845 224.369 49.3151 224.139 48.7165C223.977 48.2942 223.844 47.8573 223.844 47.7457C223.844 47.1578 221.96 47.6564 221.709 48.3107ZM225.788 48.0112C225.788 48.701 227.479 49.4845 228.968 49.4845C229.953 49.4845 230.196 49.2986 229.972 48.7165C229.81 48.2942 229.677 47.8573 229.677 47.7457C229.677 47.634 228.802 47.5427 227.733 47.5427C226.663 47.5427 225.788 47.7534 225.788 48.0112ZM231.135 48.5136C231.816 49.7836 235.803 49.9773 235.319 48.7165C235.156 48.2942 235.024 47.8573 235.024 47.7457C235.024 47.634 234.032 47.5427 232.819 47.5427C230.766 47.5427 230.65 47.6093 231.135 48.5136ZM118.198 54.2011C118.027 56.0123 117.885 62.464 117.883 68.5384C117.88 79.2876 117.906 79.5823 118.859 79.5823C119.822 79.5823 119.837 79.3367 119.71 65.4233C119.621 55.6454 119.415 51.2088 119.045 51.086C118.709 50.9739 118.394 52.1331 118.198 54.2011ZM140.725 51.6691C140.725 52.2773 141.725 52.3972 146.801 52.3972C151.878 52.3972 152.877 52.2773 152.877 51.6691C152.877 51.0608 151.878 50.9409 146.801 50.9409C141.725 50.9409 140.725 51.0608 140.725 51.6691ZM154.335 51.6691C154.335 52.2516 155.064 52.3972 157.981 52.3972C160.897 52.3972 161.626 52.2516 161.626 51.6691C161.626 51.0865 160.897 50.9409 157.981 50.9409C155.064 50.9409 154.335 51.0865 154.335 51.6691ZM162.599 51.6691C162.599 52.3055 165.38 52.3972 184.715 52.3972C204.05 52.3972 206.831 52.3055 206.831 51.6691C206.831 51.0326 204.05 50.9409 184.715 50.9409C165.38 50.9409 162.599 51.0326 162.599 51.6691ZM207.804 51.6691C207.804 52.2516 208.533 52.3972 211.449 52.3972C214.366 52.3972 215.095 52.2516 215.095 51.6691C215.095 51.0865 214.366 50.9409 211.449 50.9409C208.533 50.9409 207.804 51.0865 207.804 51.6691ZM217.039 51.6691C217.039 52.2773 218.038 52.3972 223.115 52.3972C228.191 52.3972 229.191 52.2773 229.191 51.6691C229.191 51.0608 228.191 50.9409 223.115 50.9409C218.038 50.9409 217.039 51.0608 217.039 51.6691ZM230.649 51.6691C230.649 52.0695 230.977 52.3972 231.378 52.3972C231.779 52.3972 232.107 52.0695 232.107 51.6691C232.107 51.2686 231.779 50.9409 231.378 50.9409C230.977 50.9409 230.649 51.2686 230.649 51.6691ZM233.079 51.6691C233.079 52.2555 233.836 52.3972 236.968 52.3972C240.1 52.3972 240.857 52.2555 240.857 51.6691C240.857 51.0826 240.1 50.9409 236.968 50.9409C233.836 50.9409 233.079 51.0826 233.079 51.6691ZM121.282 66.2199C121.282 77.8507 121.393 80.0678 121.971 80.0678C122.351 80.0678 123.007 80.2003 123.43 80.3624C124.119 80.6265 124.199 79.2775 124.199 67.268V53.8783L122.74 53.1254L121.282 52.3725V66.2199ZM114.843 54.3153C113.892 54.8502 113.506 55.4526 113.506 56.4022C113.505 57.8609 114.264 58.1124 115.638 57.109C116.211 56.6901 116.445 55.9949 116.338 55.022C116.18 53.5803 116.163 53.5725 114.843 54.3153ZM146.676 54.339L133.913 54.5817L148.743 69.3859L163.573 84.1901L178.757 69.0258L193.94 53.8618L176.689 53.9793C167.202 54.0434 153.696 54.2055 146.676 54.339ZM231.5 54.1963C232.101 54.3119 233.086 54.3119 233.687 54.1963C234.288 54.0803 233.796 53.9856 232.593 53.9856C231.39 53.9856 230.898 54.0803 231.5 54.1963ZM254.111 54.19C254.584 54.3133 255.241 54.305 255.57 54.172C255.899 54.039 255.512 53.9385 254.71 53.9482C253.908 53.9579 253.638 54.0667 254.111 54.19ZM106.943 56.4697C102.669 57.8275 98.0702 60.143 94.3051 62.8319C90.6095 65.4713 85.3127 70.8088 85.3127 71.8938C85.3127 72.3486 86.296 73.5259 87.4981 74.5094C89.6752 76.2915 89.6888 76.2949 91.0221 75.438C91.7585 74.9647 93.8919 73.0263 95.7633 71.1302C100.105 66.7315 104.532 63.4324 108.687 61.4994L111.966 59.9736L112.128 57.6415C112.321 54.8613 112.137 54.8196 106.943 56.4697ZM184.846 65.383C179.317 70.9229 172.267 77.9658 169.179 81.0333L163.566 86.6106L148.014 71.0845L132.462 55.5584V68.7126V81.8673L136.715 82.6523C139.055 83.0838 143.593 83.894 146.801 84.4528C156.768 86.1878 161.767 87.4164 164.546 88.8121C170.815 91.9612 176.531 97.4968 179.077 102.884C180.108 105.064 180.34 106.266 180.34 109.437C180.34 114.316 179.143 116.934 174.995 121.122C168.092 128.094 158.152 131.313 148.745 129.625C147.141 129.337 143.256 128.678 140.111 128.16C136.966 127.642 133.959 127.079 133.427 126.912C132.485 126.612 132.462 126.849 132.462 136.833V147.06H163.814H195.166V101.185C195.166 75.9536 195.106 55.3099 195.033 55.3099C194.96 55.3099 190.376 59.843 184.846 65.383ZM125.77 68.5321C125.889 79.7542 125.971 80.7969 126.751 80.9464C127.543 81.0989 127.601 80.2571 127.601 68.6952C127.601 56.5692 127.578 56.2808 126.621 56.2808C125.66 56.2808 125.643 56.527 125.77 68.5321ZM129.059 68.9025C129.059 76.9934 129.234 81.5241 129.546 81.5241C129.857 81.5241 130.032 76.9934 130.032 68.9025C130.032 60.8115 129.857 56.2808 129.546 56.2808C129.234 56.2808 129.059 60.8115 129.059 68.9025ZM197.596 58.9508V61.6207H222.629H247.662V58.9508V56.2808H222.629H197.596V58.9508ZM249.12 59.6789C249.12 61.6207 249.328 63.0771 249.606 63.0771C249.883 63.0771 250.092 61.6207 250.092 59.6789C250.092 57.7372 249.883 56.2808 249.606 56.2808C249.328 56.2808 249.12 57.7372 249.12 59.6789ZM251.55 174.73C251.55 279.695 251.633 293.179 252.279 293.179C252.925 293.179 253.008 279.695 253.008 174.73C253.008 69.7656 252.925 56.2808 252.279 56.2808C251.633 56.2808 251.55 69.7656 251.55 174.73ZM253.981 174.73C253.981 292.856 253.983 293.179 254.953 293.179C255.922 293.179 255.925 292.856 255.925 174.73C255.925 56.6046 255.922 56.2808 254.953 56.2808C253.983 56.2808 253.981 56.6046 253.981 174.73ZM257.563 174.574C257.737 239.635 257.987 292.973 258.118 293.104C258.248 293.234 258.355 240.002 258.355 174.811C258.355 86.3067 258.215 56.2808 257.8 56.2808C257.385 56.2808 257.325 86.0625 257.563 174.574ZM259.327 174.723V293.313L263.581 292.97C284.11 291.312 303.026 278.613 312.253 260.292C316.311 252.234 317.948 245.466 318.469 234.589C318.848 226.673 319.552 227.995 309.1 216.986C287.584 194.324 285.046 186.5 293.186 167.934C294.434 165.088 299.05 156.07 300.621 153.408C301.436 152.029 302.102 150.833 302.102 150.75C302.102 150.667 304.522 146.362 307.479 141.184C310.436 136.005 314.1 129.278 315.621 126.234L318.385 120.7L318.344 114.826C318.273 104.896 316.386 97.2876 311.749 88.2393C302.577 70.3418 283.567 57.6609 264.067 56.4327L259.327 56.1342V174.723ZM114.113 58.5654C112.301 58.9139 112.776 60.1644 114.72 60.1644C116.097 60.1644 116.421 59.9794 116.421 59.1935C116.421 58.227 116.194 58.1649 114.113 58.5654ZM112.533 67.6321C112.533 73.9594 112.562 74.1365 113.627 74.422C116.478 75.1851 116.421 75.3172 116.421 67.9316V61.1353H114.477H112.533V67.6321ZM108.644 62.7392C105.496 64.3431 103.858 65.4266 101.11 67.7267C97.1166 71.0685 94.9346 73.3666 95.3613 73.7807C95.5825 73.9953 99.318 74.0453 103.662 73.8914L111.561 73.6118V67.6165C111.561 64.3188 111.396 61.6217 111.196 61.6227C110.996 61.6237 109.847 62.1261 108.644 62.7392ZM197.596 65.9898V68.417H221.414H245.231V65.9898V63.5625H221.414H197.596V65.9898ZM246.689 65.9898C246.689 67.3247 246.908 68.417 247.176 68.417C247.443 68.417 247.662 67.3247 247.662 65.9898C247.662 64.6548 247.443 63.5625 247.176 63.5625C246.908 63.5625 246.689 64.6548 246.689 65.9898ZM249.12 66.9607C249.12 68.2956 249.339 69.3879 249.606 69.3879C249.873 69.3879 250.092 68.2956 250.092 66.9607C250.092 65.6257 249.873 64.5334 249.606 64.5334C249.339 64.5334 249.12 65.6257 249.12 66.9607ZM197.596 73.0288V75.6987H206.345H215.095V73.0288V70.3588H206.345H197.596V73.0288ZM216.553 78.6114C216.553 83.7897 216.734 86.864 217.039 86.864C217.344 86.864 217.525 83.7897 217.525 78.6114C217.525 73.4331 217.344 70.3588 217.039 70.3588C216.734 70.3588 216.553 73.4331 216.553 78.6114ZM219.183 78.6114C219.183 83.2838 219.256 85.1955 219.345 82.8591C219.434 80.5231 219.434 76.7002 219.345 74.3637C219.256 72.0278 219.183 73.939 219.183 78.6114ZM221.414 70.8442C221.414 71.1248 222.953 71.3297 225.059 71.3297C227.165 71.3297 228.705 71.1248 228.705 70.8442C228.705 70.5637 227.165 70.3588 225.059 70.3588C222.953 70.3588 221.414 70.5637 221.414 70.8442ZM230.363 78.6114C230.363 83.2838 230.436 85.1955 230.525 82.8591C230.614 80.5231 230.614 76.7002 230.525 74.3637C230.436 72.0278 230.363 73.939 230.363 78.6114ZM232.793 78.6114C232.793 83.2838 232.866 85.1955 232.955 82.8591C233.044 80.5231 233.044 76.7002 232.955 74.3637C232.866 72.0278 232.793 73.939 232.793 78.6114ZM235.024 73.0288V75.6987H241.343H247.662V73.0288V70.3588H241.343H235.024V73.0288ZM249.12 78.6114C249.12 83.7897 249.301 86.864 249.606 86.864C249.911 86.864 250.092 83.7897 250.092 78.6114C250.092 73.4331 249.911 70.3588 249.606 70.3588C249.301 70.3588 249.12 73.4331 249.12 78.6114ZM355.327 71.3734C348.168 72.2884 340.331 75.6419 338.005 78.7866C337.242 79.8177 337.302 80.0007 339.463 83.2212C341.422 86.1412 341.971 86.6358 343.661 87.0062C346.282 87.58 354.163 87.0859 357.758 86.1223C363.224 84.6562 370.152 80.5867 370.152 78.842C370.152 78.4735 369.164 76.7604 367.956 75.0351C365.979 72.2108 365.555 71.8661 363.703 71.5817C359.708 70.9681 358.696 70.9428 355.327 71.3734ZM354.112 72.3083C346.333 73.4283 340.016 77.4371 340.016 81.2537C340.016 84.1115 344.396 86.3849 349.883 86.3747C355.985 86.364 363.768 83.5644 366.191 80.5095C367.505 78.8522 367.759 76.1876 366.724 74.9346C364.939 72.7763 359.185 71.5782 354.112 72.3083ZM221.414 78.6114V84.4368H225.059H228.705V78.6114V72.786H225.059H221.414V78.6114ZM70.1632 91.5738C62.5887 101.64 56.3159 110.058 56.2241 110.279C56.051 110.696 57.5248 109.866 60.8092 107.696C63.0685 106.203 65.4342 105.655 67.0213 106.258C68.0722 106.657 68.3988 106.371 70.7757 102.969C74.1709 98.1104 84.8738 83.779 85.3414 83.4659C85.5407 83.3324 86.3763 81.9285 87.1977 80.3464C88.4154 78.0022 88.5815 77.3322 88.096 76.7288C87.1904 75.6031 84.6259 73.3016 84.2594 73.2856C84.081 73.2778 77.7377 81.5076 70.1632 91.5738ZM354.243 74.0933C354.716 74.2166 355.372 74.2084 355.701 74.0754C356.03 73.9424 355.643 73.8419 354.841 73.8516C354.039 73.8613 353.77 73.97 354.243 74.0933ZM361.16 74.4555C364.112 75.3239 364.143 75.3279 363.566 74.7526C363.312 74.4992 362.12 74.1681 360.917 74.0162L358.73 73.7404L361.16 74.4555ZM351.56 74.5637C351.894 74.6987 352.441 74.6987 352.775 74.5637C353.11 74.4293 352.836 74.3191 352.168 74.3191C351.499 74.3191 351.226 74.4293 351.56 74.5637ZM93.5833 75.5774C93.5877 75.7774 93.803 76.2691 94.0621 76.6696C94.4431 77.2585 94.5345 77.1886 94.5408 76.3055C94.5447 75.705 94.3294 75.2133 94.0621 75.2133C93.7947 75.2133 93.5794 75.3774 93.5833 75.5774ZM95.5203 75.8905C95.5203 76.4162 95.9087 76.4798 97.2599 76.1755C99.7647 75.6114 99.8828 75.2133 97.5458 75.2133C96.1371 75.2133 95.5203 75.4196 95.5203 75.8905ZM106.943 76.4143C108.012 77.0721 109.598 77.6172 110.467 77.6255C111.832 77.6386 112.047 77.4755 112.047 76.4269C112.047 75.2439 111.958 75.2133 108.523 75.2157L104.999 75.2181L106.943 76.4143ZM113.019 75.607C113.019 77.1454 113.584 77.5624 115.001 77.0691C116.607 76.5099 116.896 75.6987 115.489 75.6987C114.976 75.6987 114.211 75.5662 113.788 75.404C113.365 75.2419 113.019 75.3332 113.019 75.607ZM364.32 75.3968C364.32 75.4973 364.702 75.8798 365.17 76.2463C365.941 76.8497 365.958 76.8327 365.354 76.0628C364.719 75.2541 364.32 74.9973 364.32 75.3968ZM91.4105 76.4604C90.5794 77.0764 90.5492 77.2526 91.1675 77.8706C92.1897 78.891 93.4234 78.0415 92.8163 76.7352C92.407 75.856 92.2641 75.8278 91.4105 76.4604ZM105.464 78.3036C107.42 80.2575 108.591 83.1902 109.431 88.2393C110.182 92.7569 110.182 93.4462 109.433 98.2517C108.01 107.374 105.304 113.535 100.99 117.473C99.5425 118.794 97.884 119.892 97.3037 119.913C96.7238 119.934 96.5347 120.065 96.8832 120.205C98.1013 120.692 100.78 119.838 102.626 118.372C108.018 114.093 111.461 105.728 111.907 95.8235C112.067 92.2608 111.955 88.9757 111.62 87.4145C110.756 83.3907 108.8 79.7226 106.79 78.359C104.551 76.8395 103.974 76.8152 105.464 78.3036ZM343.261 78.5216C342.546 79.2677 341.96 80.0532 341.96 80.2668C341.96 80.4809 342.623 79.9474 343.432 79.0818C344.243 78.2158 344.828 77.4303 344.734 77.3362C344.64 77.242 343.977 77.7754 343.261 78.5216ZM197.596 80.3105V82.9804H206.345H215.095V80.3105V77.6405H206.345H197.596V80.3105ZM235.024 80.3105V82.9804H240.127H245.231V80.3105V77.6405H240.127H235.024V80.3105ZM246.689 80.3105C246.689 81.779 246.908 82.9804 247.176 82.9804C247.443 82.9804 247.662 81.779 247.662 80.3105C247.662 78.842 247.443 77.6405 247.176 77.6405C246.908 77.6405 246.689 78.842 246.689 80.3105ZM353.14 78.4007C349.883 79.1347 346.097 81.1328 345.178 82.6028C343.148 85.8509 355.006 85.4494 361.21 82.0605C362.483 81.3649 363.613 80.5197 363.722 80.1823C363.971 79.4075 361.068 78.1711 358.355 77.8968C357.224 77.7827 354.878 78.0095 353.14 78.4007ZM89.351 78.7022C89.072 79.0527 88.5889 79.8313 88.2768 80.4318C87.7791 81.3896 87.8287 81.5241 88.6812 81.5241C89.8799 81.5241 90.8627 79.859 90.279 78.8172C89.9358 78.2046 89.7632 78.1832 89.351 78.7022ZM97.7941 81.6353C95.9432 83.5979 95.1859 84.8475 92.9116 89.6952C92.494 90.585 91.6823 93.5341 91.1072 96.2487C89.5192 103.744 90.3791 112.285 93.0525 115.579C94.2691 117.077 94.8204 116.469 93.8842 114.661C92.7716 112.512 91.6317 107.055 91.6317 103.878C91.6317 96.6133 94.9317 86.8145 98.862 82.4086C101.517 79.4323 100.539 78.724 97.7941 81.6353ZM111.853 82.411C112.471 83.6999 113.199 85.7203 113.472 86.9014C114.076 89.5194 114.109 99.0002 113.523 101.67C111.984 108.678 109.429 114.099 106.15 117.315C104.44 118.992 103.986 119.706 104.461 119.972C104.818 120.171 107.163 120.687 109.672 121.119C112.181 121.55 115.875 122.191 117.88 122.544C121.281 123.143 121.665 123.12 123.608 122.207C127.022 120.602 130.192 115.706 132.59 108.335C133.488 105.575 133.654 103.939 133.663 97.7866C133.671 90.8321 133.612 90.3835 132.346 87.8063C130.389 83.8208 129.32 83.029 124.865 82.2639C122.761 81.9028 119.071 81.2644 116.665 80.8459C110.286 79.7362 110.533 79.6556 111.853 82.411ZM369.132 82.5241C364.024 86.6233 356.021 88.9476 347.814 88.715C344.443 88.6199 342.456 88.7437 342.475 89.0485C342.492 89.3155 342.777 90.9539 343.108 92.6889C343.664 95.6001 343.821 95.8676 345.144 96.1511C349.542 97.0934 357.596 96.2589 362.73 94.3287C366.56 92.8894 370.865 90.1985 371.633 88.7636C372.196 87.713 371.975 84.0338 371.229 82.0459C370.903 81.1779 370.773 81.2076 369.132 82.5241ZM92.0555 82.3736C91.4513 83.1435 91.4684 83.1606 92.2393 82.5572C92.7074 82.1906 93.0899 81.8081 93.0899 81.7076C93.0899 81.3081 92.6908 81.5649 92.0555 82.3736ZM100.03 82.6164C98.0877 84.7251 96.0282 88.4932 94.6872 92.3933C93.4409 96.0162 93.333 96.9118 93.333 103.612C93.333 110.163 93.4428 111.125 94.4291 113.2C95.0318 114.468 95.7079 115.505 95.9305 115.505C96.7714 115.505 99.529 111.949 101.12 108.811C104.402 102.339 105.695 92.1981 103.985 86.3456C103.177 83.579 102.086 81.5241 101.427 81.5241C101.212 81.5241 100.584 82.0159 100.03 82.6164ZM260.745 81.7668C260.723 81.9003 260.686 82.829 260.663 83.83L260.622 85.6504L265.269 85.7888C269.6 85.9174 269.936 86.0004 270.205 87.0024C270.586 88.4214 270.592 110.35 270.212 111.339C269.972 111.963 269.073 112.107 265.433 112.107C262.966 112.107 260.854 112.201 260.739 112.316C260.624 112.431 260.61 113.523 260.707 114.743L260.883 116.962H278.09H295.297V99.2429V81.5241H278.041C268.551 81.5241 260.768 81.6333 260.745 81.7668ZM262.244 83.7086C262.244 84.2979 263.019 84.4368 266.3 84.4368C272.293 84.4368 271.965 83.5887 271.965 99.0672C271.965 109.146 271.822 112.117 271.304 112.826C270.655 113.712 270.355 113.757 263.581 114.001C262.738 114.031 262.244 114.318 262.244 114.777C262.244 115.382 263.189 115.505 267.834 115.505H273.424V99.2429V82.9804H267.834C263.189 82.9804 262.244 83.1037 262.244 83.7086ZM274.882 99.2429V115.505H284.36H293.839V99.2429V82.9804H284.36H274.882V99.2429ZM79.7229 92.7122C75.9801 97.788 72.6991 102.208 72.4317 102.534C72.1644 102.86 71.3099 104.061 70.5327 105.205L69.1192 107.283L70.3854 108.603C74.3882 112.777 73.9949 120.851 69.6096 124.537L68.2258 125.7H77.5399H86.8545L86.6913 123.637L86.5279 121.574L89.8026 121.331L93.0773 121.088L91.5039 120.074C90.6387 119.517 89.3539 118.709 88.6496 118.279C85.7458 116.508 83.3684 109.6 83.3684 102.937C83.3684 98.7638 84.2535 93.7584 85.843 88.9442C86.3908 87.2849 86.769 85.3776 86.6834 84.7057C86.5532 83.6838 85.4129 84.996 79.7229 92.7122ZM131.559 84.2717C133.067 85.9868 133.913 88.281 134.685 92.7462C135.398 96.8754 135.398 97.6847 134.677 102.612C133.243 112.421 129.586 120.029 124.949 122.854C124.135 123.349 123.688 123.756 123.956 123.758C124.223 123.76 126.41 124.094 128.816 124.501C131.222 124.908 135.16 125.563 137.566 125.957C139.972 126.351 142.968 126.911 144.223 127.2C147.709 128.003 153.117 126.216 156.709 123.073C159.146 120.941 161.578 117.352 162.895 113.947C164.052 110.957 164.264 109.694 164.263 105.796C164.261 100.629 163.499 97.9789 160.836 93.8919C157.981 89.5083 155.204 87.7471 149.475 86.6859C144.535 85.7713 135.414 84.146 132.712 83.6994C130.86 83.393 130.809 83.4183 131.559 84.2717ZM338.318 86.3786C338.589 88.1898 340.557 92.2039 341.175 92.2039C341.763 92.2039 340.314 87.516 339.261 86.0087L337.992 84.1941L338.318 86.3786ZM197.596 87.5922V90.2622H222.629H247.662V87.5922V84.9222H241.372H235.082L234.931 86.7427L234.781 88.5631L224.938 88.6946L215.095 88.8257V86.8742V84.9222H206.345H197.596V87.5922ZM221.414 86.3786C221.414 86.6592 222.953 86.864 225.059 86.864C227.165 86.864 228.705 86.6592 228.705 86.3786C228.705 86.098 227.165 85.8931 225.059 85.8931C222.953 85.8931 221.414 86.098 221.414 86.3786ZM92.1314 87.5563C91.409 89.4539 91.552 89.7524 92.4182 88.1563C92.8294 87.398 93.0457 86.6582 92.8984 86.5111C92.7516 86.364 92.406 86.8344 92.1314 87.5563ZM88.6895 88.1451C88.4212 88.8495 88.2923 89.516 88.4022 89.6262C88.5125 89.7364 88.8353 89.1597 89.1197 88.3451C89.7521 86.5344 89.3705 86.3567 88.6895 88.1451ZM106.738 87.6325C106.762 88.198 106.877 88.3131 107.032 87.9262C107.172 87.5757 107.155 87.1567 106.994 86.9956C106.832 86.8344 106.717 87.1208 106.738 87.6325ZM159.244 90.217C169.516 100.75 166.304 120.135 153.202 126.674C150.516 128.015 150.436 128.106 151.663 128.413C153.564 128.89 158.922 128.228 162.314 127.097C168.113 125.164 174.458 120.375 177.106 115.933C179.354 112.163 179.337 107.085 177.062 102.482C175.474 99.2687 169.761 93.6933 165.778 91.4685C163.205 90.0316 157.905 87.8349 157.011 87.8349C156.961 87.8349 157.966 88.9068 159.244 90.217ZM249.12 90.2622C249.12 91.5971 249.339 92.6894 249.606 92.6894C249.873 92.6894 250.092 91.5971 250.092 90.2622C250.092 88.9272 249.873 87.8349 249.606 87.8349C249.339 87.8349 249.12 88.9272 249.12 90.2622ZM90.4165 92.2039C90.2342 92.7782 90.1939 93.3574 90.3276 93.4909C90.4612 93.6244 90.7203 93.2637 90.9026 92.6894C91.0849 92.1151 91.1252 91.536 90.9915 91.4025C90.8579 91.269 90.5988 91.6297 90.4165 92.2039ZM107.309 92.9321C107.314 94.0001 107.414 94.3797 107.53 93.7758C107.646 93.1719 107.642 92.2981 107.52 91.8341C107.398 91.37 107.303 91.8641 107.309 92.9321ZM87.1034 92.3894C86.9206 92.8651 86.785 93.6186 86.8016 94.0642C86.822 94.6006 86.9912 94.4783 87.3018 93.7021C87.5599 93.0574 87.6955 92.3039 87.6031 92.0272C87.5108 91.751 87.2857 91.9141 87.1034 92.3894ZM197.596 94.6312V97.0584H221.414H245.231V94.6312V92.2039H221.414H197.596V94.6312ZM246.689 94.6312C246.689 95.9662 246.908 97.0584 247.176 97.0584C247.443 97.0584 247.662 95.9662 247.662 94.6312C247.662 93.2962 247.443 92.2039 247.176 92.2039C246.908 92.2039 246.689 93.2962 246.689 94.6312ZM366.568 94.4792C361.74 96.9303 358.607 97.6443 351.54 97.9065L344.836 98.1551L345.154 100.398C345.68 104.114 346.337 105.079 348.291 105.004C350.491 104.921 362.149 101.745 368.087 99.6109C370.35 98.7973 370.475 98.4259 369.535 95.2904L368.932 93.2792L366.568 94.4792ZM89.7642 95.1166C89.7642 95.7841 89.8745 96.0574 90.0092 95.7234C90.1443 95.3899 90.1443 94.8438 90.0092 94.5098C89.8745 94.1763 89.7642 94.4491 89.7642 95.1166ZM249.12 174.487C249.12 227.725 249.284 254.829 249.606 254.829C249.928 254.829 250.092 227.725 250.092 174.487C250.092 121.25 249.928 94.1457 249.606 94.1457C249.284 94.1457 249.12 121.25 249.12 174.487ZM281.665 95.4807C278.691 98.1361 280.047 103.444 283.78 103.761C286.108 103.96 287.449 103.172 288.317 101.095C289.253 98.859 288.791 96.9108 286.961 95.3725C285.076 93.7884 283.525 93.8205 281.665 95.4807ZM86.3617 96.0875C86.3617 96.755 86.472 97.0283 86.6066 96.6943C86.7418 96.3608 86.7418 95.8147 86.6066 95.4807C86.472 95.1472 86.3617 95.42 86.3617 96.0875ZM339.526 97.7919C338.696 98.9963 337.698 100.744 337.308 101.676C336.531 103.536 335.155 109.64 335.155 111.233C335.155 112.161 335.232 112.14 336.163 110.959C337.479 109.287 338.942 109.342 340.91 111.136C341.788 111.937 342.602 112.593 342.719 112.593C342.836 112.593 342.932 111.836 342.932 110.911C342.932 109.985 343.262 108.259 343.665 107.074C344.316 105.158 344.317 104.538 343.669 101.464C343.056 98.5527 341.812 95.6021 341.198 95.6021C341.108 95.6021 340.356 96.5875 339.526 97.7919ZM282.294 97.0438C281.55 98.2361 281.517 99.7177 282.207 101.005C282.622 101.78 282.867 101.86 283.422 101.399C284.279 100.689 284.331 98.021 283.51 96.9001C282.943 96.1278 282.861 96.1375 282.294 97.0438ZM285.557 97.0017C285.928 97.7089 286.051 98.9362 285.871 100.157C285.599 102.003 285.632 102.084 286.305 101.213C287.347 99.8657 287.204 97.8453 285.991 96.7696C284.95 95.8468 284.949 95.8468 285.557 97.0017ZM89.0273 98.3934C88.6331 100.775 88.6914 107.751 89.1138 108.803C89.2956 109.255 89.4497 106.689 89.456 103.099C89.4628 99.5099 89.4366 96.573 89.3982 96.573C89.3598 96.573 89.193 97.3924 89.0273 98.3934ZM106.795 98.272C106.804 99.073 106.913 99.3419 107.037 98.8696C107.16 98.3973 107.152 97.7419 107.019 97.4133C106.886 97.0846 106.785 97.4711 106.795 98.272ZM389.364 98.59C390.325 99.4323 391.772 101.081 392.579 102.254C394.209 104.619 398.875 113.475 399.69 115.748C399.977 116.549 401.069 119.28 402.118 121.816C404.234 126.94 407.434 136.144 409.036 141.72C409.612 143.722 410.277 145.907 410.516 146.574C411.194 148.477 414.391 161.013 415.158 164.778C418.211 179.761 418.452 181.628 418.484 190.552C418.51 197.552 418.373 199.508 417.811 200.186C417.168 200.961 417.212 201.022 418.297 200.869C419.139 200.751 419.82 200.06 420.618 198.517C421.708 196.406 421.739 196.028 421.514 187.352C421.288 178.59 420.788 174.786 418.453 164.05C416.726 156.112 412.514 140.692 410.818 136.098C404.987 120.3 403.048 115.563 399.61 108.709C395.205 99.9245 392.625 97.0584 389.124 97.0584H387.617L389.364 98.59ZM394.942 97.6958C394.942 97.7793 395.653 98.4895 396.522 99.2735L398.102 100.699L396.674 99.1216C395.343 97.6512 394.942 97.3206 394.942 97.6958ZM85.9713 102.641C85.9699 105.044 86.052 106.088 86.1541 104.962C86.2557 103.835 86.2571 101.869 86.1565 100.592C86.0564 99.3163 85.9728 100.238 85.9713 102.641ZM197.596 101.67V104.34H222.629H247.662V101.67V99.0002H222.629H197.596V101.67ZM388.137 99.1522C388.137 99.2356 388.848 99.9459 389.717 100.73L391.297 102.156L389.869 100.578C388.538 99.1075 388.137 98.7769 388.137 99.1522ZM380.929 100.957C378.435 101.703 376.332 102.387 376.256 102.477C376.179 102.567 377.131 104.498 378.37 106.767C384.484 117.966 391.647 137.092 396.368 154.827C397.47 158.965 398.582 163.116 398.841 164.05C401.241 172.746 404.052 189.399 404.517 197.677C404.769 202.161 404.921 202.872 405.588 202.672C406.015 202.544 408.331 201.877 410.733 201.189C413.135 200.501 415.303 199.736 415.551 199.489C416.338 198.702 416.827 193.568 416.544 189.051C416.268 184.653 414.778 173.932 413.879 169.876C411.063 157.169 410.253 154.025 406.372 140.749C404.277 133.583 399.472 120.812 396.377 114.182C392.398 105.662 388.055 99.4031 386.216 99.5424C385.802 99.574 383.423 100.21 380.929 100.957ZM367.236 101.565C364.964 102.375 363.042 103.083 362.966 103.139C362.89 103.195 363.793 105.29 364.971 107.795C372.439 123.667 378.122 139.999 385.219 165.992C389.237 180.704 392.551 199.649 393.265 211.988C393.492 215.913 393.797 217.935 394.163 217.935C394.467 217.935 395.521 217.389 396.505 216.721C398.683 215.243 399.127 215.214 399.47 216.528C399.9 218.169 400.553 217.245 401.634 213.463C404.006 205.169 403.398 194.024 399.533 174.973C397.705 165.96 395.16 155.679 393.19 149.345C390.567 140.91 386.445 128.957 384.282 123.515C380.043 112.85 373.068 99.8036 371.727 100.033C371.529 100.066 369.508 100.756 367.236 101.565ZM105.866 102.692C105.567 103.998 105.398 105.144 105.493 105.238C105.763 105.508 106.777 101.415 106.583 100.836C106.488 100.55 106.165 101.385 105.866 102.692ZM398.824 102.52C399.406 103.387 401.404 107.156 403.263 110.894C405.122 114.632 406.499 117.144 406.324 116.476C405.593 113.69 398.801 100.942 398.048 100.942C397.891 100.942 398.24 101.652 398.824 102.52ZM357.271 104.614C350.119 106.484 348.862 106.753 347.243 106.76C345.562 106.767 345.452 106.87 344.934 108.924C343.905 113.005 344.208 114.851 346.578 118.955C347.781 121.038 348.765 122.84 348.765 122.959C348.765 123.078 349.608 125 350.64 127.229C351.671 129.459 352.911 132.375 353.397 133.71C353.882 135.045 354.43 136.355 354.614 136.622C355.053 137.26 360.053 152.11 361.397 156.768C361.975 158.771 362.646 160.955 362.889 161.623C363.133 162.29 363.649 164.147 364.036 165.749C364.424 167.351 365.209 170.519 365.78 172.788C368.646 184.166 370.628 196.246 370.959 204.342C371.368 214.329 370.376 217.364 366.889 216.799L365.253 216.533L366.758 218.43C370.217 222.792 374.488 225.741 379.145 226.984C381.403 227.587 384.249 227.861 384.249 227.477C384.249 227.386 383.811 226.04 383.276 224.488C382.742 222.936 382.304 221.154 382.304 220.529C382.304 219.424 382.424 219.391 386.49 219.391H390.675L390.423 212.474C390.074 202.898 389.208 196.842 385.931 181.041C384.723 175.218 380.94 160.035 379.684 155.967C379.284 154.672 378.048 150.664 376.936 147.06C372.771 133.558 367.831 120.338 363.539 111.202C362.364 108.703 361.398 106.518 361.392 106.348C361.387 106.178 361.004 105.576 360.542 105.009C359.75 104.038 359.563 104.015 357.271 104.614ZM197.596 108.709V111.136H221.414H245.231V108.709V106.282H221.414H197.596V108.709ZM246.689 108.709C246.689 110.044 246.908 111.136 247.176 111.136C247.443 111.136 247.662 110.044 247.662 108.709C247.662 107.374 247.443 106.282 247.176 106.282C246.908 106.282 246.689 107.374 246.689 108.709ZM62.2815 108.049L60.8807 108.807L62.9674 109.74L65.0541 110.673L66.191 109.607C66.8161 109.02 67.328 108.25 67.328 107.897C67.328 106.997 64.0435 107.096 62.2815 108.049ZM104.087 108C103.618 109.22 103.756 109.535 104.329 108.551C104.613 108.064 104.743 107.563 104.617 107.438C104.492 107.313 104.253 107.566 104.087 108ZM67.1797 109.969C65.8498 111.534 65.8367 111.605 66.6528 112.85C67.116 113.555 67.4898 115.055 67.4898 116.204C67.4898 120.054 64.4023 122.787 60.0524 122.787C57.6628 122.787 57.5666 123.354 59.7296 124.689C61.707 125.91 64.8174 126.008 66.9877 124.919C72.5635 122.121 73.976 113.055 69.4453 109.144C68.6019 108.415 68.4542 108.469 67.1797 109.969ZM102.548 111.169C102.372 111.453 102.332 111.791 102.459 111.918C102.587 112.045 102.821 111.812 102.979 111.4C103.308 110.545 103.028 110.394 102.548 111.169ZM337.315 111.339C336.57 111.883 336.655 111.933 337.997 111.736C339.704 111.486 339.844 111.361 338.848 110.979C338.473 110.835 337.783 110.998 337.315 111.339ZM57.2954 111.845C53.8856 114.231 55.0551 120.081 59.1449 121.094C62.5085 121.928 66.2124 117.705 64.8981 114.535C63.6318 111.483 59.768 110.115 57.2954 111.845ZM57.6259 113.469C55.9674 115.126 55.8313 115.912 56.8594 117.898C58.0663 120.229 60.8165 120.596 62.7321 118.683C64.9442 116.474 63.7927 112.922 60.6639 112.303C59.3534 112.043 58.8673 112.23 57.6259 113.469ZM15.5829 114.314C12.9323 117.171 9.52882 128.664 8.2587 139.05C8.09538 140.385 7.76047 142.569 7.51452 143.904C6.37176 150.104 5.1104 173.41 5.1104 188.323C5.1104 203.236 6.37176 226.541 7.51452 232.741C7.76047 234.076 8.09977 236.261 8.26843 237.596C10.1447 252.445 14.7235 264.437 18.1071 263.365C18.9572 263.095 18.8828 262.898 17.3021 261.218C14.2413 257.967 11.1236 247.282 9.48798 234.44C8.32043 225.275 8.06623 222.574 7.45183 212.817C6.30567 194.607 6.82383 164.334 8.52752 149.993C10.4378 133.908 12.1551 125.677 15.0278 118.841C15.9922 116.546 18.1056 114.058 19.1283 114.015C19.7694 113.988 19.7354 113.895 18.9635 113.564C17.3765 112.883 16.7908 113.013 15.5829 114.314ZM197.596 115.991V118.904H222.629H247.662V115.991V113.078H222.629H197.596V115.991ZM333.94 114.393C331.801 115.053 327.87 116.191 325.204 116.924C320.371 118.252 320.356 118.261 319.993 120.002C319.637 121.713 316.352 128.901 314.172 132.739C313.565 133.807 311.509 137.411 309.604 140.749C307.698 144.086 305.419 148.128 304.541 149.73C303.661 151.331 302.121 154.062 301.119 155.798C298.073 161.069 293.886 170.133 292.31 174.866C290.346 180.769 290.19 187.004 291.895 191.478C294.317 197.834 298.25 202.969 311.419 216.964C314.559 220.301 317.82 223.934 318.666 225.036L320.203 227.04L322.454 226.423C326.982 225.184 337.011 222.331 342.932 220.599C346.274 219.62 350.211 218.491 351.682 218.088C362.318 215.175 367.552 213.483 368.056 212.795C370.161 209.921 368.992 195.178 365.327 178.371C364.236 173.367 361.58 162.939 360.939 161.138C360.701 160.47 359.921 157.958 359.206 155.555C353.339 135.84 345.359 118.314 340.259 113.944C339.043 112.901 338.704 112.925 333.94 114.393ZM12.4438 115.76C8.35299 122.202 5.48518 137.043 3.58219 161.623C2.87787 170.718 2.87738 205.918 3.58121 215.022C5.43802 239.037 8.43176 254.571 12.4088 260.831C14.0872 263.474 14.9413 263.659 13.398 261.047C10.5486 256.224 8.11435 245.932 6.30129 231.042C4.61461 217.19 4.409 212.496 4.42164 188.08C4.43379 164.502 4.57184 161.092 6.09762 146.817C7.42947 134.357 10.5418 120.724 13.0966 116.159C14.7833 113.146 14.2938 112.847 12.4438 115.76ZM49.8293 118.702C47.8242 121.34 45.8337 123.851 45.406 124.283C42.8813 126.833 43.0053 132.391 45.6607 135.652C47.1442 137.473 47.0309 137.573 52.4633 129.641L56.5566 123.664L55.3258 121.405C54.6487 120.163 53.9556 117.967 53.7849 116.526L53.4748 113.906L49.8293 118.702ZM18.8196 115.297C16.9935 116.574 13.8607 123.815 13.1642 128.37C12.9882 129.52 13.4471 128.58 14.2894 126.064C16.5599 119.283 19.3558 115.386 21.39 116.165C22.3286 116.525 22.3189 116.256 21.3594 115.297C20.4091 114.349 20.1748 114.349 18.8196 115.297ZM18.6247 119.025C15.7836 122.813 13.5234 131.255 11.6384 145.118C8.37342 169.131 8.37342 207.514 11.6384 231.527C14.0634 249.36 17.463 259.198 21.2014 259.198C22.1454 259.198 22.106 259.064 20.6876 257.451C16.3275 252.491 13.1501 238.204 11.3594 215.508C10.588 205.729 10.588 170.916 11.3594 161.138C13.171 138.18 16.6726 122.71 20.9564 118.743L22.3563 117.447H21.0818C20.2113 117.447 19.4336 117.947 18.6247 119.025ZM406.821 118.661C407.018 119.195 407.948 121.707 408.888 124.243C411.78 132.044 414.73 141.297 416.809 149.085C419.794 160.271 420.136 161.445 420.179 160.643C420.214 159.982 418.231 151.855 416.806 146.817C414.065 137.132 407.845 119.026 406.966 118.175C406.624 117.844 406.578 117.998 406.821 118.661ZM21.0026 120.336C18.9504 122.772 16.1603 131.507 15.1031 138.807C14.9291 140.008 14.5821 141.974 14.3317 143.176C14.0814 144.377 13.4009 150.385 12.8195 156.526C11.9271 165.952 11.7618 170.905 11.7584 188.323C11.755 206.073 11.9057 210.479 12.8361 219.877C14.8455 240.17 17.655 252.536 21.1407 256.432C22.8881 258.385 23.9988 257.811 22.6728 255.64C21.234 253.286 18.9217 245.89 18.0167 240.751C16.312 231.067 15.4191 223.862 14.7687 214.537C14.0347 204.014 14.0367 172.822 14.7716 162.262C16.0539 143.845 18.8119 128.766 22.1006 122.193C23.8179 118.761 23.7834 118.904 22.8954 118.904C22.5182 118.904 21.6666 119.548 21.0026 120.336ZM25.5567 119.843C16.4345 128.954 12.4871 191.784 18.4337 233.227C19.7957 242.72 21.6802 250.035 23.8116 254.101C24.9909 256.35 25.6179 257.046 26.5672 257.16C28.9135 257.438 29.1094 256.218 27.22 253.084C26.2756 251.518 25.2791 249.358 25.0054 248.285C24.7318 247.212 24.3201 245.787 24.0906 245.12C22.7194 241.133 21.1421 231.504 20.1948 221.333C18.9577 208.049 18.7205 202.739 18.7205 188.323C18.7205 179.789 18.9456 170.017 19.2202 166.608C20.7615 147.497 21.8766 139.26 23.8384 132.496C24.1864 131.295 24.7036 129.433 24.9875 128.36C25.2708 127.287 26.2717 125.133 27.2117 123.575C28.9869 120.63 29.0112 120.213 27.4538 119.38C26.7261 118.991 26.3076 119.093 25.5567 119.843ZM45.4536 120.133C44.7857 120.499 42.7083 121.067 40.8369 121.395L37.4344 121.992L34.6876 125.424L31.9407 128.855L33.3713 129.009C35.0871 129.193 39.3471 127.867 41.1951 126.574C42.5425 125.631 47.1612 119.961 46.8419 119.642C46.7466 119.546 46.122 119.768 45.4536 120.133ZM197.596 123.273V125.7H221.414H245.231V123.273V120.845H221.414H197.596V123.273ZM246.689 123.273C246.689 124.608 246.908 125.7 247.176 125.7C247.443 125.7 247.662 124.608 247.662 123.273C247.662 121.938 247.443 120.845 247.176 120.845C246.908 120.845 246.689 121.938 246.689 123.273ZM100.627 122.909C100.47 123.776 100.405 141.804 100.483 162.97L100.624 201.454L93.5769 201.32L86.5303 201.187L86.6878 199.367C86.8414 197.594 86.8025 197.546 85.2174 197.546C83.8277 197.546 83.4515 197.813 82.648 199.367C80.6994 203.134 75.5446 210.579 71.6409 215.265C67.1642 220.638 56.9891 231.005 51.166 236.127C49.0938 237.948 47.3989 239.6 47.3989 239.796C47.3989 240.259 53.6673 245.605 54.2103 245.605C54.4382 245.605 54.7639 245.168 54.934 244.632C55.9232 241.519 60.0728 238.809 63.8511 238.809C66.9663 238.809 70.3621 241.021 72.0487 244.149C73.07 246.042 73.2012 246.825 73.0354 250.023C72.8429 253.73 71.88 255.966 69.7763 257.59C69.108 258.106 69.1143 258.234 69.8386 258.804C75.2568 263.066 86.6378 271.434 90.6595 274.112C99.4949 279.994 108.557 285.827 110.087 286.618L111.561 287.379V268.25V249.121L109.252 247.281C101.961 241.473 96.578 233.077 96.1294 226.814C95.9388 224.155 96.088 223.036 96.8623 221.313C97.3975 220.122 97.9798 218.674 98.1567 218.094C98.6102 216.607 102.099 213.587 103.743 213.259C104.57 213.094 106.411 211.685 108.344 209.74L111.566 206.497L111.442 164.794L111.318 123.091L106.943 122.23C100.976 121.055 100.961 121.056 100.627 122.909ZM28.5343 123.251C25.1897 127.77 22.5678 140.322 20.57 161.38C19.8487 168.984 19.8477 207.106 20.5681 215.022C22.2995 234.038 24.4022 245.06 27.4669 251.182L29.1711 254.586L33.5458 254.718L37.9204 254.85L33.5749 252.404C31.1854 251.059 28.8031 249.58 28.2811 249.117C26.8875 247.881 25.5484 244.662 25.5362 242.519C25.5105 238.025 30.3654 231.47 36.2148 228.101C38.1304 226.997 39.0462 226.183 38.9115 225.702C38.7993 225.302 38.4211 221.26 38.0711 216.721C36.8827 201.315 37.4713 155.976 38.9252 150.913C39.0661 150.423 38.4984 149.784 37.3167 149.103C34.5933 147.534 32.1293 145.182 30.2118 142.321C28.3243 139.505 27.6672 136.597 28.1664 133.272C28.4775 131.201 29.1283 130.278 35.6427 122.666C36.3252 121.869 36.1613 121.816 32.9834 121.816C29.7952 121.816 29.5347 121.9 28.5343 123.251ZM90.1735 124.243C91.6147 126.265 94.1568 126.273 96.5109 124.263L98.1937 122.826L93.6645 122.807L89.1352 122.787L90.1735 124.243ZM112.533 164.498V205.723L114.477 203.8L116.421 201.878V162.878V123.879L114.903 123.576C114.067 123.409 113.192 123.273 112.958 123.273C112.719 123.273 112.533 141.264 112.533 164.498ZM87.7431 124.972C87.7431 125.372 88.0979 125.7 88.5315 125.7C89.1775 125.7 89.211 125.568 88.7152 124.972C88.3823 124.571 88.0275 124.243 87.9269 124.243C87.8258 124.243 87.7431 124.571 87.7431 124.972ZM98.7021 124.693C98.1976 125.508 98.3925 197.556 98.9019 198.428C99.2174 198.968 99.3841 186.54 99.3943 161.744C99.4021 141.119 99.3126 124.243 99.1945 124.243C99.0764 124.243 98.8553 124.445 98.7021 124.693ZM117.88 162.316V200.459L118.855 199.485C119.816 198.525 119.828 197.986 119.705 161.505C119.588 126.704 119.53 124.49 118.73 124.336C117.926 124.181 117.88 126.25 117.88 162.316ZM55.0886 127.763C53.9298 129.432 51.9009 132.388 50.5798 134.333L48.1776 137.869L51.5553 140.864C53.4131 142.512 57.3508 146.218 60.3056 149.101C63.8379 152.547 66.0437 154.341 66.7461 154.341H67.814V140.004C67.814 125.978 67.7936 125.677 66.874 126.168C65.3098 127.004 61.4013 126.759 59.4239 125.7C58.426 125.166 57.5165 124.729 57.4028 124.729C57.2886 124.729 56.2474 126.095 55.0886 127.763ZM121.282 160.934V197.242L122.74 195.847L124.199 194.452V159.833C124.199 130.272 124.098 125.214 123.509 125.214C123.13 125.214 122.474 125.082 122.051 124.92C121.354 124.653 121.282 128.025 121.282 160.934ZM125.657 136.38C125.657 146.736 125.687 147.06 126.629 147.06C127.572 147.06 127.601 146.736 127.601 136.38C127.601 126.024 127.572 125.7 126.629 125.7C125.687 125.7 125.657 126.024 125.657 136.38ZM129.059 136.622C129.059 143.257 129.236 147.06 129.546 147.06C129.855 147.06 130.032 143.257 130.032 136.622C130.032 129.988 129.855 126.185 129.546 126.185C129.236 126.185 129.059 129.988 129.059 136.622ZM39.9211 128.46C38.3185 129.276 36.4029 129.755 34.0255 129.934C30.5972 130.193 30.4825 130.244 29.716 131.85C27.5675 136.349 30.2832 142.604 36.3898 147.224C37.3916 147.981 38.513 148.486 38.8824 148.344C39.786 147.998 44.4946 142.235 45.6578 140.052L46.5901 138.302L45.3243 136.977C43.6595 135.234 42.9139 133.341 42.5741 129.995L42.2951 127.251L39.9211 128.46ZM69.2703 142.084C69.2688 156.109 69.2105 157.106 68.3055 158.589L67.3421 160.167H60.6143H53.886L54.0829 161.504L54.2793 162.841L59.8322 162.665C62.8867 162.568 65.9276 162.625 66.5911 162.791C69.089 163.417 69.2723 164.646 69.2723 180.774C69.2723 195.28 69.2936 195.604 70.2444 195.604C71.2073 195.604 71.2166 195.281 71.2166 161.38C71.2166 127.48 71.2073 127.156 70.2444 127.156C69.2932 127.156 69.2722 127.48 69.2703 142.084ZM72.6748 161.38V195.604H84.5836H96.4924V161.38V127.156H84.5836H72.6748V161.38ZM197.596 130.312V132.982H222.629H247.662V130.312V127.642H222.629H197.596V130.312ZM12.1312 132.226C11.9485 133.2 11.9203 134.119 12.0686 134.268C12.2173 134.416 12.4885 133.74 12.6718 132.766C12.8546 131.792 12.8827 130.873 12.7345 130.725C12.5857 130.577 12.3145 131.252 12.1312 132.226ZM11.5242 136.137C11.5339 136.938 11.6428 137.207 11.7662 136.735C11.8897 136.262 11.8814 135.607 11.7482 135.278C11.6151 134.95 11.5144 135.336 11.5242 136.137ZM197.596 137.351V139.778H221.414H245.231V137.351V134.923H221.414H197.596V137.351ZM246.689 137.351C246.689 138.686 246.908 139.778 247.176 139.778C247.443 139.778 247.662 138.686 247.662 137.351C247.662 136.016 247.443 134.923 247.176 134.923C246.908 134.923 246.689 136.016 246.689 137.351ZM81.6672 135.987C77.5807 138.295 79.1065 145.118 83.7092 145.118C86.9654 145.118 88.9962 141.296 87.4592 138.061C86.3111 135.645 83.8404 134.76 81.6672 135.987ZM83.3684 137.322C83.3684 137.573 83.5872 137.914 83.8545 138.079C84.4908 138.471 84.4796 141.524 83.8375 142.723C83.1599 143.987 84.0339 143.968 85.3127 142.691C85.8528 142.151 86.2849 141.073 86.2849 140.263C86.2849 139.454 85.8528 138.375 85.3127 137.836C84.2808 136.805 83.3684 136.564 83.3684 137.322ZM81.168 138.929C80.9838 139.663 80.9838 140.864 81.168 141.598C81.4907 142.881 81.5296 142.896 82.1926 141.99C82.5723 141.473 82.8823 140.695 82.8823 140.263C82.8823 139.831 82.5723 139.054 82.1926 138.536C81.5296 137.63 81.4907 137.645 81.168 138.929ZM10.7688 140.109C10.1559 144.3 9.87685 147.288 10.1194 147.059C10.4786 146.72 11.5417 138.757 11.2646 138.481C11.1411 138.357 10.918 139.09 10.7688 140.109ZM46.6878 142.22C45.3914 144.401 44.5879 145.419 41.4994 148.8C40.5759 149.812 40.5807 149.816 45.6262 153.048C50.9701 156.47 52.3238 156.829 56.1482 155.836C57.0839 155.593 59.3763 155.244 61.2418 155.06L64.6346 154.726L59.2951 149.558C54.2433 144.668 48.7366 139.766 48.3186 139.788C48.2136 139.793 47.4801 140.887 46.6878 142.22ZM197.596 144.39V147.06H222.629H247.662V144.39V141.72H222.629H197.596V144.39ZM145.185 148.88C155.258 148.953 171.882 148.953 182.127 148.88C192.373 148.807 184.132 148.746 163.814 148.746C143.496 148.746 135.113 148.807 145.185 148.88ZM9.57986 150.7C9.58958 151.501 9.69846 151.77 9.82192 151.298C9.94538 150.826 9.93713 150.17 9.80394 149.842C9.67076 149.513 9.57014 149.899 9.57986 150.7ZM125.657 171.65C125.657 192.812 125.658 192.841 126.629 191.963C127.572 191.111 127.601 190.468 127.601 170.771C127.601 150.781 127.586 150.458 126.629 150.458C125.672 150.458 125.657 150.781 125.657 171.65ZM129.059 169.904C129.059 182.745 129.225 189.249 129.546 189.051C129.856 188.859 130.032 181.845 130.032 169.604C130.032 157.164 129.861 150.458 129.546 150.458C129.23 150.458 129.059 157.264 129.059 169.904ZM132.462 168.267V186.077L134.018 184.651C134.874 183.867 137.621 181.259 140.123 178.856C145.044 174.132 147.192 172.794 151.763 171.612C157.272 170.186 163.153 170.959 169.67 173.966C173.301 175.642 177.238 179.034 179.008 182.012C180.561 184.625 181.198 189.089 180.576 192.983C179.347 200.661 176.758 204.474 164.421 216.77C158.874 222.299 154.335 226.899 154.335 226.991C154.335 227.083 163.522 227.158 174.75 227.158H195.166V188.808V150.458H163.814H132.462V168.267ZM197.596 153.128V155.798H222.629H247.662V153.128V150.458H222.629H197.596V153.128ZM39.908 152.535C37.8495 162.724 37.9263 216.629 40.0101 224.41L40.3669 225.744L46.4355 221.718C49.7734 219.504 54.2049 216.413 56.2829 214.849C60.0422 212.02 60.0597 211.996 59.7063 210.237C59.5109 209.264 59.3417 199.659 59.3296 188.892L59.3077 169.316L55.1849 169.459L51.0614 169.601L50.6575 167.193C50.4349 165.868 49.8069 163.254 49.261 161.383C48.7157 159.513 48.2379 157.545 48.1985 157.011C48.1538 156.393 46.9799 155.284 44.9685 153.959C39.9945 150.681 40.2667 150.758 39.908 152.535ZM9.1215 156.526C9.12684 157.594 9.22647 157.973 9.34264 157.369C9.45881 156.766 9.45446 155.892 9.33294 155.428C9.21142 154.964 9.11615 155.458 9.1215 156.526ZM65.7633 156.788C65.5937 157.941 65.7147 158.233 66.3155 158.119C67.3255 157.928 67.6711 155.312 66.6863 155.312C66.2712 155.312 65.8906 155.92 65.7633 156.788ZM60.0368 156.3C59.1012 156.521 56.7524 156.851 54.8179 157.035C49.3374 157.552 51.1718 158.225 58.0644 158.225H64.2983L64.5306 157.011C64.7396 155.919 64.6108 155.802 63.2503 155.847C62.4186 155.875 60.9725 156.078 60.0368 156.3ZM197.596 160.409V163.079H221.414H245.231V160.409V157.739H221.414H197.596V160.409ZM246.689 160.409C246.689 161.878 246.908 163.079 247.176 163.079C247.443 163.079 247.662 161.878 247.662 160.409C247.662 158.941 247.443 157.739 247.176 157.739C246.908 157.739 246.689 158.941 246.689 160.409ZM8.64512 160.652C8.64512 161.854 8.73992 162.345 8.85609 161.744C8.97178 161.144 8.97178 160.16 8.85609 159.56C8.73992 158.959 8.64512 159.451 8.64512 160.652ZM49.9673 159.34C50.1214 159.741 50.5107 161.456 50.833 163.152C51.5553 166.954 51.9378 167.419 53.0043 165.793C54.2234 163.936 53.2104 160.432 51.147 159.366C49.8696 158.706 49.7223 158.703 49.9673 159.34ZM420.271 162.351C420.265 162.885 420.581 164.414 420.973 165.749L421.685 168.177L421.398 165.807C421.24 164.503 420.924 162.974 420.695 162.408C420.298 161.426 420.279 161.423 420.271 162.351ZM55.5854 164.9C55.1931 165.367 54.498 166.35 54.0406 167.084L53.2094 168.419H56.3801H59.5508V166.235C59.5508 164.081 59.5279 164.05 57.9249 164.05C56.9722 164.05 56.0034 164.402 55.5854 164.9ZM60.7052 165.567C60.8724 166.402 61.009 167.385 61.009 167.752C61.009 168.229 61.7012 168.419 63.4394 168.419H65.8697V166.235V164.05H63.1356H60.4014L60.7052 165.567ZM197.596 167.691V170.361H222.629H247.662V167.691V165.021H222.629H197.596V167.691ZM8.17753 170.118C8.17996 171.72 8.27085 172.317 8.37924 171.445C8.48715 170.572 8.48523 169.262 8.37441 168.532C8.2631 167.802 8.17462 168.516 8.17753 170.118ZM422.004 171.066C422.166 172.655 422.485 174.512 422.711 175.192C422.985 176.016 423.034 175.512 422.857 173.687C422.711 172.18 422.392 170.323 422.15 169.561C421.834 168.571 421.793 168.999 422.004 171.066ZM60.5657 187.959C60.589 198.171 60.7528 207.557 60.9303 208.817L61.252 211.108L65.8697 207.385C68.4095 205.337 71.7998 202.34 73.4039 200.725L76.3203 197.789L72.1887 197.546L68.0571 197.303L67.9278 184.001C67.779 168.742 67.9968 169.431 63.3178 169.406L60.5229 169.39L60.5657 187.959ZM197.596 174.73V177.157H221.414H245.231V174.73V172.303H221.414H197.596V174.73ZM246.689 174.73C246.689 176.065 246.908 177.157 247.176 177.157C247.443 177.157 247.662 176.065 247.662 174.73C247.662 173.395 247.443 172.303 247.176 172.303C246.908 172.303 246.689 173.395 246.689 174.73ZM415.396 173.071C415.419 173.637 415.534 173.752 415.689 173.365C415.83 173.014 415.812 172.596 415.651 172.434C415.49 172.273 415.375 172.56 415.396 173.071ZM150.447 173.676C147.227 174.872 145.593 175.886 143.193 178.176C141.474 179.815 141.279 180.152 142.22 179.849C142.868 179.641 145.08 179.365 147.135 179.235C160.081 178.418 171.943 190.88 170.716 204.008C170.561 205.667 170.295 207.458 170.125 207.989C169.458 210.078 174.747 203.584 176.383 200.305C178.905 195.252 179.858 190.751 179.124 187.352C177.704 180.775 172.482 176.025 163.982 173.579C160.359 172.537 153.379 172.587 150.447 173.676ZM423.257 178.371C423.262 179.439 423.362 179.819 423.478 179.215C423.594 178.611 423.59 177.737 423.468 177.273C423.347 176.809 423.252 177.303 423.257 178.371ZM82.0599 178.133C79.5066 179.16 78.534 183.427 80.3115 185.806C82.3944 188.591 85.7993 188.112 87.4174 184.806C88.5791 182.431 87.8627 179.939 85.6272 178.578C83.9376 177.549 83.6124 177.508 82.0599 178.133ZM197.596 181.769V184.439H222.629H247.662V181.769V179.099H222.629H197.596V181.769ZM83.8375 180.523C84.114 181.04 84.3406 182.038 84.3406 182.74C84.3406 183.442 84.114 184.44 83.8375 184.957C83.453 185.674 83.4924 185.895 84.0052 185.895C86.0438 185.895 87.0558 181.888 85.3959 180.388C84.1272 179.241 83.1939 179.322 83.8375 180.523ZM143.8 180.577C140.308 181.267 138.753 182.424 130.857 190.206L123.177 197.776L126.376 198.582C133.44 200.363 139.128 204.302 144.851 211.376C148.046 215.326 150.528 220.676 150.902 224.419L151.2 227.401L159.131 219.634C169.011 209.958 169.619 208.946 169.633 202.158C169.642 197.494 169.568 197.151 167.751 193.431C163.101 183.916 153.362 178.689 143.8 180.577ZM81.1466 181.734C80.8199 183.033 81.2613 184.924 81.8903 184.924C82.4745 184.924 82.8926 182.885 82.565 181.633C82.1936 180.214 81.5165 180.262 81.1466 181.734ZM423.826 188.165C423.847 192.484 424.012 195.651 424.194 195.204C424.646 194.09 424.623 184.646 424.163 182.254C423.928 181.037 423.802 183.241 423.826 188.165ZM417.396 185.653C417.406 186.454 417.515 186.723 417.638 186.25C417.762 185.778 417.754 185.123 417.621 184.794C417.487 184.465 417.387 184.852 417.396 185.653ZM197.596 188.808V191.235H221.414H245.231V188.808V186.381H221.414H197.596V188.808ZM246.689 188.808C246.689 190.143 246.908 191.235 247.176 191.235C247.443 191.235 247.662 190.143 247.662 188.808C247.662 187.473 247.443 186.381 247.176 186.381C246.908 186.381 246.689 187.473 246.689 188.808ZM197.596 195.847V198.517H222.629H247.662V195.847V193.177H222.629H197.596V195.847ZM417.34 197.344C417.363 197.909 417.479 198.024 417.634 197.637C417.774 197.287 417.757 196.868 417.595 196.707C417.434 196.546 417.319 196.832 417.34 197.344ZM74.1219 201.385C70.1584 205.38 69.1386 206.283 64.5316 209.881L61.4922 212.255L64.009 214.974C65.3934 216.469 66.6995 217.893 66.9124 218.139C67.1316 218.392 67.9419 217.868 68.7862 216.925C71.9632 213.379 78.9204 203.942 80.6561 200.823L82.4799 197.546L80.1293 197.623C77.8821 197.697 77.6172 197.862 74.1219 201.385ZM87.7431 198.06C87.7431 198.343 87.9618 198.439 88.2292 198.274C88.4965 198.109 88.7152 197.878 88.7152 197.76C88.7152 197.642 88.4965 197.546 88.2292 197.546C87.9618 197.546 87.7431 197.778 87.7431 198.06ZM89.7642 199.002L88.6861 200.459L93.6829 200.445L98.6798 200.43L97.0923 198.988C95.7954 197.81 95.0784 197.546 93.1735 197.546C91.1471 197.546 90.7013 197.736 89.7642 199.002ZM114.725 205.83C111.113 209.378 108.158 212.461 108.158 212.681C108.158 212.901 108.78 213.08 109.54 213.08C111.247 213.08 115.524 214.527 118.123 215.983C127.346 221.151 135.864 232.586 135.864 239.798C135.864 240.856 136.039 241.722 136.251 241.722C136.464 241.722 139.667 238.67 143.367 234.94L150.096 228.158L149.835 224.91C149.404 219.546 146.523 214.464 140.501 208.447C134.465 202.415 129.911 199.877 124.568 199.568L121.291 199.379L114.725 205.83ZM197.596 203.129V205.799H221.414H245.231V203.129V200.459H221.414H197.596V203.129ZM246.689 203.129C246.689 204.597 246.908 205.799 247.176 205.799C247.443 205.799 247.662 204.597 247.662 203.129C247.662 201.66 247.443 200.459 247.176 200.459C246.908 200.459 246.689 201.66 246.689 203.129ZM8.17753 206.527C8.17996 208.129 8.27085 208.726 8.37924 207.853C8.48715 206.981 8.48523 205.67 8.37441 204.94C8.2631 204.211 8.17462 204.925 8.17753 206.527ZM197.596 210.41V213.08H222.629H247.662V210.41V207.741H222.629H197.596V210.41ZM55.4191 216.817C52.7457 218.798 48.3181 221.858 45.58 223.617L40.6016 226.815L42.4983 228.871C43.5419 230.001 45.2271 232.208 46.244 233.775C47.2609 235.343 48.1499 236.711 48.2199 236.815C48.5485 237.307 63.6178 223.119 65.8236 220.241C66.3962 219.494 66.1988 219.069 64.1855 216.716C62.9265 215.245 61.533 213.855 61.0882 213.628C60.4821 213.319 59.0642 214.116 55.4191 216.817ZM8.64512 215.993C8.64512 217.195 8.73992 217.686 8.85609 217.085C8.97178 216.485 8.97178 215.501 8.85609 214.901C8.73992 214.3 8.64512 214.792 8.64512 215.993ZM103.419 215.228C102.55 215.623 101.84 216.012 101.842 216.091C101.843 216.171 103.538 216.246 105.609 216.257C108.957 216.276 109.776 216.479 113.019 218.09C120.267 221.691 126.845 228.296 130.581 235.725C132.494 239.526 132.662 240.165 132.683 243.701C132.695 245.815 132.771 247.545 132.851 247.546C133.349 247.55 134.406 243.842 134.403 242.101C134.389 231.042 119.567 215.521 108.271 214.737C105.997 214.579 104.517 214.729 103.419 215.228ZM367.722 215.108C366.922 215.444 366.73 215.702 367.162 215.862C367.523 215.996 368.171 215.753 368.603 215.321C369.501 214.425 369.405 214.402 367.722 215.108ZM197.596 217.449V219.877H221.414H245.231V217.449V215.022H221.414H197.596V217.449ZM246.689 217.449C246.689 218.784 246.908 219.877 247.176 219.877C247.443 219.877 247.662 218.784 247.662 217.449C247.662 216.114 247.443 215.022 247.176 215.022C246.908 215.022 246.689 216.114 246.689 217.449ZM106.609 217.296C106.96 217.436 107.379 217.418 107.54 217.257C107.702 217.096 107.415 216.981 106.903 217.002C106.336 217.026 106.221 217.141 106.609 217.296ZM396.465 218.721C394.994 219.75 391.027 220.854 387.37 221.253L384.415 221.576L385.74 225.702C386.469 227.972 387.758 232.067 388.604 234.804C389.451 237.541 390.293 239.772 390.477 239.763C390.66 239.753 393.654 238.908 397.13 237.885C402.272 236.37 403.42 235.87 403.297 235.195C403.214 234.739 402.483 232.253 401.673 229.67C400.863 227.087 399.787 223.569 399.282 221.852C398.162 218.046 397.879 217.732 396.465 218.721ZM9.1215 220.119C9.12684 221.187 9.22647 221.567 9.34264 220.963C9.45881 220.359 9.45446 219.485 9.33294 219.021C9.21142 218.557 9.11615 219.051 9.1215 220.119ZM111.561 220.085C111.561 220.219 111.998 220.562 112.533 220.848C113.068 221.134 113.505 221.258 113.505 221.124C113.505 220.991 113.068 220.648 112.533 220.362C111.998 220.076 111.561 219.952 111.561 220.085ZM101.54 221.546C101.02 222.9 102.371 227.442 104.364 231.042C108.857 239.157 120.405 248.033 126.473 248.033C127.653 248.033 128.046 247.152 126.994 246.866C119.935 244.946 115.316 242.138 110.394 236.775C106.628 232.672 103.378 226.769 102.964 223.279C102.682 220.897 102.074 220.157 101.54 221.546ZM103.784 221.977C103.784 225.269 106.99 231.333 111.339 236.267C115.423 240.899 123.163 245.564 126.817 245.594C128.211 245.605 128.218 245.592 127.905 243.3C126.72 234.604 114.518 222.185 106.015 221.021C103.858 220.726 103.784 220.758 103.784 221.977ZM114.963 221.999C114.963 222.103 115.729 222.772 116.665 223.485C117.6 224.197 118.363 224.605 118.36 224.392C118.357 224.178 117.591 223.509 116.659 222.906C115.726 222.303 114.963 221.895 114.963 221.999ZM197.596 224.488V227.158H222.629H247.662V224.488V221.818H222.629H197.596V224.488ZM9.57986 225.945C9.58958 226.746 9.69846 227.015 9.82192 226.542C9.94538 226.07 9.93713 225.415 9.80394 225.086C9.67076 224.757 9.57014 225.144 9.57986 225.945ZM121.039 227.158C122.356 228.493 123.543 229.586 123.676 229.586C123.81 229.586 122.842 228.493 121.525 227.158C120.209 225.823 119.022 224.731 118.888 224.731C118.755 224.731 119.722 225.823 121.039 227.158ZM120.796 224.883C120.796 224.967 121.507 225.677 122.376 226.461L123.956 227.887L122.528 226.309C121.197 224.838 120.796 224.508 120.796 224.883ZM38.7249 227.796C38.3083 228.297 38.5796 228.824 39.9138 230.108C40.8646 231.022 42.6903 233.33 43.9716 235.236C45.579 237.628 46.4924 238.583 46.9196 238.319C47.6691 237.857 46.4627 235.702 42.9533 231.236C39.9148 227.37 39.4161 226.964 38.7249 227.796ZM34.761 230.255C31.686 232.564 29.1934 235.3 27.9297 237.753C26.5327 240.464 26.4316 244.291 27.7012 246.43C29.2639 249.065 30.729 249.806 34.8975 250.073C38.3676 250.296 38.6471 250.245 38.391 249.44C37.5996 246.951 40.7377 241.743 43.9725 240.179L45.4011 239.487L43.5691 236.6C42.5615 235.011 40.6595 232.564 39.3427 231.162L36.9483 228.612L34.761 230.255ZM98.9612 229.383C98.9845 229.949 99.0997 230.064 99.2548 229.677C99.3953 229.326 99.3778 228.907 99.2164 228.746C99.055 228.585 98.9403 228.872 98.9612 229.383ZM163.935 228.978C170.686 229.055 181.732 229.055 188.482 228.978C195.233 228.902 189.709 228.84 176.209 228.84C162.708 228.84 157.185 228.902 163.935 228.978ZM379.388 229.085C379.388 229.265 379.741 230.447 380.172 231.71C380.927 233.925 381.011 233.996 382.481 233.687C383.319 233.511 384.141 233.226 384.307 233.054C384.841 232.501 385.192 230.323 384.836 229.771C384.461 229.188 379.388 228.55 379.388 229.085ZM101.839 229.412C101.839 229.673 102.18 230.309 102.595 230.828C103.308 231.716 103.318 231.701 102.773 230.557C102.064 229.071 101.839 228.795 101.839 229.412ZM10.3279 232.741C10.484 234.61 10.7853 236.685 10.9977 237.353C11.4765 238.856 10.9686 233.094 10.4295 230.906C10.1957 229.956 10.1559 230.677 10.3279 232.741ZM124.199 230.74C124.199 230.841 124.581 231.223 125.049 231.59C125.82 232.193 125.837 232.176 125.233 231.406C124.598 230.597 124.199 230.341 124.199 230.74ZM143.034 237.641C139.091 241.524 135.864 244.997 135.864 245.359C135.864 245.72 135.099 247.018 134.163 248.242L132.462 250.468V268.911C132.462 279.055 132.626 287.353 132.827 287.352C133.027 287.352 133.621 286.71 134.147 285.926C135.705 283.603 138.011 282.919 140.487 284.046C141.714 284.604 142.074 284.3 152.544 273.852C158.479 267.928 163.551 263.082 163.815 263.082C164.079 263.082 171.241 270.016 179.73 278.492L195.166 293.902V262.229V230.557L172.685 230.568L150.204 230.58L143.034 237.641ZM197.596 233.227V235.896H222.629H247.662V233.227V230.557H222.629H197.596V233.227ZM126.391 233.652C126.851 234.353 127.319 234.926 127.431 234.926C127.783 234.926 126.651 233.055 126.09 232.709C125.796 232.527 125.932 232.952 126.391 233.652ZM100.867 233.955C101.153 234.489 101.497 234.926 101.63 234.926C101.764 234.926 101.639 234.489 101.353 233.955C101.067 233.421 100.724 232.984 100.59 232.984C100.456 232.984 100.581 233.421 100.867 233.955ZM105.162 234.926C106.692 237.259 109.903 240.768 112.29 242.716C113.092 243.371 112.105 242.159 110.096 240.023C108.087 237.887 105.832 235.375 105.086 234.44C103.743 232.759 103.744 232.763 105.162 234.926ZM260.739 234.163C260.624 234.278 260.61 235.37 260.707 236.59L260.883 238.809H265.4C269.071 238.809 269.972 238.953 270.212 239.577C270.374 239.999 270.507 245.443 270.507 251.674C270.507 257.904 270.374 263.348 270.212 263.77C269.972 264.395 269.066 264.538 265.351 264.538C262.658 264.538 260.769 264.737 260.745 265.023C260.723 265.29 260.686 266.328 260.664 267.329L260.623 269.15L277.96 269.277L295.297 269.405V251.68V233.955H278.122C268.676 233.955 260.854 234.048 260.739 234.163ZM382.426 234.819C381.255 235.005 380.882 236.382 382.002 236.382C382.654 236.382 384.09 235.03 383.71 234.773C383.605 234.702 383.027 234.723 382.426 234.819ZM102.621 236.779C103.127 237.664 103.964 238.756 104.481 239.206C105.028 239.681 104.836 239.211 104.022 238.081C102.074 235.379 101.535 234.878 102.621 236.779ZM127.875 236.039C128.058 236.517 128.33 236.787 128.48 236.637C128.629 236.488 128.48 236.096 128.148 235.767C127.667 235.291 127.612 235.347 127.875 236.039ZM262.244 236.139C262.244 236.729 263.019 236.867 266.3 236.867C272.303 236.867 271.965 235.977 271.965 251.806C271.965 267.369 272.326 266.48 266.024 266.48C262.988 266.48 262.244 266.623 262.244 267.208C262.244 267.813 263.189 267.936 267.834 267.936H273.424V251.674V235.411H267.834C263.189 235.411 262.244 235.534 262.244 236.139ZM274.882 251.674V267.936H284.36H293.839V251.674V235.411H284.36H274.882V251.674ZM384.834 236.404C384.514 236.915 383.705 237.471 383.035 237.638C381.514 238.02 381.514 238.34 383.033 239.977C384.243 241.281 384.489 242.216 384.291 244.756C384.234 245.49 384.284 246.091 384.402 246.091C384.663 246.091 388.623 240.894 388.623 240.551C388.623 240.418 388.076 239.764 387.408 239.096C386.74 238.429 386.193 237.448 386.193 236.918C386.193 235.56 385.521 235.305 384.834 236.404ZM197.596 240.508V243.178H221.414H245.231V240.508V237.838H221.414H197.596V240.508ZM246.689 240.508C246.689 241.977 246.908 243.178 247.176 243.178C247.443 243.178 247.662 241.977 247.662 240.508C247.662 239.04 247.443 237.838 247.176 237.838C246.908 237.838 246.689 239.04 246.689 240.508ZM395.51 240.02C392.481 240.91 389.952 241.712 389.889 241.801C389.827 241.891 388.915 243.04 387.863 244.355C386.373 246.217 386.165 246.683 386.922 246.461C387.457 246.305 390.33 245.472 393.308 244.611C398.584 243.086 398.767 242.985 400.487 240.685C401.458 239.386 401.975 238.341 401.635 238.363C401.296 238.383 398.54 239.13 395.51 240.02ZM11.5062 240.266C11.5062 240.933 11.6165 241.206 11.7511 240.872C11.8863 240.539 11.8863 239.993 11.7511 239.659C11.6165 239.325 11.5062 239.598 11.5062 240.266ZM61.1801 240.116C60.6055 240.228 59.2931 241.072 58.2636 241.99C56.5104 243.555 56.4783 243.63 57.7596 243.177C60.9516 242.048 64.5359 243.052 66.3398 245.583C67.7047 247.497 67.8359 251.176 66.6061 253.05C65.79 254.294 65.8031 254.352 67.2176 255.764L68.6627 257.208L69.6397 256.14C73.3076 252.13 73.0044 245.943 68.9524 242.117C66.7515 240.039 64.5189 239.464 61.1801 240.116ZM43.4267 241.847C40.7713 243.843 38.7847 247.576 39.4243 249.369C39.9571 250.862 38.5927 249.89 59.0647 263.364C68.288 269.434 80.085 277.201 85.2806 280.623L94.7275 286.844L96.4939 283.585L98.2603 280.325L96.0399 278.925C88.5014 274.17 80.3766 268.394 73.2007 262.689L68.6234 259.05L65.5694 259.149C62.1425 259.26 60.5876 258.646 57.2079 255.849C54.5316 253.635 53.7183 252.074 53.7159 249.149C53.7144 246.899 53.6182 246.741 50.921 244.559C49.385 243.317 47.6025 241.842 46.96 241.283C46.3174 240.723 45.7331 240.266 45.6612 240.266C45.5892 240.266 44.5835 240.977 43.4267 241.847ZM105.728 240.573C105.728 240.838 106.384 241.683 107.186 242.45C107.988 243.218 108.644 243.734 108.644 243.599C108.644 243.464 107.988 242.619 107.186 241.722C106.384 240.825 105.728 240.308 105.728 240.573ZM11.9558 242.693C11.9436 243.093 12.2528 244.513 12.6421 245.848L13.3498 248.275L13.0568 246.091C12.7428 243.751 11.9927 241.436 11.9558 242.693ZM109.141 244.005C109.151 244.386 113.019 247.306 113.019 246.932C113.019 246.826 112.144 246.037 111.075 245.178C110.005 244.32 109.135 243.792 109.141 244.005ZM114.202 244.096C114.548 244.656 116.421 245.787 116.421 245.436C116.421 245.323 115.848 244.856 115.146 244.397C114.445 243.938 114.02 243.803 114.202 244.096ZM57.9773 244.909C56.5177 245.7 55.1761 247.893 55.1761 249.489C55.1761 250.913 56.4642 253.247 57.5797 253.843C60.1943 255.241 63.6902 253.857 64.8981 250.945C65.7638 248.857 64.4859 246.052 62.1654 244.947C60.1428 243.984 59.6922 243.98 57.9773 244.909ZM197.596 247.547V249.974H222.629H247.662V247.547V245.12H222.629H197.596V247.547ZM57.7363 246.56C56.3242 247.873 55.9567 249.312 56.6231 250.918C57.6735 253.45 60.8116 254.099 62.7321 252.181C66.105 248.812 61.2209 243.317 57.7363 246.56ZM116.908 245.814C116.908 245.948 117.345 246.29 117.88 246.576C118.414 246.862 118.852 246.987 118.852 246.853C118.852 246.72 118.414 246.377 117.88 246.091C117.345 245.805 116.908 245.681 116.908 245.814ZM113.505 247.271C113.505 247.404 113.943 247.747 114.477 248.033C115.012 248.319 115.449 248.443 115.449 248.309C115.449 248.176 115.012 247.833 114.477 247.547C113.943 247.261 113.505 247.137 113.505 247.271ZM119.824 247.547C120.225 247.806 120.772 248.018 121.039 248.018C121.307 248.018 121.197 247.806 120.796 247.547C120.395 247.288 119.848 247.077 119.581 247.077C119.314 247.077 119.423 247.288 119.824 247.547ZM281.236 248.341C278.925 251.275 280.275 255.792 283.686 256.54C286.659 257.192 289.638 253.226 288.472 250.167C287.572 247.8 286.584 247.062 284.32 247.062C282.656 247.062 282.044 247.316 281.236 248.341ZM13.5642 250.096C14.0425 252.514 16.2332 257.998 17.4343 259.784C18.6821 261.64 20.6298 262.119 21.6787 260.829C22.0569 260.363 22.1109 260.135 21.7993 260.322C19.8375 261.497 16.4831 257.431 14.7643 251.795C13.7188 248.366 13.0291 247.39 13.5642 250.096ZM285.648 249.905C286.041 251.079 286.047 252.008 285.672 253.229C285.163 254.886 285.172 254.905 286.093 254.073C287.306 252.976 287.295 250.878 286.069 249.422L285.103 248.275L285.648 249.905ZM117.75 249.549C118.08 249.881 118.472 250.03 118.621 249.881C118.771 249.731 118.501 249.46 118.022 249.277C117.329 249.014 117.274 249.07 117.75 249.549ZM282.19 249.942C281.488 251.254 281.563 252.539 282.407 253.644C283.03 254.459 283.192 254.488 283.615 253.858C284.479 252.567 284.109 249.004 283.11 249.004C282.881 249.004 282.467 249.426 282.19 249.942ZM112.533 268.907V287.839H114.477H116.421V269.725V251.61L114.704 250.792C113.759 250.342 112.884 249.974 112.759 249.974C112.635 249.974 112.533 258.494 112.533 268.907ZM36.2192 252.731C37.9569 253.707 40.3085 254.653 41.4445 254.833C42.5804 255.013 43.5103 255.108 43.5103 255.043C43.5103 254.889 40.3401 252.874 38.4371 251.818C37.6186 251.364 36.0734 250.984 35.004 250.974L33.0597 250.956L36.2192 252.731ZM129.059 271.848C129.059 285.013 129.225 291.678 129.546 291.48C129.857 291.288 130.032 284.113 130.032 271.548C130.032 258.784 129.861 251.916 129.546 251.916C129.23 251.916 129.059 258.884 129.059 271.848ZM197.596 254.586V257.256H221.414H245.231V254.586V251.916H221.414H197.596V254.586ZM246.689 254.586C246.689 256.055 246.908 257.256 247.176 257.256C247.443 257.256 247.662 256.055 247.662 254.586C247.662 253.118 247.443 251.916 247.176 251.916C246.908 251.916 246.689 253.118 246.689 254.586ZM117.962 275.177C118.051 287.704 118.272 298.103 118.455 298.285C119.676 299.503 119.824 297.036 119.824 275.484C119.824 255.421 119.741 252.959 119.055 252.696C118.632 252.534 118.177 252.402 118.044 252.402C117.911 252.402 117.874 262.651 117.962 275.177ZM126.508 252.736C125.715 252.943 125.657 254.324 125.657 273.069C125.657 292.856 125.672 293.179 126.629 293.179C127.586 293.179 127.601 292.856 127.601 272.791C127.601 261.577 127.547 252.427 127.48 252.458C127.413 252.489 126.976 252.614 126.508 252.736ZM121.282 275.23V297.088L122.74 296.335L124.199 295.582V274.477V253.373H122.74H121.282V275.23ZM63.1963 255.8C62.6616 256.029 61.568 256.25 60.766 256.291L59.3077 256.364L61.252 257.283C63.2056 258.206 67.328 258.575 67.328 257.826C67.328 257.273 65.1814 255.307 64.6234 255.348C64.3731 255.367 63.731 255.57 63.1963 255.8ZM249.12 259.198C249.12 260.533 249.339 261.625 249.606 261.625C249.873 261.625 250.092 260.533 250.092 259.198C250.092 257.863 249.873 256.771 249.606 256.771C249.339 256.771 249.12 257.863 249.12 259.198ZM197.596 261.868V264.538H206.345H215.095V262.596V260.654H225.059H235.024V262.596V264.538H241.343H247.662V261.868V259.198H222.629H197.596V261.868ZM52.1508 262.631C51.9437 264.04 52.159 264.27 56.051 266.803C59.7991 269.243 60.2741 269.43 61.3186 268.871C61.9505 268.534 62.4672 268.102 62.4672 267.911C62.4672 267.593 53.0359 261.14 52.5717 261.14C52.4609 261.14 52.2713 261.811 52.1508 262.631ZM216.553 270.606C216.553 275.946 216.733 279.101 217.039 279.101C217.345 279.101 217.525 275.946 217.525 270.606C217.525 265.266 217.345 262.111 217.039 262.111C216.733 262.111 216.553 265.266 216.553 270.606ZM219.184 270.606C219.184 275.412 219.257 277.312 219.346 274.829C219.434 272.346 219.434 268.414 219.345 266.091C219.256 263.768 219.183 265.8 219.184 270.606ZM221.414 262.902C221.414 263.547 221.752 263.638 223.236 263.393C224.239 263.228 225.88 263.09 226.882 263.087C227.885 263.084 228.705 262.863 228.705 262.596C228.705 262.316 227.165 262.111 225.059 262.111C222.013 262.111 221.414 262.241 221.414 262.902ZM230.364 270.606C230.364 275.412 230.437 277.312 230.526 274.829C230.614 272.346 230.614 268.414 230.525 266.091C230.436 263.768 230.363 265.8 230.364 270.606ZM232.794 270.606C232.795 275.412 232.867 277.312 232.956 274.829C233.044 272.346 233.044 268.414 232.955 266.091C232.866 263.768 232.794 265.8 232.794 270.606ZM249.12 270.606C249.12 275.622 249.302 278.616 249.606 278.616C249.91 278.616 250.092 275.622 250.092 270.606C250.092 265.59 249.91 262.596 249.606 262.596C249.302 262.596 249.12 265.59 249.12 270.606ZM49.2217 267.858C48.2194 269.412 47.3989 270.803 47.3989 270.948C47.3989 271.357 54.917 276.189 55.5538 276.189C56.0282 276.189 59.5508 271.275 59.5508 270.613C59.5508 270.395 51.5262 265.019 51.2126 265.028C51.1203 265.03 50.2244 266.303 49.2217 267.858ZM154.147 274.611L144.535 284.199L147.466 284.569C153.316 285.309 157.738 288.36 157.738 291.655C157.738 292.585 157.376 293.745 156.933 294.233C156.155 295.092 156.75 295.121 175.037 295.121H193.945L178.882 280.072C170.598 271.795 163.806 265.023 163.789 265.023C163.772 265.023 159.433 269.338 154.147 274.611ZM221.414 270.901C221.414 276.061 221.507 276.742 222.183 276.483C222.605 276.321 224.246 276.189 225.828 276.189H228.705V270.606V265.023H225.059H221.414V270.901ZM197.596 268.907V271.334H206.345H215.095V268.907V266.48H206.345H197.596V268.907ZM235.024 268.907V271.334H240.127H245.231V268.907V266.48H240.127H235.024V268.907ZM246.689 268.907C246.689 270.242 246.908 271.334 247.176 271.334C247.443 271.334 247.662 270.242 247.662 268.907C247.662 267.572 247.443 266.48 247.176 266.48C246.908 266.48 246.689 267.572 246.689 268.907ZM197.596 276.189V278.616H206.345H215.095V276.189V273.761H206.345H197.596V276.189ZM235.024 276.189V278.616H241.343H247.662V276.189V273.761H241.343H235.024V276.189ZM221.414 278.616C221.414 278.896 222.953 279.101 225.059 279.101C227.165 279.101 228.705 278.896 228.705 278.616C228.705 278.335 227.165 278.13 225.059 278.13C222.953 278.13 221.414 278.335 221.414 278.616ZM249.12 282.285C249.12 283.961 249.304 284.87 249.606 284.684C249.873 284.519 250.092 283.305 250.092 281.985C250.092 280.666 249.873 279.587 249.606 279.587C249.339 279.587 249.12 280.801 249.12 282.285ZM197.596 283.285V285.898H221.414H245.231V283.349V280.8L221.414 280.736L197.596 280.673V283.285ZM246.689 283.228C246.689 284.696 246.908 285.898 247.176 285.898C247.443 285.898 247.662 284.696 247.662 283.228C247.662 281.759 247.443 280.558 247.176 280.558C246.908 280.558 246.689 281.759 246.689 283.228ZM97.4388 284.006C96.6154 285.636 96.054 287.263 96.1915 287.621C96.5323 288.507 103.838 291.981 107.429 292.963C113.074 294.508 112.725 294.548 112.371 292.401C112.198 291.36 112.055 290.148 112.052 289.706C112.049 289.237 110.884 288.249 109.252 287.33C107.715 286.465 104.881 284.697 102.955 283.4C101.029 282.104 99.3365 281.043 99.195 281.043C99.0531 281.043 98.2627 282.377 97.4388 284.006ZM135.814 286.747C133.982 288.703 133.17 289.694 124.825 300.162L119.376 306.998L122.352 308.347C126.49 310.222 131.325 314.29 133.319 317.573C133.765 318.308 134.3 318.908 134.509 318.908C134.718 318.908 137.45 315.686 140.58 311.748C143.71 307.81 146.397 304.478 146.551 304.345C147.8 303.264 156.28 292.089 156.28 291.525C156.28 290.388 154.2 288.435 151.858 287.374C150.247 286.644 148.636 286.398 145.343 286.378C142.283 286.36 140.685 286.138 140.025 285.639C138.565 284.537 137.663 284.774 135.814 286.747ZM249.12 289.781C249.12 291.723 249.328 293.179 249.606 293.179C249.883 293.179 250.092 291.723 250.092 289.781C250.092 287.839 249.883 286.383 249.606 286.383C249.328 286.383 249.12 287.839 249.12 289.781ZM197.596 290.509V293.179H222.629H247.662V290.509V287.839H222.629H197.596V290.509ZM113.019 289.486C113.019 290.229 114.04 290.752 115.489 290.752C116.097 290.752 116.421 290.415 116.421 289.781C116.421 288.995 116.097 288.81 114.72 288.81C113.59 288.81 113.019 289.037 113.019 289.486ZM113.505 292.978C113.505 293.921 113.751 294.636 114.074 294.636C114.387 294.636 115.059 295.01 115.566 295.469C116.459 296.276 116.483 296.236 116.333 294.166C116.198 292.302 116.008 291.985 114.842 291.676C113.575 291.34 113.505 291.408 113.505 292.978ZM197.717 294.983C198.453 295.094 199.655 295.094 200.391 294.983C201.126 294.872 200.525 294.781 199.054 294.781C197.584 294.781 196.982 294.872 197.717 294.983ZM204.269 294.986C205.132 295.093 206.663 295.095 207.671 294.99C208.679 294.885 207.974 294.797 206.102 294.795C204.231 294.793 203.406 294.879 204.269 294.986ZM216.188 294.998C219.597 295.082 225.174 295.082 228.583 294.998C231.992 294.915 229.203 294.847 222.386 294.847C215.569 294.847 212.779 294.915 216.188 294.998ZM236.836 294.986C237.699 295.093 239.23 295.095 240.238 294.99C241.246 294.885 240.541 294.797 238.669 294.795C236.798 294.793 235.973 294.879 236.836 294.986ZM244.874 294.984C245.612 295.095 246.706 295.092 247.304 294.977C247.902 294.862 247.297 294.771 245.96 294.774C244.624 294.778 244.135 294.873 244.874 294.984ZM251.429 294.987C252.297 295.094 253.72 295.094 254.588 294.987C255.457 294.879 254.746 294.791 253.008 294.791C251.271 294.791 250.56 294.879 251.429 294.987ZM154.242 297.427C153.84 297.894 153.355 298.55 153.165 298.883C152.89 299.367 161.326 299.49 194.651 299.49H236.482V298.034V296.577H195.727C157.515 296.577 154.926 296.63 154.242 297.427ZM150.765 301.834C150.323 302.323 149.961 302.978 149.961 303.291C149.961 303.72 159.854 303.859 190.535 303.859H231.11L231.864 302.403L232.618 300.946H192.094C153.452 300.946 151.532 300.988 150.765 301.834ZM148.016 307.985V309.199H190.791H233.565V307.985V306.772H190.791H148.016V307.985ZM144.667 309.296C142.849 311.361 142.871 311.895 144.745 311.184C145.567 310.871 146.094 310.203 146.317 309.193C146.5 308.357 146.575 307.618 146.483 307.55C146.39 307.481 145.573 308.267 144.667 309.296ZM115.902 309.614L114.788 310.515L116.699 310.868C120.974 311.658 129.279 318.14 131.277 322.245C132.171 324.083 132.247 324.13 132.768 323.158C133.538 321.723 132.858 319.733 130.698 317.1C127.597 313.321 120.562 308.714 117.893 308.714C117.41 308.714 116.514 309.119 115.902 309.614ZM147.773 310.655C147.574 310.978 162.036 311.141 190.791 311.141C219.546 311.141 234.008 310.978 233.809 310.655C233.612 310.338 218.745 310.17 190.791 310.17C162.837 310.17 147.97 310.338 147.773 310.655ZM116.769 313.77C121.681 316.065 127.232 320.733 128.941 324.005C129.36 324.806 129.792 325.196 129.902 324.872C130.217 323.94 127.37 320.169 124.57 317.808C121.362 315.105 118.138 313.265 115.935 312.882C114.417 312.617 114.507 312.713 116.769 313.77ZM143.52 313.414C139.92 314.369 147.136 314.539 191.131 314.539C229.9 314.539 239.471 314.418 238.985 313.932C238.509 313.456 228.255 313.311 191.374 313.257C165.522 313.219 143.988 313.289 143.52 313.414ZM114.02 315.921C113.932 317.928 120.072 323.83 123.893 325.411C127.157 326.761 127.401 326.255 124.247 324.68C121.412 323.266 115.968 318.489 114.627 316.238C114.282 315.66 114.037 315.532 114.02 315.921ZM142.183 316.238C142.183 316.88 147.908 316.966 190.791 316.966C233.673 316.966 239.398 316.88 239.398 316.238C239.398 315.596 233.673 315.51 190.791 315.51C147.908 315.51 142.183 315.596 142.183 316.238ZM116.908 317.604C116.908 317.687 117.619 318.397 118.487 319.181L120.067 320.607L118.639 319.029C117.309 317.559 116.908 317.228 116.908 317.604Z" stroke="#F2F5F7" stroke-opacity="0.4"/>
</svg>
