<svg width="525" height="329" viewBox="0 0 525 329" fill="none" xmlns="http://www.w3.org/2000/svg">
<path fill-rule="evenodd" clip-rule="evenodd" d="M185.951 32.7136C184.868 33.4711 181.685 37.3772 178.99 41.2557C173.704 48.8655 167.165 62.1075 167.165 65.2035C167.165 65.9061 167.669 66.9148 168.389 67.6509C169.062 68.3401 170.019 69.446 170.516 70.1089C171.239 71.0734 171.818 71.3299 173.408 71.392C174.936 71.4513 176.321 72.0237 179.4 73.8683C183.813 76.5129 190.105 80.2116 192.524 81.5839C196.334 83.7453 203.646 89.9641 203.646 91.0432C203.646 91.1806 203.026 91.2926 202.267 91.2926C199.198 91.2926 195.679 94.1986 193.836 98.2569C193.062 99.9601 192.91 101.005 193.036 103.766C193.188 107.117 193.227 107.214 195.383 109.746C197.829 112.616 198.977 113.345 201.788 113.813C202.847 113.99 204.47 114.566 205.397 115.093L207.08 116.052L206.479 118.06C206.148 119.163 205.746 121.723 205.586 123.747C205.425 125.771 205.123 127.428 204.915 127.428C204.707 127.428 204.536 128.548 204.536 129.918V132.408L203.037 131.479C201.133 130.298 197.224 130.179 196.609 131.282C196.292 131.849 195.112 132.098 191.359 132.39C187.167 132.717 184.405 133.099 180.188 133.935C178.507 134.268 178.347 132.188 179.836 129.337C180.52 128.027 181.002 126.89 180.907 126.809C180.622 126.567 165.37 118.059 165.221 118.059C165.145 118.059 163.3 117.056 161.119 115.83C158.939 114.604 156.947 113.6 156.692 113.599C156.437 113.599 155.684 114.652 155.018 115.94C154.352 117.228 152.302 120.992 150.463 124.305C148.624 127.617 146.587 131.372 145.937 132.648C144.811 134.863 144.652 134.987 142.503 135.338L140.25 135.707L140.327 138.482C140.379 140.346 140.233 141.262 139.882 141.272C138.737 141.304 129.794 142.572 126.236 143.207C122.416 143.889 112.877 145.559 109.5 146.138C107.542 146.473 105.931 146.08 105.144 145.074C104.769 144.596 104.153 144.542 102.434 144.837C100.341 145.196 100.157 145.149 99.32 144.04C97.0364 141.014 96.4919 140.681 94.3146 140.98C93.1912 141.134 92.1764 141.357 92.0594 141.474C91.8592 141.675 92.1173 143.392 93.5689 151.518C93.8977 153.358 94.5837 157.273 95.0936 160.217C95.6034 163.161 96.3126 167.176 96.6694 169.139C97.0266 171.102 97.7051 175.017 98.1775 177.838C98.65 180.66 99.3587 184.675 99.752 186.761C100.146 188.846 100.865 192.861 101.35 195.683C101.835 198.505 102.537 202.52 102.908 204.605C103.279 206.691 103.967 210.605 104.436 213.304C104.906 216.003 105.609 220.018 106 222.227C106.39 224.435 107.107 228.55 107.594 231.372C108.079 234.194 108.752 238.008 109.087 239.848C109.422 241.688 110.118 245.603 110.635 248.547C111.152 251.492 111.859 255.507 112.206 257.469C113.019 262.067 114.515 270.712 115.323 275.491C115.672 277.552 116.136 279.417 116.354 279.636C116.921 280.204 120.54 279.306 121.171 278.442C121.457 278.049 121.824 276.843 121.986 275.762C122.295 273.695 122.422 273.597 125.473 273.054C126.705 272.835 127.33 272.419 127.803 271.501C128.538 270.076 128.649 270.031 133.799 269.085C135.879 268.703 138.481 268.202 139.582 267.97C140.683 267.739 142.785 267.316 144.254 267.031C150.508 265.817 165.019 261.608 168.722 259.935C169.212 259.713 171.514 258.795 173.838 257.893C176.163 256.992 178.665 255.989 179.4 255.665C187.454 252.111 189.84 251.274 192.452 251.09C194.823 250.924 195.476 251.043 196.549 251.839C198.173 253.042 200.767 253.066 202.534 251.893C203.268 251.405 204.019 251.005 204.202 251.004C204.385 251.002 204.536 252.105 204.536 253.454V255.908H217.019C224.164 255.908 229.398 256.077 229.258 256.304C229.124 256.521 229.312 256.947 229.677 257.25C230.189 257.677 230.339 258.903 230.339 262.67V267.538L234.899 267.411L239.459 267.284L239.599 265.062C239.676 263.84 239.876 262.736 240.044 262.608C240.38 262.353 241.983 259.618 243.121 257.358L243.85 255.908H249.486H255.122L255.393 260.035C255.673 264.281 256.684 268.148 258.521 271.997L259.572 274.198L257.301 275.706C252.981 278.576 251.653 278.84 240.641 279.012C231.624 279.154 230.619 279.095 229.83 278.379C228.726 277.376 226.187 277.36 225.099 278.347C224.639 278.765 223.728 279.106 223.075 279.106H221.886V299.404V319.702H223.136C223.823 319.702 224.774 319.997 225.249 320.357C226.364 321.203 228.158 321.216 229.253 320.385C229.951 319.856 232.015 319.727 240.002 319.716C256.041 319.693 263.65 318.17 273.944 312.924C278.287 310.71 283.471 307.073 286.952 303.796L288.92 301.944L292.159 305.021C296.091 308.759 299.823 311.468 303.968 313.592C312.89 318.164 319.893 319.702 331.796 319.702C337.195 319.702 339.488 319.88 341.158 320.427C344.087 321.388 346.471 321.069 350.263 319.209C352.816 317.957 353.634 317.27 354.986 315.241C355.886 313.891 357.087 311.282 357.655 309.441C358.564 306.499 358.684 305.234 358.651 298.958C358.62 293.003 358.463 291.376 357.703 289.14C355.759 283.418 353.786 280.955 349.569 278.985C346.205 277.414 343.014 277.184 340.804 278.353C339.646 278.965 338.108 279.105 332.574 279.101C326.383 279.097 325.566 279.003 323.543 278.057C320.065 276.431 320.028 276.288 322.024 272.161C323.801 268.487 325.533 261.742 325.559 258.393C325.567 257.394 325.867 256.187 326.226 255.711C326.669 255.124 326.879 253.739 326.879 251.405V247.964L330.995 247.758C337.4 247.438 343.028 246.205 348.977 243.818C351.231 242.915 351.365 242.911 355.65 243.646C361.953 244.728 366.009 245.452 371.813 246.531C379.125 247.89 390.448 249.931 395.614 250.819C397.933 251.217 398.351 251.59 398.718 253.582C398.886 254.493 399.799 256.902 400.746 258.936C408.259 275.065 428.716 276.776 439.436 262.173L441.438 259.446L443.516 259.616C444.89 259.728 446.358 260.277 447.846 261.234C449.845 262.52 450.362 262.659 452.441 262.465C456.033 262.132 459.117 261.341 460.345 260.439C464.145 257.648 469.118 248.67 472.511 238.475C476.925 225.212 479.346 212.951 480.605 197.467C481.619 184.995 480.661 174.579 477.952 168.642C476.876 166.285 476.475 165.902 472.372 163.313C469.838 161.714 467.368 161.328 465.127 162.182C463.84 162.673 459.877 162.009 459.375 161.218C459.182 160.913 458.703 159.559 458.31 158.209C456.431 151.75 451.57 145.595 446.343 143.054C442.667 141.267 437.088 140.478 432.969 141.162C428.134 141.966 424.679 143.931 420.141 148.459C416.204 152.387 416.189 152.397 413.465 152.677C411.537 152.875 409.262 152.68 405.732 152.014C400.923 151.108 394.97 150.022 386.939 148.585C384.859 148.213 381.656 147.631 379.821 147.29C377.986 146.95 374.282 146.27 371.591 145.779C368.899 145.289 364.328 144.456 361.434 143.928C357.138 143.146 354.688 142.318 352.768 141.002C352.693 140.95 353.211 139.933 353.919 138.741C356.431 134.512 361.136 125.755 361.136 125.307C361.136 124.749 360.134 124.085 355.575 121.625C349.25 118.212 343.488 115.037 342.533 114.439C342.02 114.117 341.512 113.948 341.402 114.061C341.292 114.175 340.216 116.074 339.009 118.282C337.803 120.491 335.602 124.506 334.119 127.205C332.635 129.904 331.05 132.814 330.596 133.673C330.143 134.532 329.73 135.309 329.681 135.4C329.631 135.491 328.869 135.429 327.987 135.263L326.383 134.962L326.508 131.306L326.634 127.651L319.732 127.529L312.831 127.406L311.839 129.453C311.058 131.065 310.42 131.69 308.836 132.392C307.134 133.147 306.586 133.206 305.285 132.775C304.239 132.429 303.745 131.991 303.745 131.408C303.745 130.793 303.434 130.55 302.644 130.55H301.543L301.421 123.301L301.298 116.052H296.627H291.956L291.833 123.301C291.72 130.025 291.652 130.55 290.885 130.55C290.43 130.55 289.953 130.95 289.826 131.437C289.699 131.925 289.062 132.527 288.411 132.776C286.857 133.368 282.337 133.354 280.751 132.751C277.708 131.595 275.717 128.232 275.717 124.249C275.717 115.707 270.946 105.867 263.846 99.7687C262.56 98.6646 261.192 97.4869 260.807 97.1514C260.421 96.8164 258.583 95.7653 256.721 94.8159L253.336 93.0904L252.06 89.8494C251.359 88.0667 250.597 86.2069 250.369 85.7162C250.141 85.2254 249.432 83.5191 248.794 81.9242C247.645 79.0508 247.346 78.3535 245.491 74.206C243.958 70.7808 240.198 64.5963 237.299 60.7339C233.56 55.7526 228.995 51.3031 221.179 45.0231C216.858 41.5511 214.268 39.1501 213.911 38.2842C212.671 35.2832 209.522 33.3988 204.025 32.3683C201.449 31.8856 200.702 31.9142 198.241 32.5891C196.687 33.0156 195.015 33.3524 194.526 33.3377C192.35 33.2721 189.151 32.7305 188.764 32.3625C188.15 31.7763 187.105 31.9065 185.951 32.7136ZM186.424 34.4173C182.308 37.3086 170.174 58.0536 168.749 64.6374C168.276 66.8215 169.162 65.9346 169.693 63.6925C171.136 57.6022 180.258 41.8299 185.788 35.8631C187.857 33.6299 187.997 33.3127 186.424 34.4173ZM189.881 34.5141C187.243 35.5571 179.469 46.9896 174.479 57.165C170.975 64.3108 170.254 66.7707 171.181 68.4191C171.951 69.7878 172.949 70.2562 172.949 69.2489C172.949 68.0283 174.74 63.2915 176.776 59.1275C177.855 56.9205 178.94 54.2091 179.188 53.1014C180.552 46.9999 185.799 39.519 191.295 35.8408C192.566 34.9901 192.794 34.6644 192.26 34.4592C191.445 34.1456 190.774 34.1612 189.881 34.5141ZM200.627 37.2644C191.542 40.4112 182.646 53.1687 183.755 61.4593C184.211 64.8729 184.96 64.5499 184.97 60.9346C184.996 51.7483 192.689 41.295 201.714 38.1812C203.098 37.7038 204.811 37.313 205.521 37.313C206.269 37.313 206.697 37.1252 206.538 36.8669C206.11 36.1727 203.217 36.3672 200.627 37.2644ZM211.447 37.8546C211.85 38.5206 212.283 40.227 212.409 41.6465C213.259 51.2179 205.615 62.7829 195.29 67.5465C193.316 68.4574 192.029 68.7251 189.543 68.7421C185.571 68.7693 185.991 69.4683 190.156 69.7614C194.953 70.0987 199.865 67.9189 204.833 63.249C213.073 55.5036 216.41 43.3632 211.796 37.9193L210.715 36.6438L211.447 37.8546ZM196.279 38.0067C195.45 38.6732 195.455 38.6812 196.416 38.2142C196.967 37.9465 197.417 37.6342 197.417 37.5204C197.417 37.1792 197.187 37.2778 196.279 38.0067ZM203.275 38.733C199.431 39.594 194.565 43.0625 191.314 47.2582C187.57 52.0918 185.85 56.3464 185.85 60.7785C185.85 64.1685 186.08 64.5258 188.266 64.5258C193.578 64.5258 199.82 60.3587 204.084 53.9664C206.896 49.7506 207.843 46.8848 207.859 42.5392C207.876 38.0602 207.536 37.7778 203.275 38.733ZM188.721 40.9934L186.963 42.8894L188.853 41.1259C190.612 39.486 190.949 39.0975 190.612 39.0975C190.54 39.0975 189.688 39.9504 188.721 40.9934ZM190.505 42.7779L188.297 45.12L190.633 42.9063C191.918 41.6885 192.969 40.6347 192.969 40.5643C192.969 40.231 192.557 40.6017 190.505 42.7779ZM215.287 45.4706C215.202 52.6495 211.191 60.2748 204.612 65.7647C201.07 68.7202 195.815 71.1993 193.024 71.2305L191.856 71.2438L193.225 72.4573C195.09 74.1115 196.198 75.0291 200.087 78.1398L203.423 80.8089L206.983 80.8058C210.199 80.8027 210.819 80.6524 213.421 79.2444C223.145 73.9834 229.904 61.859 227.65 53.721C227.171 51.991 226.209 51.0733 217.369 43.9092L215.325 42.2524L215.287 45.4706ZM187.573 46.1237C187.02 46.8313 187.036 46.8469 187.741 46.2924C188.17 45.9556 188.52 45.604 188.52 45.5117C188.52 45.1445 188.154 45.3805 187.573 46.1237ZM184.72 50.7263C184.558 50.9877 184.522 51.2977 184.639 51.4146C184.755 51.5315 184.969 51.3173 185.114 50.9386C185.415 50.1525 185.159 50.0143 184.72 50.7263ZM228.928 56.6877C229.041 59.2939 228.846 60.7615 228.077 63.0791C225.779 70.0059 219.926 77.1058 214.101 80.0345C211.579 81.3028 206.99 82.5184 205.676 82.2664L204.563 82.0531L205.79 83.6614C207.521 85.9312 209.043 88.4223 210.545 91.4443C211.257 92.8768 212.243 94.3324 212.735 94.6786C213.823 95.4419 219.026 95.5204 222.421 94.824C231.389 92.9847 243.213 86.367 245.655 81.8198L246.512 80.2245L245.059 76.9478C241.768 69.5241 236.521 61.5164 231.36 56.0399L228.782 53.3043L228.928 56.6877ZM206.315 54.7114C206.053 55.2021 205.939 55.6036 206.062 55.6036C206.184 55.6036 206.498 55.2021 206.76 54.7114C207.022 54.2207 207.136 53.8192 207.014 53.8192C206.891 53.8192 206.577 54.2207 206.315 54.7114ZM202.068 60.1763L200.309 62.0722L202.2 60.3087C203.958 58.6688 204.295 58.2803 203.959 58.2803C203.886 58.2803 203.035 59.1332 202.068 60.1763ZM176.79 64.1913C175.897 66.4611 175.167 68.6207 175.17 68.991C175.172 69.3921 178.7 71.7332 183.909 74.7905C188.714 77.6099 192.768 79.9649 192.918 80.0233C193.068 80.0822 193.517 79.1436 193.915 77.9382L194.64 75.746L191.856 73.482C190.326 72.2365 188.74 71.2175 188.334 71.2175C187.182 71.2175 184.419 69.6477 183.078 68.2308C181.791 66.8715 179.177 61.8434 179.177 60.7268C179.177 59.0944 178.288 60.3846 176.79 64.1913ZM194.8 78.1091C194.527 79.198 194.303 80.2727 194.303 80.4971C194.303 80.722 195.455 81.6717 196.861 82.6086C198.268 83.545 200.946 85.8607 202.813 87.7544C205.081 90.0559 206.676 91.3011 207.625 91.5103L209.045 91.823L208.064 89.8954C206.021 85.8777 202.884 82.3159 197.581 77.9913L195.298 76.1292L194.8 78.1091ZM246.811 81.7971C246.783 83.1671 241.636 87.7473 237.439 90.1376L235.78 91.0825L240.734 91.1177C243.458 91.1373 246.855 91.4027 248.281 91.7079C249.707 92.013 250.969 92.1674 251.085 92.0509C251.202 91.9345 250.29 89.4582 249.059 86.5473C247.829 83.6364 246.818 81.4991 246.811 81.7971ZM237.902 92.4828C234.33 93.0502 229.614 94.0906 229.23 94.3962C228.983 94.592 228.318 94.895 227.752 95.0694C226.638 95.412 220.552 98.8421 220.552 99.1276C220.552 99.2231 221.296 99.6844 222.207 100.153L223.861 101.004L226.126 99.7223C235.127 94.6281 247.386 94.8463 256.407 100.261C259.569 102.159 263.891 106.373 265.97 109.583C268.836 114.012 270.824 120.231 270.824 124.773V127.428H272.669H274.515L274.245 123.921C273.03 108.123 261.83 95.7167 246.355 93.0253C241.786 92.2308 240.151 92.1259 237.902 92.4828ZM203.646 95.1746C202.283 95.6698 199.945 98.276 198.924 100.438C197.877 102.656 197.494 106.527 198.21 107.656C198.394 107.946 198.551 107.043 198.56 105.649C198.586 101.344 201.199 97.0322 204.712 95.4989C205.691 95.0716 205.834 94.9016 205.203 94.9141C204.714 94.9239 204.013 95.0412 203.646 95.1746ZM210.993 96.0151C211.728 97.6675 211.749 101.519 211.035 103.621C209.784 107.304 206.525 110.792 203.358 111.841C202.213 112.219 202.258 112.24 203.819 112.055C208.154 111.541 212.455 106.166 212.612 101.067C212.671 99.1677 211.798 95.896 211.121 95.4762C210.764 95.2545 210.725 95.4142 210.993 96.0151ZM218.994 96.3773L215.88 96.8953L217.308 97.6648C218.718 98.425 218.76 98.4178 220.843 97.0938C222.002 96.3568 222.761 95.7773 222.53 95.8067C222.298 95.8357 220.707 96.0927 218.994 96.3773ZM204.372 96.7017C201.529 98.3898 199.507 102.356 199.725 105.817C199.855 107.872 199.94 108.014 200.977 107.903C202.489 107.742 204.052 106.523 205.648 104.261C206.809 102.616 206.983 101.982 206.983 99.3962C206.983 96.7561 206.883 96.4108 206.093 96.3158C205.603 96.2569 204.829 96.4304 204.372 96.7017ZM236.567 97.8268C232.809 98.4326 229.063 99.6857 226.61 101.158L225.327 101.928L228.612 103.573C233.867 106.204 235.233 107.905 235.233 111.814C235.233 115.429 232.959 118.864 229.227 120.887C227.74 121.693 226.714 121.851 222.982 121.851C218.856 121.851 218.299 121.743 215.652 120.428C214.077 119.645 212.738 119.054 212.677 119.115C212.616 119.177 212.432 120.67 212.268 122.435L211.971 125.643H240.772H269.573L269.269 123.301C268.124 114.453 263.584 106.967 256.512 102.263C252.373 99.5109 248.623 98.2894 241.461 97.3619C240.85 97.2825 238.647 97.4917 236.567 97.8268ZM213.99 98.9314C214.793 104.199 211.737 110.214 207.061 112.571L205.36 113.428L212.303 116.97L219.245 120.513L222.901 120.493C225.763 120.477 226.958 120.262 228.401 119.504C230.9 118.191 233.32 115.265 233.681 113.119C234.321 109.32 233.152 107.7 227.67 104.795C225.835 103.822 221.954 101.766 219.047 100.225L213.761 97.4253L213.99 98.9314ZM209.5 101.107C209.5 101.72 209.601 101.972 209.724 101.665C209.848 101.358 209.848 100.856 209.724 100.549C209.601 100.243 209.5 100.494 209.5 101.107ZM155.786 117.681C155.155 118.931 154.804 120.105 155.007 120.292C155.367 120.624 162.278 124.432 168.945 127.973C170.78 128.947 172.924 130.451 173.709 131.316C174.865 132.588 175.351 132.833 176.267 132.603C177.066 132.401 177.398 132.018 177.398 131.296C177.398 130.735 177.692 129.885 178.051 129.409C179.07 128.057 178.855 127.209 177.286 126.407C176.491 126 174.439 124.897 172.726 123.955C171.013 123.013 167.31 120.98 164.496 119.436C161.682 117.892 159.179 116.48 158.935 116.298C157.452 115.194 156.926 115.425 155.786 117.681ZM341.857 116.183C341.585 116.665 339.309 120.856 336.233 126.535C334.705 129.357 332.974 132.49 332.387 133.497L331.319 135.329L334.401 135.616C338.406 135.989 347.898 138.433 349.346 139.464C350.903 140.572 351.329 140.322 352.963 137.335C353.864 135.689 355.696 132.377 357.035 129.975C358.374 127.574 359.394 125.547 359.302 125.472C358.941 125.179 346.845 118.505 346.675 118.505C346.575 118.505 345.49 117.912 344.264 117.187C343.037 116.462 341.954 116.01 341.857 116.183ZM208.048 117.907C207.774 118.604 207.444 121.031 207.316 123.301L207.084 127.428H208.623H210.163L210.605 123.524C210.849 121.377 211.134 119.369 211.24 119.061C211.345 118.753 210.783 118.082 209.99 117.57L208.549 116.639L208.048 117.907ZM293.513 117.613C293.513 117.871 294.922 118.059 296.85 118.059C298.777 118.059 300.186 117.871 300.186 117.613C300.186 117.355 298.777 117.167 296.85 117.167C294.922 117.167 293.513 117.355 293.513 117.613ZM293.415 125.755C293.295 131.432 293.252 131.671 292.327 131.803C291.797 131.879 291.253 132.231 291.118 132.584C290.911 133.124 291.804 133.227 296.678 133.227C301.124 133.227 302.442 133.096 302.302 132.669C302.201 132.363 301.684 132.048 301.153 131.969C300.216 131.831 300.186 131.643 300.186 125.835V119.844H296.863H293.539L293.415 125.755ZM153.018 122.726C152.54 123.778 152.652 123.895 155.727 125.543C157.491 126.488 161.402 128.623 164.417 130.286C167.432 131.95 169.958 133.242 170.029 133.158C170.101 133.073 170.382 132.573 170.655 132.046C171.078 131.229 170.991 130.982 170.064 130.373C169.466 129.98 168.893 129.658 168.791 129.658C168.69 129.658 165.367 127.851 161.406 125.643C157.446 123.435 154.05 121.628 153.861 121.628C153.671 121.628 153.292 122.122 153.018 122.726ZM151.594 125.147C151.594 125.397 150.624 127.292 149.439 129.358C146.342 134.755 146.363 134.629 148.604 134.274C152.015 133.733 151.818 133.564 152.693 137.8C153.031 139.439 153.683 139.391 159.964 137.271C162.824 136.306 166.014 135.294 167.054 135.024C168.094 134.753 168.945 134.378 168.945 134.191C168.945 134.004 168.094 133.418 167.054 132.888C164.566 131.621 159.124 128.613 155.971 126.761C153.029 125.033 151.594 124.504 151.594 125.147ZM212.099 126.982C212.099 127.274 221.961 127.428 240.794 127.428C259.627 127.428 269.489 127.274 269.489 126.982C269.489 126.689 259.627 126.535 240.794 126.535C221.961 126.535 212.099 126.689 212.099 126.982ZM205.871 191.556L205.87 254.124H265.485H325.1V191.445V128.766L319.428 128.778L313.755 128.789L312.938 130.566C312.403 131.73 311.47 132.725 310.23 133.454L308.338 134.565H294.453C283.365 134.565 280.325 134.439 279.366 133.936C277.832 133.133 275.902 131.055 275.525 129.802L275.233 128.83L240.552 128.91L205.872 128.989L205.871 191.556ZM171.507 132.567C170.831 133.868 170.844 133.932 171.878 134.421C173.265 135.078 173.563 134.527 172.811 132.694L172.207 131.22L171.507 132.567ZM200.977 191.681V251.028L202.753 250.01L204.529 248.993L204.532 191.593L204.536 134.192L203.037 133.264C202.213 132.753 201.413 132.335 201.258 132.335C201.103 132.335 200.977 159.041 200.977 191.681ZM175.038 134.008C174.936 134.192 174.713 134.921 174.545 135.627C174.262 136.808 174.32 136.888 175.261 136.62C175.824 136.46 176.825 136.21 177.486 136.065C178.639 135.812 178.659 135.76 177.991 134.737C177.33 133.725 175.456 133.262 175.038 134.008ZM195.972 134.917C195.026 135.495 194.748 136.006 194.748 137.171C194.748 138.591 194.818 138.659 195.971 138.369C197.553 137.972 197.495 138.071 197.334 135.975L197.195 134.169L195.972 134.917ZM184.849 134.861C185.155 134.985 185.656 134.985 185.962 134.861C186.268 134.737 186.017 134.636 185.406 134.636C184.794 134.636 184.544 134.737 184.849 134.861ZM145.588 136.301L141.584 137.048L141.728 138.595C141.89 140.346 143.143 146.755 143.368 146.983C143.448 147.066 144.727 145.848 146.21 144.276C147.692 142.704 149.41 141.148 150.027 140.816C151.183 140.196 151.47 138.71 150.869 136.461C150.562 135.312 150.842 135.32 145.588 136.301ZM164.115 136.928C161.826 137.714 160.024 138.558 160.112 138.803C160.297 139.327 164.166 139.181 167.525 138.523C169.725 138.092 169.877 137.979 169.749 136.875C169.674 136.222 169.312 135.646 168.945 135.594C168.578 135.542 166.404 136.142 164.115 136.928ZM190.522 135.741C186.347 136.207 181.499 136.96 180.676 137.269C179.149 137.843 177.368 144.38 178.738 144.38C179.222 144.38 183.269 143.244 188.297 141.697C190.01 141.171 191.812 140.622 192.301 140.48C193.551 140.115 193.844 139.525 193.852 137.354C193.859 135.298 193.975 135.355 190.522 135.741ZM170.724 136.587C170.724 137.309 171.42 137.473 171.808 136.843C171.943 136.623 171.755 136.328 171.389 136.188C170.985 136.032 170.724 136.189 170.724 136.587ZM326.476 191.667C326.576 221.846 326.807 246.539 326.991 246.539C327.174 246.539 327.324 221.847 327.324 191.668C327.324 150.411 327.197 136.796 326.81 136.796C326.421 136.796 326.339 150.306 326.476 191.667ZM328.214 191.713V246.63L331.44 246.331C339.063 245.623 345.438 243.834 352.011 240.559C363.041 235.062 370.595 227.548 376.643 216.058C378.459 212.607 381.015 204.945 381.692 200.924C382.487 196.196 382.337 185.072 381.422 180.842C377.779 164.014 367.213 150.139 352.327 142.635C345.579 139.233 336.123 136.796 329.672 136.796H328.214V191.713ZM174.506 138.361C167.607 140.08 164.229 141.132 159.055 143.175C156.297 144.264 153.698 145.273 153.278 145.417C152.858 145.561 150.655 146.859 148.384 148.302C146.112 149.745 143.596 151.152 142.792 151.427C141.987 151.703 139.585 153.084 137.453 154.496C135.321 155.908 133.188 157.272 132.713 157.525C132.238 157.779 131.015 159.013 129.995 160.268C127.436 163.416 126.294 167.904 127.08 171.721C127.377 173.164 127.813 174.852 128.049 175.473L128.477 176.602L129.838 174.878C134.866 168.511 144.704 159.7 152.039 154.995C159.354 150.302 170.058 145.713 175.4 144.979L177.282 144.721L177.557 142.076C177.709 140.621 178.052 139.022 178.319 138.522C178.586 138.021 178.738 137.556 178.657 137.488C178.576 137.42 176.708 137.813 174.506 138.361ZM198.689 167.466C198.576 184.089 198.603 208.631 198.749 222.003C198.96 241.227 199.035 234.899 199.106 191.779C199.156 161.784 199.129 137.242 199.045 137.242C198.962 137.242 198.802 150.843 198.689 167.466ZM156.265 139.473C155.454 139.822 155.474 139.856 156.488 139.856C157.1 139.856 158.001 139.684 158.49 139.473C159.301 139.123 159.281 139.09 158.267 139.09C157.656 139.09 156.755 139.262 156.265 139.473ZM195.638 139.473C194.584 139.811 194.602 139.832 195.972 139.874C196.767 139.899 197.417 139.718 197.417 139.473C197.417 138.969 197.208 138.969 195.638 139.473ZM150.779 141.39C150.388 141.863 150.548 142.26 151.495 143.17C153.241 144.846 154.052 144.103 152.504 142.246C151.508 141.052 151.189 140.894 150.779 141.39ZM194.748 157.105V173.4L195.889 173.834C196.517 174.074 197.118 174.269 197.224 174.269C197.33 174.269 197.417 166.741 197.417 157.54V140.811H196.083H194.748V157.105ZM154.475 141.721C154.287 142.025 154.623 142.081 155.45 141.881C157.154 141.471 157.315 141.257 155.921 141.257C155.283 141.257 154.632 141.466 154.475 141.721ZM192.301 141.569C191.812 141.684 189.209 142.452 186.518 143.276C183.826 144.1 180.873 144.909 179.956 145.073L178.287 145.372V159.374V173.377H185.85H193.413V157.317C193.413 148.484 193.364 141.28 193.302 141.309C193.241 141.337 192.791 141.454 192.301 141.569ZM93.9324 142.786C93.7718 143.205 93.9796 145.392 94.3942 147.645C95.3276 152.716 96.5065 159.388 97.7584 166.686C98.2847 169.753 98.9005 173.165 99.1274 174.269C99.3543 175.374 99.8352 178.084 100.196 180.292C100.558 182.5 101.154 186.013 101.522 188.099C101.89 190.185 102.614 194.3 103.131 197.244C103.648 200.189 104.345 204.103 104.68 205.943C105.015 207.784 105.689 211.598 106.179 214.42C106.669 217.241 107.373 221.256 107.744 223.342C108.115 225.427 108.836 229.543 109.345 232.487C109.854 235.431 110.555 239.446 110.903 241.409C111.25 243.372 111.957 247.387 112.475 250.332C112.993 253.276 113.672 257.09 113.985 258.808C114.298 260.525 114.883 263.938 115.285 266.392C115.687 268.845 116.201 271.756 116.428 272.86C116.654 273.964 116.961 275.621 117.109 276.541C117.263 277.497 117.631 278.214 117.968 278.214C118.434 278.214 118.47 277.767 118.14 276.095C117.911 274.929 117.344 271.767 116.881 269.068C116.418 266.369 115.736 262.455 115.364 260.369C114.993 258.284 114.273 254.168 113.763 251.224C113.254 248.279 112.554 244.264 112.206 242.302C111.859 240.339 111.152 236.324 110.635 233.379C110.118 230.435 109.422 226.52 109.087 224.68C108.752 222.84 108.077 219.026 107.587 216.204C107.098 213.382 106.378 209.267 105.987 207.059C105.597 204.85 104.896 200.835 104.43 198.136C103.964 195.438 103.279 191.523 102.908 189.437C102.537 187.352 101.81 183.236 101.293 180.292C100.776 177.348 100.061 173.333 99.7031 171.37C99.3458 169.407 98.6633 165.492 98.186 162.671C97.7091 159.849 97.0266 155.934 96.6698 153.971C96.313 152.008 95.7173 148.617 95.3463 146.436C94.6229 142.185 94.3911 141.587 93.9324 142.786ZM95.7569 143.376C95.9304 144.051 96.4443 146.811 96.8994 149.51C97.3545 152.209 98.0303 156.124 98.4017 158.209C98.7728 160.295 99.4771 164.31 99.966 167.132C100.825 172.087 103.295 186.091 104.686 193.898C105.058 195.984 105.746 199.899 106.216 202.598C106.685 205.297 107.373 209.211 107.744 211.297C108.115 213.382 108.836 217.498 109.345 220.442C109.854 223.386 110.555 227.401 110.903 229.364C111.25 231.327 111.957 235.342 112.473 238.287C112.99 241.231 113.687 245.146 114.022 246.986C114.357 248.826 115.046 252.741 115.553 255.685C116.06 258.629 116.763 262.644 117.115 264.607C117.468 266.57 118.1 270.334 118.52 272.972C118.94 275.609 119.425 277.767 119.598 277.767C120.624 277.767 120.459 275.942 118.431 264.83C118.095 262.99 117.422 259.176 116.936 256.354C116.45 253.532 115.732 249.417 115.342 247.209C114.952 245.001 114.248 240.986 113.779 238.287C113.309 235.588 112.622 231.673 112.25 229.587C111.879 227.502 111.178 223.487 110.693 220.665C110.207 217.843 109.488 213.828 109.095 211.743C108.701 209.657 107.993 205.642 107.52 202.821C107.048 199.999 106.369 196.084 106.012 194.121C105.655 192.159 104.962 188.244 104.473 185.422C103.983 182.601 103.279 178.586 102.907 176.5C102.535 174.414 101.848 170.5 101.381 167.801C100.913 165.102 99.8005 158.682 98.908 153.534C97.4782 145.285 96.5955 142.149 95.7026 142.149C95.5594 142.149 95.5838 142.702 95.7569 143.376ZM147.439 144.496C146.32 145.81 144.914 147.149 144.315 147.47C143.672 147.815 143.153 148.556 143.047 149.282L142.867 150.511L145.785 148.722C147.39 147.738 149.328 146.508 150.092 145.988L151.482 145.043L150.479 143.575L149.475 142.106L147.439 144.496ZM433.43 142.453C430.762 143.052 427.837 144.23 425.867 145.498C422.533 147.643 417.139 153.399 417.821 154.082C417.973 154.235 419.091 154.103 420.307 153.791C422.271 153.286 422.704 153.314 424.188 154.043C432.384 158.068 432.743 189.376 424.94 219.618C424.107 222.844 423.298 225.817 423.143 226.224C422.752 227.246 426.525 230.805 429.655 232.367C432.446 233.759 436.995 235.387 438.096 235.387C438.6 235.387 438.997 234.774 439.325 233.491C439.591 232.448 440.396 229.387 441.113 226.688C441.831 223.989 442.54 221.142 442.689 220.362C442.991 218.783 442.991 218.783 438.212 218.193C435.906 217.908 435.877 217.886 435.877 216.378C435.877 215.083 436.105 214.742 437.377 214.134C438.751 213.477 438.923 213.166 439.409 210.46C441.006 201.586 442.029 194.057 442.919 184.642L443.267 180.961H442.018C440.873 180.961 440.77 180.824 440.772 179.288C440.773 177.632 440.806 177.602 443.997 176.277C445.77 175.541 447.472 174.967 447.777 175.001C448.683 175.101 448.482 165.075 447.444 158.374C446.285 150.896 444.481 145.844 442.263 143.866C440.725 142.494 436.357 141.795 433.43 142.453ZM134.466 143.468C126.561 144.52 125.708 144.738 125.97 145.646C126.088 146.054 126.315 147.391 126.473 148.618C126.632 149.845 126.953 151.607 127.187 152.534L127.612 154.22L129.482 153.053C130.51 152.411 133.672 150.75 136.508 149.36C139.343 147.97 141.612 146.633 141.549 146.387C141.486 146.142 141.309 145.189 141.156 144.268C141.002 143.349 140.735 142.619 140.563 142.647C140.391 142.675 137.647 143.045 134.466 143.468ZM445.664 144.537C445.664 144.651 446.193 145.766 446.839 147.016C448.881 150.96 450.06 157.089 450.648 166.793L451.181 175.601L452.76 175.873C453.628 176.022 455.541 176.381 457.009 176.67L459.678 177.195L459.398 172.721C458.71 161.731 455.694 153.15 450.775 148.19C448.815 146.212 445.664 143.961 445.664 144.537ZM122.899 145.322C117.457 146.184 110.35 147.473 109.745 147.709C108.994 148.003 109.01 148.157 110.866 158.432C111.264 160.641 111.975 164.656 112.444 167.355C112.913 170.054 113.601 173.968 113.973 176.054C114.344 178.14 115.065 182.255 115.574 185.199C116.083 188.144 116.784 192.159 117.131 194.121C117.478 196.084 118.161 199.999 118.65 202.821C119.138 205.642 119.63 208.352 119.743 208.843C119.857 209.334 120.376 212.245 120.898 215.312C121.42 218.379 121.954 221.39 122.086 222.003C122.279 222.905 122.658 222.264 124.062 218.669C126.309 212.913 126.835 209.712 126.577 203.335C126.277 195.895 124.56 191.518 119.11 184.297C117.919 182.72 116.636 180.772 116.259 179.968C111.94 170.769 114.774 162.154 124.051 156.279L126.538 154.704L125.947 151.215C124.869 144.857 124.943 144.999 122.899 145.322ZM259.64 145.966C249.212 147.397 240.379 151.765 233.053 159.111C226.807 165.374 223.187 171.872 220.675 181.33C219.558 185.536 219.578 197.784 220.709 201.928C222.701 209.232 224.972 214.046 228.834 219.158C236.794 229.69 248.583 236.293 261.437 237.418L265.04 237.733V236.56C265.04 235.129 265.813 234.994 266.01 236.391C266.145 237.343 266.325 237.388 269.489 237.273C284.548 236.725 300.107 225.886 307.051 211.108C313.919 196.493 312.458 178.852 303.262 165.343C301.553 162.833 296.647 157.514 294.403 155.739C287.523 150.298 279.941 147.13 270.911 145.925C265.397 145.189 265.3 145.189 259.64 145.966ZM360.246 145.374C360.368 145.499 361.67 146.572 363.138 147.759C372.696 155.486 379.045 165.606 382.57 178.731C383.471 182.086 383.588 183.55 383.589 191.445C383.589 199.32 383.466 200.864 382.541 204.605C381.965 206.936 381.345 209.044 381.164 209.289C380.982 209.535 380.711 210.25 380.562 210.878C380.232 212.269 378.497 216.084 376.822 219.104C372.152 227.519 364.924 234.965 356.509 240.03C353.689 241.728 353.691 241.732 357.799 242.482C361.015 243.069 373.716 245.366 380.488 246.585C383.18 247.069 386.984 247.756 388.941 248.112C407.517 251.484 406.57 251.387 408.406 250.11C413.715 246.42 419.733 233.354 423.92 216.427C429.667 193.196 430.281 167.071 425.27 159.004C424.128 157.167 423.233 156.617 420.734 156.219C419.642 156.045 416.046 155.405 412.743 154.796C409.439 154.187 404.534 153.293 401.843 152.81C399.151 152.326 395.347 151.64 393.39 151.284C391.432 150.929 387.629 150.246 384.937 149.767C382.246 149.288 378.342 148.573 376.262 148.179C374.182 147.784 370.209 147.068 367.433 146.588C364.657 146.107 361.854 145.586 361.205 145.43C360.555 145.274 360.124 145.249 360.246 145.374ZM172.643 146.623C163.333 149.036 152.264 155.115 143.28 162.748C139.044 166.347 130.359 175.303 129.702 176.749C129.331 177.566 129.546 178.246 130.91 180.578C133.059 184.25 135.163 189.53 136.486 194.568C137.401 198.053 137.541 199.614 137.545 206.39C137.549 213.361 137.143 217.529 136.23 219.884C135.798 221.002 137.165 220.904 138.141 219.747C141.413 215.866 147.25 216.124 150.254 220.282C152.725 223.703 152.991 228.899 150.862 232.191C150.067 233.421 150.006 233.345 152.261 233.93C153.24 234.184 155.943 234.896 158.267 235.513C162.937 236.753 173.192 238.51 175.756 238.51H177.398V224.046V209.583L176.082 209.293C174.675 208.984 172.267 206.551 171.584 204.75C171.356 204.147 171.169 198.086 171.169 191.28V178.906L172.43 176.911C173.267 175.588 174.314 174.636 175.544 174.08L177.398 173.242V159.48C177.398 146.656 177.345 145.721 176.619 145.757C176.191 145.778 174.401 146.168 172.643 146.623ZM102.258 146.572C101.818 146.852 101.715 147.466 101.905 148.684C102.182 150.461 103.614 158.602 104.68 164.455C105.015 166.295 105.689 170.109 106.179 172.931C106.669 175.753 107.388 179.868 107.779 182.076C108.169 184.285 108.87 188.3 109.336 190.999C109.802 193.698 110.487 197.612 110.859 199.698C111.23 201.783 111.931 205.798 112.416 208.62C112.901 211.442 113.618 215.457 114.009 217.542C114.4 219.628 115.097 223.543 115.56 226.242C116.021 228.941 116.719 232.956 117.109 235.164C117.5 237.372 118.203 241.387 118.673 244.086C119.142 246.785 119.83 250.7 120.201 252.785C120.572 254.871 121.271 258.886 121.753 261.707C122.236 264.529 122.841 267.919 123.098 269.241C123.356 270.562 123.566 271.689 123.566 271.744C123.566 271.799 124.086 271.745 124.722 271.623C125.756 271.425 125.847 271.255 125.58 270.012C125.417 269.248 125.001 267.016 124.657 265.053C124.312 263.09 123.643 259.276 123.17 256.577C122.697 253.878 121.791 248.558 121.157 244.755C119.86 236.983 119.327 233.981 118.385 229.141C118.027 227.301 117.353 223.587 116.887 220.888C116.421 218.189 115.736 214.275 115.364 212.189C114.993 210.103 114.266 205.988 113.749 203.044C113.232 200.099 112.536 196.185 112.201 194.345C111.866 192.504 111.194 188.69 110.708 185.868C110.221 183.047 109.504 178.931 109.114 176.723C108.723 174.515 108.003 170.399 107.513 167.578C107.024 164.756 106.352 160.942 106.021 159.102C105.69 157.261 105.058 153.597 104.616 150.96C103.836 146.291 103.547 145.754 102.258 146.572ZM99.776 148.283C100.269 151.291 101.763 159.72 102.208 162.001C102.448 163.228 102.964 166.139 103.355 168.47C103.747 170.801 104.342 174.214 104.678 176.054C105.014 177.894 105.687 181.708 106.173 184.53C106.659 187.352 107.376 191.467 107.767 193.675C108.157 195.884 108.861 199.899 109.33 202.598C109.799 205.297 110.487 209.211 110.859 211.297C111.23 213.382 111.931 217.397 112.416 220.219C112.901 223.041 113.615 227.056 114.001 229.141C114.388 231.227 115.101 235.242 115.586 238.064C116.072 240.885 116.773 244.9 117.144 246.986C117.515 249.071 118.203 252.986 118.673 255.685C119.749 261.877 120.76 267.614 121.213 270.111C121.406 271.176 121.765 272.021 122.009 271.989C122.569 271.917 122.528 271.34 121.609 266.392C121.199 264.183 120.466 260.068 119.98 257.246C119.494 254.425 118.793 250.41 118.422 248.324C118.05 246.239 117.362 242.324 116.893 239.625C116.424 236.926 115.736 233.011 115.364 230.926C114.993 228.84 114.273 224.725 113.763 221.78C113.254 218.836 112.554 214.821 112.206 212.858C111.859 210.895 111.152 206.88 110.635 203.936C110.118 200.992 109.422 197.077 109.087 195.237C108.752 193.397 108.077 189.582 107.587 186.761C107.098 183.939 106.393 179.924 106.022 177.838C105.651 175.753 104.93 171.637 104.42 168.693C103.91 165.749 103.208 161.734 102.859 159.771C102.51 157.808 101.874 154.044 101.446 151.406C100.917 148.15 100.48 146.61 100.084 146.61C99.6594 146.61 99.5763 147.062 99.776 148.283ZM256.81 147.968C247.591 150.025 240.867 153.586 234.628 159.716C224.659 169.511 219.945 182.605 221.425 196.39C223.075 211.755 232.733 225.279 246.8 231.921C250.88 233.848 256.265 235.367 260.202 235.702L263.149 235.953L263.337 234.344C263.545 232.553 263.195 232.264 260.813 232.264C258.919 232.264 254.515 231.172 250.795 229.781C240.707 226.007 231.882 217.243 227.591 206.737C226 202.839 224.555 195.665 224.557 191.669C224.559 188.354 225.612 181.82 226.634 178.783C231.098 165.52 241.76 155.543 255.406 151.861C260.664 150.443 270.361 150.458 275.688 151.893C288.46 155.336 298.441 164.162 303.375 176.377C305.597 181.88 306.127 184.953 306.089 192.114C306.065 196.716 305.84 198.961 305.133 201.629C301.912 213.799 293.684 223.627 282.305 228.897C278.942 230.455 272.52 232.264 270.354 232.264C268.232 232.264 267.71 232.683 267.71 234.384V235.962L270.713 235.707C277.281 235.148 286.082 231.719 291.511 227.605C300.111 221.086 305.752 212.786 308.507 202.598C309.556 198.716 309.713 197.296 309.718 191.668C309.724 184.939 309.259 182.128 307.174 176.277C300.959 158.844 283.707 146.885 265.104 147.116C262.417 147.149 258.83 147.517 256.81 147.968ZM105.778 148.345C105.786 149.045 106.553 153.647 107.792 160.44C108.128 162.28 108.804 166.094 109.293 168.916C109.783 171.738 110.487 175.753 110.859 177.838C111.23 179.924 111.95 184.039 112.46 186.984C112.969 189.928 113.666 193.943 114.009 195.906C114.351 197.869 114.939 201.282 115.313 203.49C115.688 205.698 116.195 208.509 116.44 209.735C116.881 211.942 118.366 220.28 118.872 223.39C119.108 224.836 119.251 224.977 120.288 224.778C121.338 224.577 121.42 224.411 121.19 222.946C120.913 221.177 119.538 213.231 118.479 207.282C118.108 205.196 117.381 201.081 116.864 198.136C116.347 195.192 115.65 191.278 115.315 189.437C114.98 187.597 114.308 183.783 113.822 180.961C113.336 178.14 112.618 174.024 112.228 171.816C111.315 166.655 109.987 159.018 109.164 154.194C108.178 148.421 108.047 148.063 106.846 147.832C106.067 147.683 105.773 147.824 105.778 148.345ZM140.017 148.709C135.92 150.578 128.506 154.801 128.719 155.145C129.018 155.631 133.671 155.66 133.873 155.177C133.954 154.981 135.666 153.755 137.677 152.452C140.802 150.427 142.349 148.79 141.726 148.166C141.638 148.076 140.868 148.321 140.017 148.709ZM260.814 153.126C247.964 155.031 237.27 162.542 231.344 173.823C228.448 179.338 227.607 182.599 227.341 189.341C227.057 196.563 227.648 200.655 229.72 205.808C233.255 214.603 239.907 221.909 248.133 226.032C252.392 228.167 255.154 229.013 260.6 229.852C265.181 230.557 265.789 230.557 270.37 229.852C279.743 228.408 286.532 225.066 292.657 218.879C297.673 213.809 301.146 207.754 302.889 201.036C304.277 195.687 304.283 187.595 302.903 182.329C299.988 171.203 292.844 162.173 283.127 157.331C280.586 156.065 277.029 154.639 275.222 154.162C272.022 153.317 263.604 152.712 260.814 153.126ZM421.64 154.412C421.64 154.756 424.867 156.015 425.113 155.767C425.236 155.645 424.611 155.24 423.725 154.869C422.003 154.148 421.64 154.068 421.64 154.412ZM126.707 155.962C125.51 156.705 129.554 157.56 131.179 156.908C132.194 156.501 132.178 156.48 130.825 156.453C130.045 156.438 128.928 156.242 128.341 156.018C127.754 155.794 127.019 155.769 126.707 155.962ZM257.668 156.868C242.901 160.215 231.859 172.691 230.302 187.788C228.878 201.593 235.203 214.581 246.859 221.787C252.691 225.392 258.501 227.062 265.263 227.076C274.663 227.095 282.671 223.981 289.538 217.633C294.664 212.897 297.811 207.721 299.764 200.813C301.212 195.697 301.235 187.539 299.817 182.523C296.112 169.422 286.031 159.715 273.167 156.863C268.287 155.781 262.455 155.783 257.668 156.868ZM425.199 156.594C425.199 156.686 425.549 157.037 425.978 157.374C426.683 157.929 426.699 157.913 426.146 157.206C425.565 156.462 425.199 156.226 425.199 156.594ZM122.933 158.279C120.242 160.067 117.937 162.772 116.529 165.793C114.386 170.391 115.173 176.808 118.496 181.844L119.669 183.62L122.174 181.836C123.551 180.855 125.356 179.488 126.184 178.797L127.691 177.54L126.987 175.347C125.202 169.79 125.692 164.942 128.457 160.787L130.156 158.234L128.529 157.97C127.635 157.825 126.469 157.53 125.938 157.315C125.193 157.013 124.511 157.231 122.933 158.279ZM261.704 157.745C260.235 157.91 257.829 158.377 256.357 158.782C253.827 159.478 247.812 162.171 246.662 163.123C246.371 163.365 244.972 164.516 243.554 165.681C239.185 169.273 235.327 174.855 233.436 180.319C232.933 181.777 232.228 184.912 231.869 187.287C230.645 195.417 232.717 203.786 237.776 211.141C243.787 219.88 254.718 225.572 265.485 225.572C273.823 225.572 282.354 222.223 288.374 216.585C293.653 211.642 296.646 206.613 298.44 199.673C299.799 194.416 299.502 185.891 297.79 181.001C292.343 165.45 277.613 155.957 261.704 157.745ZM260.814 158.944C253.707 160.079 245.903 164.244 241.294 169.359C236.149 175.07 232.563 184.203 232.563 191.596C232.564 196.076 234.397 203.157 236.576 207.096C241.819 216.572 250.904 222.741 261.793 224.221C270.788 225.443 280.969 222.093 287.764 215.674C295.554 208.317 299.184 198.387 297.969 187.766C296.108 171.51 282.908 159.349 266.597 158.863C264.15 158.79 261.548 158.827 260.814 158.944ZM260.429 161.575C249.211 163.687 240.368 171.298 236.707 181.991C235.576 185.291 235.455 186.229 235.455 191.668C235.455 196.781 235.609 198.135 236.47 200.636C239.921 210.643 246.68 217.354 256.748 220.768C260.501 222.04 269.785 222.144 273.715 220.957C286.897 216.977 295.737 205.179 295.737 191.57C295.737 183.062 292.967 176.421 286.823 170.201C283.738 167.079 282.317 166.014 279.26 164.531C272.897 161.446 266.47 160.437 260.429 161.575ZM460.057 165.013C460.199 165.81 460.537 168.771 460.809 171.593C461.081 174.414 461.495 177.083 461.729 177.522C461.963 177.962 462.05 178.491 461.922 178.699C461.793 178.908 461.475 182.563 461.215 186.823C459.942 207.639 456.216 225.94 449.698 243.395C448.301 247.136 444.264 255.582 443.337 256.701C442.585 257.61 443.431 258.115 446.545 258.618C450.398 259.24 451.543 258.883 453.814 256.35C467.59 240.985 477.303 185.337 469.268 167.801C468.106 165.264 467.187 164.628 463.868 164.062C459.709 163.353 459.76 163.34 460.057 165.013ZM469.859 164.678C470.254 165.291 470.866 166.245 471.217 166.797C471.569 167.349 472.32 169.507 472.886 171.593C473.85 175.149 473.914 176.175 473.898 188.099C473.888 195.806 473.669 202.131 473.344 204.159C471.038 218.512 469.898 224.128 468.049 230.257C465.966 237.154 465.588 238.366 465.267 239.179C465.072 239.67 464.455 241.276 463.894 242.748C460.825 250.809 456.416 257.708 452.909 259.939C451.413 260.889 451.085 261.261 451.739 261.261C456.681 261.261 461.174 255.77 466.701 242.971C468.941 237.785 472.062 226.557 473.893 217.096C476.285 204.74 476.584 201.535 476.577 188.322C476.57 176.899 476.489 175.561 475.627 172.68C474.382 168.516 473.145 166.162 471.453 164.734C469.698 163.254 468.924 163.226 469.859 164.678ZM477.286 171.853C477.308 172.373 477.413 172.478 477.555 172.123C477.683 171.801 477.667 171.416 477.52 171.268C477.372 171.119 477.267 171.383 477.286 171.853ZM178.625 175.374L178.411 176.5H186.165H193.92L193.778 175.496C193.638 174.507 193.529 174.491 186.238 174.37L178.84 174.248L178.625 175.374ZM174.746 175.884C173.282 177.119 172.059 179.116 172.059 180.27C172.059 181.399 172.68 181.042 173.394 179.502C173.793 178.639 174.73 177.734 175.729 177.244C176.794 176.723 177.398 176.117 177.398 175.571C177.398 174.383 176.383 174.503 174.746 175.884ZM194.748 175.608C194.748 176.654 196.145 176.831 196.929 175.883C197.325 175.405 197.279 175.204 196.725 174.991C195.427 174.491 194.748 174.703 194.748 175.608ZM478.211 176.054C478.211 176.667 478.312 176.919 478.435 176.612C478.559 176.305 478.559 175.803 478.435 175.496C478.312 175.19 478.211 175.441 478.211 176.054ZM472.392 176.314C472.414 176.834 472.519 176.939 472.661 176.584C472.79 176.262 472.774 175.877 472.626 175.729C472.478 175.581 472.373 175.844 472.392 176.314ZM448.116 177.027C447.999 177.35 447.598 180.024 447.225 182.969C446.851 185.913 446.153 191.333 445.674 195.014C445.195 198.694 444.496 204.107 444.121 207.042C443.747 209.977 443.333 212.714 443.204 213.123C443.067 213.556 443.26 213.98 443.665 214.136C444.987 214.645 455.116 216.243 455.375 215.984C455.517 215.841 455.98 212.971 456.403 209.606C456.826 206.242 457.492 201.081 457.884 198.136C459.514 185.892 460.333 179.016 460.181 178.863C460.092 178.774 457.775 178.315 455.032 177.843C452.29 177.371 449.659 176.862 449.187 176.712C448.671 176.547 448.244 176.673 448.116 177.027ZM445.108 177.465C443.861 177.921 443.556 178.475 444.299 178.935C444.527 179.076 444.847 178.974 445.011 178.707C445.175 178.442 445.589 178.331 445.931 178.463C446.335 178.618 446.554 178.393 446.554 177.825C446.554 177.341 446.504 176.962 446.443 176.981C446.381 177.001 445.781 177.218 445.108 177.465ZM195.49 178.136C194.814 178.813 195.258 179.623 196.305 179.623C197.121 179.623 197.417 179.385 197.417 178.731C197.417 177.86 196.154 177.47 195.49 178.136ZM472.905 179.177C472.905 180.035 472.997 180.387 473.109 179.957C473.221 179.528 473.221 178.826 473.109 178.396C472.997 177.966 472.905 178.318 472.905 179.177ZM478.808 189.266C478.808 195.617 478.941 199.809 479.103 198.583C479.495 195.611 479.505 181.639 479.116 179.452C478.947 178.499 478.808 182.915 478.808 189.266ZM125.327 180.686C123.726 181.941 121.945 183.28 121.37 183.661L120.324 184.353L121.903 186.428C128.525 195.127 129.635 207.678 124.832 219.55C123.368 223.171 123.432 222.896 124.055 222.896C124.324 222.896 125.175 223.18 125.946 223.528C129.066 224.936 131.706 226.019 132.02 226.019C132.203 226.019 132.474 225.411 132.622 224.669C132.77 223.926 133.392 222.817 134.004 222.203C134.917 221.287 135.277 220.144 136.015 215.808C137.953 204.419 136.502 194.085 131.537 183.911C130.566 181.92 129.426 179.867 129.004 179.348L128.238 178.403L125.327 180.686ZM177.842 178.954C177.842 179.524 179.053 179.623 186.073 179.623C193.092 179.623 194.303 179.524 194.303 178.954C194.303 178.383 193.092 178.285 186.073 178.285C179.053 178.285 177.842 178.383 177.842 178.954ZM175.116 179.467C174.647 180.033 174.474 182.59 174.368 190.508C174.216 201.903 174.363 203.486 175.637 204.169C176.492 204.628 176.508 204.403 176.508 191.683C176.508 184.551 176.332 178.731 176.117 178.731C175.903 178.731 175.452 179.062 175.116 179.467ZM172.059 191.445C172.059 197.542 172.221 201.036 172.504 201.036C172.787 201.036 172.949 197.542 172.949 191.445C172.949 185.348 172.787 181.853 172.504 181.853C172.221 181.853 172.059 185.348 172.059 191.445ZM179.177 191.668V201.036H188.075H196.973V191.668V182.3H188.075H179.177V191.668ZM444.164 187.541C443.843 191.775 442.806 199.828 441.933 204.865C441.512 207.296 441.508 208.025 441.915 208.025C442.208 208.025 442.561 207.115 442.707 205.98C442.852 204.856 443.369 200.824 443.855 197.021C444.341 193.218 444.837 189.504 444.958 188.768C445.649 184.553 445.668 183.638 445.068 183.638C444.624 183.638 444.381 184.687 444.164 187.541ZM472.914 195.906C472.919 196.887 473.01 197.236 473.117 196.681C473.223 196.126 473.219 195.323 473.108 194.897C472.997 194.47 472.909 194.924 472.914 195.906ZM472.428 199.698C472.428 200.311 472.529 200.562 472.652 200.256C472.775 199.949 472.775 199.447 472.652 199.14C472.529 198.834 472.428 199.084 472.428 199.698ZM478.268 203.49C478.272 204.717 478.358 205.165 478.46 204.487C478.562 203.809 478.559 202.806 478.454 202.257C478.349 201.708 478.265 202.263 478.268 203.49ZM172.061 203.155C172.063 204.422 173.72 206.776 175.28 207.73C177.084 208.833 177.398 208.839 177.398 207.772C177.398 207.274 176.748 206.539 175.822 205.992C174.956 205.479 173.905 204.457 173.487 203.72C172.633 202.215 172.058 201.988 172.061 203.155ZM178.139 203.564C177.269 204.436 178.556 204.605 186.073 204.605C193.092 204.605 194.303 204.507 194.303 203.936C194.303 203.366 193.125 203.267 186.37 203.267C182.006 203.267 178.302 203.401 178.139 203.564ZM195.193 204.159C195.193 204.65 195.377 205.051 195.601 205.051C195.826 205.051 196.327 205.173 196.714 205.322C197.244 205.526 197.417 205.307 197.417 204.43C197.417 203.487 197.207 203.267 196.305 203.267C195.49 203.267 195.193 203.505 195.193 204.159ZM471.948 204.419C471.969 204.939 472.074 205.045 472.216 204.689C472.345 204.367 472.329 203.982 472.181 203.834C472.033 203.686 471.928 203.949 471.948 204.419ZM477.541 207.839C476.915 212.471 476.805 214.226 477.222 212.951C477.71 211.458 478.338 205.943 478.021 205.943C477.897 205.943 477.682 206.796 477.541 207.839ZM178.462 207.095C178.611 207.483 178.732 207.99 178.732 208.221C178.732 208.472 181.73 208.592 186.184 208.519C193.531 208.399 193.638 208.383 193.778 207.393L193.92 206.39H186.056C179.068 206.39 178.222 206.468 178.462 207.095ZM194.748 207.553C194.748 208.6 194.871 208.686 195.971 208.409C197.623 207.993 197.716 207.826 196.718 207.068C195.427 206.09 194.748 206.257 194.748 207.553ZM195.527 209.374C194.803 209.563 194.748 210.727 194.748 225.828V242.079H196.083H197.417V225.572C197.417 212.637 197.297 209.077 196.861 209.118C196.556 209.147 195.955 209.262 195.527 209.374ZM178.287 223.972V238.431L180.178 238.738C181.218 238.907 183.971 239.546 186.295 240.16C188.62 240.773 191.173 241.435 191.968 241.63L193.413 241.984V225.749V209.512H185.85H178.287V223.972ZM471.093 210.405C471.093 211.018 471.194 211.269 471.317 210.962C471.441 210.656 471.441 210.154 471.317 209.847C471.194 209.54 471.093 209.791 471.093 210.405ZM440.02 213.802C439.507 214.891 439.72 215.071 440.956 214.595C441.802 214.269 441.885 213.263 441.09 212.958C440.777 212.837 440.295 213.217 440.02 213.802ZM475.78 218.485C475.338 220.72 475.06 222.633 475.164 222.736C475.434 223.006 476.954 215.532 476.752 214.928C476.659 214.65 476.222 216.251 475.78 218.485ZM440.56 216.363C439.814 216.91 439.945 216.994 441.92 217.233C443.123 217.379 445.497 217.785 447.197 218.136C449.733 218.659 450.57 218.672 451.868 218.209C453.693 217.558 453.94 217.66 447.622 216.449C443.193 215.6 441.627 215.581 440.56 216.363ZM141.807 218.313C141.44 218.453 140.662 218.939 140.078 219.393L139.017 220.219H140.333C142.202 220.219 144.828 221.618 145.835 223.15C146.755 224.549 147.02 228.39 146.278 229.566C145.97 230.054 146.276 230.465 147.508 231.225C148.41 231.781 149.307 232.243 149.504 232.25C150.225 232.278 151.149 229.096 151.149 226.584C151.149 222.811 149.238 219.487 146.461 218.428C145.223 217.956 142.894 217.899 141.807 218.313ZM452.832 219.408C451.029 220.238 448.976 220.307 445.899 219.643C445.661 219.592 445.02 221.357 444.475 223.565C443.589 227.156 442.25 232.087 441.421 234.809C441.031 236.091 442.452 236.481 446.37 236.165C449.86 235.884 451.184 235.075 451.785 232.852C452.597 229.848 454.898 220.929 455.188 219.661C455.515 218.231 455.414 218.22 452.832 219.408ZM135.27 223.08C134.175 224.024 134.021 224.468 134.021 226.688C134.021 228.908 134.175 229.351 135.27 230.295C136.98 231.77 138.5 231.673 140.071 229.986C141.549 228.4 141.772 226.324 140.69 224.225C139.443 221.807 137.276 221.349 135.27 223.08ZM142.096 223.657C142.475 224.567 142.785 225.931 142.785 226.688C142.785 227.445 142.475 228.808 142.096 229.718C141.445 231.282 141.453 231.372 142.238 231.372C144.452 231.372 145.811 229.528 145.811 226.521C145.811 224.362 144.06 222.003 142.457 222.003C141.419 222.003 141.415 222.022 142.096 223.657ZM135.128 224.792C134.644 225.589 134.247 226.442 134.247 226.688C134.247 226.933 134.644 227.786 135.128 228.584C136.913 231.519 140.472 230.121 140.472 226.484C140.472 224.454 139.395 223.342 137.428 223.342C136.306 223.342 135.826 223.644 135.128 224.792ZM473.767 227.232C473.251 229.386 472.71 231.651 472.563 232.264C472.373 233.059 472.415 233.187 472.711 232.71C473.267 231.814 475.194 223.807 474.92 223.532C474.801 223.413 474.282 225.078 473.767 227.232ZM122.911 224.215C122.754 224.47 123.146 226.594 123.782 228.935C124.418 231.276 125.18 235.623 125.476 238.595L126.013 243.999L128.116 245.452C129.272 246.25 131.111 247.246 132.203 247.664L134.188 248.424L136.329 246.653C137.506 245.68 138.851 244.749 139.317 244.584C140.038 244.329 139.874 244.101 138.204 243.038C134.315 240.562 132.829 237.59 132.492 231.614L132.242 227.171L128.683 225.748C123.945 223.854 123.247 223.669 122.911 224.215ZM120.428 225.706L119.292 226.129L119.858 229.085C120.169 230.711 120.626 232.944 120.873 234.049C121.119 235.153 121.556 237.863 121.844 240.071C122.132 242.279 122.41 244.144 122.464 244.214C122.518 244.285 123.108 244.093 123.776 243.788L124.991 243.233L124.683 239.421C124.436 236.365 122.15 225.661 121.679 225.357C121.616 225.315 121.053 225.473 120.428 225.706ZM467.944 225.832C467.965 226.352 468.07 226.458 468.212 226.102C468.341 225.78 468.325 225.395 468.177 225.247C468.029 225.099 467.924 225.362 467.944 225.832ZM137.599 226.434C137.458 226.662 137.547 226.975 137.796 227.129C138.044 227.283 138.248 227.096 138.248 226.714C138.248 225.93 137.981 225.815 137.599 226.434ZM422.085 229.17C422.085 230.382 419.433 236.887 416.706 242.362C413.934 247.928 410.672 252.221 408.269 253.467C406.368 254.453 404.115 254.293 402.656 253.069C401.964 252.489 400.973 251.882 400.453 251.719L399.507 251.422L400.299 253.776C402.148 259.271 403.758 262.006 407.012 265.173C411.047 269.1 417.151 271.165 420.113 269.603C421.816 268.705 425.11 265.238 427.185 262.159C428.962 259.523 433.028 251.311 434.588 247.209C436.395 242.454 438.069 237.437 437.904 237.271C437.796 237.163 435.945 236.483 433.79 235.758C429.052 234.166 426.484 232.745 423.976 230.33C422.827 229.223 422.085 228.768 422.085 229.17ZM133.232 231.493C133.114 231.801 133.348 233.369 133.752 234.977C134.737 238.9 136.61 241.208 140.284 243.021C142.773 244.25 143.981 244.52 149.268 245.027C155.764 245.652 169.745 246.754 176.135 247.146L179.988 247.383L178.92 245.511C178.334 244.482 177.848 243.138 177.842 242.525C177.812 239.651 177.758 239.618 172.141 239.051C165.59 238.39 158.165 236.803 151.731 234.689C150.034 234.132 149.679 234.159 147.808 234.989C146.284 235.665 145.293 235.824 143.986 235.602C141.953 235.258 139.918 234.322 139.13 233.37C138.829 233.007 137.934 232.71 137.141 232.71C136.347 232.71 135.192 232.31 134.572 231.822C133.752 231.175 133.388 231.085 133.232 231.493ZM144.563 231.909C144.268 232.205 143.077 232.572 141.916 232.726L139.805 233.006L141.459 233.75C143.345 234.599 146.33 234.725 147.661 234.011C148.559 233.529 148.558 233.52 147.555 232.449C146.449 231.268 145.392 231.078 144.563 231.909ZM470.697 237.738C469.936 240.003 469.179 242.257 469.014 242.748C468.772 243.468 468.807 243.511 469.194 242.971C469.809 242.113 472.509 234.053 472.264 233.807C472.163 233.705 471.457 235.474 470.697 237.738ZM464.829 236.539C464.851 237.059 464.956 237.165 465.098 236.809C465.227 236.487 465.211 236.102 465.063 235.954C464.915 235.806 464.81 236.069 464.829 236.539ZM444.999 237.592L440.553 237.84L439.108 242.079C438.313 244.409 437.47 246.718 437.234 247.209C436.999 247.7 436.277 249.406 435.629 251.001C432.493 258.727 427.234 266.991 423.801 269.585L422.308 270.714L424.31 270.423C425.411 270.263 427.771 269.426 429.555 268.563C436.737 265.089 442.876 256.645 448.244 242.855C450.137 237.995 450.381 237.102 449.779 237.258C449.596 237.305 447.445 237.456 444.999 237.592ZM178.502 240.691C179.369 244.302 179.746 245.294 180.638 246.314C181.591 247.404 181.826 247.445 187.63 247.548L193.636 247.655L193.752 245.87C193.816 244.889 193.701 243.83 193.497 243.518C193.087 242.891 184.881 240.572 180.813 239.933L178.222 239.527L178.502 240.691ZM194.748 243.417C194.748 243.662 195.349 243.863 196.083 243.863C196.817 243.863 197.417 243.662 197.417 243.417C197.417 243.172 196.817 242.971 196.083 242.971C195.349 242.971 194.748 243.172 194.748 243.417ZM467.964 245.034C467.67 245.68 467.532 246.311 467.657 246.436C467.782 246.561 468.095 246.106 468.353 245.424C468.964 243.815 468.658 243.508 467.964 245.034ZM123.528 245.196C122.759 245.647 122.749 245.558 124.897 257.692C125.396 260.514 126.028 264.228 126.301 265.946C126.575 267.663 126.846 269.126 126.904 269.196C126.963 269.267 127.54 269.083 128.186 268.787C128.923 268.451 129.29 267.986 129.169 267.544C129.062 267.155 128.638 264.931 128.226 262.6C127.815 260.269 127.213 256.956 126.889 255.239C126.564 253.521 126.168 251.112 126.009 249.886C125.663 247.226 124.949 244.75 124.533 244.769C124.368 244.776 123.916 244.968 123.528 245.196ZM140.363 245.212C138.701 245.698 135.428 248.352 135.903 248.828C136.113 249.038 137.505 249.339 138.997 249.495C141.46 249.753 141.736 249.696 141.995 248.879C142.152 248.383 142.761 247.457 143.349 246.821C143.937 246.185 144.281 245.588 144.113 245.494C143.28 245.03 141.453 244.892 140.363 245.212ZM194.751 246.205C194.753 247.347 195.036 247.816 196.085 248.415L197.417 249.175V247.236C197.417 245.879 197.206 245.216 196.714 245.026C195.221 244.452 194.748 244.736 194.751 246.205ZM126.465 247.32C126.613 248.241 126.922 249.897 127.151 251.001C127.54 252.873 128.277 257.135 129.504 264.607C130.097 268.217 130.23 268.292 134.493 267.401L137.189 266.838L136.416 262.6C135.991 260.269 135.292 256.338 134.864 253.865L134.085 249.369L132.013 248.631C130.874 248.226 129.199 247.388 128.291 246.771C127.384 246.153 126.541 245.647 126.418 245.647C126.296 245.647 126.317 246.4 126.465 247.32ZM144.904 246.671C144.528 246.967 143.786 247.831 143.253 248.591L142.286 249.974L147.719 250.264C150.707 250.423 157.571 250.685 162.973 250.846L172.794 251.139L174.48 249.989L176.167 248.84L174.224 248.609C173.156 248.482 169.078 248.164 165.163 247.902C161.248 247.64 156.243 247.236 154.041 247.005C151.839 246.773 149.036 246.482 147.813 246.358C146.425 246.218 145.331 246.335 144.904 246.671ZM465.777 249.9C464.996 251.487 464.453 252.785 464.57 252.785C464.868 252.785 467.557 247.377 467.359 247.178C467.269 247.088 466.557 248.313 465.777 249.9ZM176.953 249.657L175.396 250.566L180.067 250.281C182.636 250.124 186.039 249.847 187.63 249.665L190.522 249.334L187.408 249.272C185.695 249.238 182.992 249.106 181.402 248.979C179.021 248.789 178.235 248.908 176.953 249.657ZM135.37 250.949C135.475 251.591 135.96 254.324 136.448 257.023C136.936 259.722 137.466 262.985 137.627 264.273C137.791 265.594 138.143 266.615 138.437 266.615C139.468 266.615 147.488 264.788 153.151 263.264C158.462 261.834 164.543 259.832 171.414 257.251L174.106 256.24L173.662 254.066L173.218 251.893H168.523C159.605 251.893 140.742 250.95 137.966 250.367L135.179 249.781L135.37 250.949ZM178.129 251.334C174.312 251.479 174.197 251.514 174.452 252.469C174.597 253.011 174.719 253.906 174.722 254.458C174.726 255.01 174.999 255.462 175.33 255.462C175.914 255.462 185.401 251.6 185.8 251.2C185.909 251.09 185.115 251.042 184.034 251.093C182.953 251.143 180.296 251.252 178.129 251.334ZM407.688 252.174C406.838 252.636 405.877 252.773 404.796 252.586C403.622 252.383 403.361 252.431 403.845 252.762C404.804 253.417 406.358 253.335 407.871 252.551C408.593 252.176 409.183 251.775 409.183 251.658C409.183 251.371 409.139 251.386 407.688 252.174ZM463.242 254.402C462.822 255.045 462.697 255.436 462.966 255.269C463.48 254.951 464.516 253.231 464.194 253.231C464.091 253.231 463.663 253.758 463.242 254.402ZM231.674 259.7V263.492H234.788H237.902V259.7V255.908H234.788H231.674V259.7ZM239.695 258.027L239.709 260.146L240.805 258.362C242.173 256.135 242.173 255.908 240.794 255.908C239.762 255.908 239.683 256.061 239.695 258.027ZM256.596 257.358C256.612 259.915 257.461 264.847 258.358 267.586C261.281 276.514 269.302 285.051 277.839 288.321C278.886 288.721 279.828 288.962 279.935 288.855C280.041 288.749 279.686 287.766 279.146 286.671C278.343 285.043 277.679 284.441 275.495 283.359C271.54 281.402 265.734 275.396 263.62 271.076C261.337 266.411 260.592 263.845 260.282 259.588L260.014 255.908H258.301C256.663 255.908 256.588 255.971 256.596 257.358ZM275.861 256.243C283.892 256.31 296.905 256.31 304.779 256.242C312.652 256.174 306.081 256.118 290.176 256.119C274.272 256.119 267.83 256.174 275.861 256.243ZM320.651 257.645C320.651 260.254 319.343 266.081 318.149 268.789C316.852 271.732 316.85 271.883 318.113 273.465L319.129 274.738L320.506 271.903C322.154 268.512 323.61 263.058 323.972 258.919L324.235 255.908H322.443C320.657 255.908 320.651 255.914 320.651 257.645ZM461.623 256.689C461.07 257.396 461.086 257.412 461.791 256.857C462.532 256.274 462.768 255.908 462.402 255.908C462.31 255.908 461.959 256.259 461.623 256.689ZM454.083 257.581L453.005 258.808L454.228 257.726C454.901 257.131 455.452 256.579 455.452 256.5C455.452 256.149 455.091 256.434 454.083 257.581ZM261.668 258.696C261.781 259.249 261.99 260.748 262.135 262.03C262.443 264.757 264.449 269.928 266.223 272.568C268.302 275.659 273.209 280.242 276.215 281.9C281.219 284.659 284.628 285.548 290.176 285.543C295.06 285.538 298.199 284.924 301.966 283.239C304.789 281.975 309.531 278.566 311.465 276.408C315.381 272.041 318.871 264.081 318.871 259.52V257.692H290.168H261.464L261.668 258.696ZM233.12 265.601C234.037 265.698 235.539 265.698 236.456 265.601C237.374 265.505 236.623 265.426 234.788 265.426C232.953 265.426 232.202 265.505 233.12 265.601ZM313.61 276.277C307.603 283.636 298.839 287.464 289.051 287.004C286.489 286.883 283.845 286.64 283.175 286.463C281.282 285.963 281.097 287.259 282.648 290.164C288.861 301.801 300.959 312.131 312.421 315.584C318.884 317.532 325.265 318.638 323.259 317.464C322.064 316.764 319.752 312.792 318.793 309.793C318.145 307.764 317.832 305.255 317.664 300.722C317.459 295.236 317.551 293.987 318.404 290.687C319.541 286.29 321.15 283.111 323.114 281.382L324.513 280.151L322.402 279.179C321.224 278.638 319.327 277.151 318.112 275.818L315.934 273.429L313.61 276.277ZM258.986 276.491C256.193 278.393 253.369 279.573 250.377 280.087L247.245 280.626V299.272V317.918L250.248 317.914C260.675 317.899 275.616 311.887 284.129 304.28C285.253 303.276 286.612 302.084 287.149 301.632L288.125 300.809L286.704 299.014C285.922 298.027 284.377 295.844 283.27 294.162C281.356 291.253 281.111 291.052 278.234 290.044C272.125 287.904 266.207 283.533 262.224 278.22L260.271 275.615L258.986 276.491ZM226.207 279.383C226.033 279.558 225.89 288.476 225.89 299.2C225.89 316.449 225.972 318.768 226.595 319.287C227.106 319.712 227.503 319.745 228.041 319.404C228.714 318.978 228.782 317.128 228.782 299.132V279.329L227.653 279.197C227.032 279.124 226.381 279.208 226.207 279.383ZM341.316 279.734C338.874 280.8 336.455 284.439 334.615 289.813C333.401 293.358 333.402 304.909 334.617 308.772C336.27 314.029 338.177 317.007 340.933 318.63C343.508 320.148 344.299 319.96 342.298 318.306C337.038 313.958 334.523 303.373 336.221 292.722C337.11 287.142 339.766 281.845 342.584 280.035C344.179 279.011 343.397 278.825 341.316 279.734ZM223.221 299.181C223.221 311.374 223.376 317.918 223.666 317.918C223.955 317.918 224.111 311.374 224.111 299.181C224.111 286.987 223.955 280.444 223.666 280.444C223.376 280.444 223.221 286.987 223.221 299.181ZM230.784 299.181V317.918H238.569H246.355V299.181V280.444H238.569H230.784V299.181ZM324.828 281.294C316.967 286.101 316.14 309.059 323.568 316.293L325.236 317.918H331.434H337.631L336.331 316.245C333.203 312.22 331.773 306.999 331.773 299.604C331.773 291.811 332.933 287.205 336.036 282.682L337.571 280.444L331.892 280.446C327.1 280.447 325.996 280.58 324.828 281.294ZM346.454 282.898C346.454 283.266 346.609 283.567 346.797 283.567C347.183 283.567 348.771 286.497 349.763 289.037C352.476 295.991 351.192 309.615 347.374 314.379C346.59 315.356 346.199 316.198 346.454 316.356C347.103 316.758 347.689 316.274 348.916 314.326C354.1 306.091 353.662 289.328 348.105 283.232C347.043 282.068 346.454 281.949 346.454 282.898ZM344.395 284.33C340.614 289.458 339.145 299.241 341.06 306.542C342.614 312.467 344.585 315.795 345.894 314.706C346.807 313.946 348.442 310.522 349.367 307.434C350.378 304.054 350.525 295.104 349.622 291.82C348.92 289.268 347.246 285.606 346.096 284.107L345.312 283.087L344.395 284.33ZM351.154 286.374C351.321 286.814 351.57 287.062 351.707 286.924C351.844 286.787 351.708 286.427 351.403 286.124C350.964 285.687 350.913 285.739 351.154 286.374ZM352.55 290.482C352.693 291.463 352.968 292.668 353.163 293.158L353.516 294.051L353.51 293.158C353.507 292.668 353.231 291.463 352.898 290.482L352.291 288.697L352.55 290.482ZM338.669 290.705C338.5 291.476 338.454 292.2 338.568 292.313C338.681 292.427 338.902 291.879 339.058 291.095C339.429 289.236 339.07 288.875 338.669 290.705ZM355.636 291.597C356.244 295.129 356.661 296.35 356.399 293.828C356.258 292.478 355.968 291.073 355.755 290.705C355.511 290.285 355.467 290.616 355.636 291.597ZM337.182 292.489C337.182 293.103 337.283 293.354 337.406 293.047C337.53 292.74 337.53 292.238 337.406 291.932C337.283 291.625 337.182 291.876 337.182 292.489ZM338.088 294.497C338.097 295.233 338.197 295.48 338.31 295.046C338.423 294.612 338.415 294.01 338.293 293.708C338.172 293.405 338.079 293.761 338.088 294.497ZM336.702 294.98C336.723 295.5 336.829 295.605 336.971 295.25C337.099 294.928 337.083 294.543 336.936 294.395C336.788 294.246 336.683 294.51 336.702 294.98ZM353.735 299.404C353.736 301.858 353.811 302.804 353.901 301.508C353.991 300.212 353.99 298.204 353.899 297.047C353.808 295.889 353.734 296.95 353.735 299.404ZM338.105 304.088C338.105 304.947 338.196 305.298 338.308 304.869C338.42 304.439 338.42 303.737 338.308 303.307C338.196 302.878 338.105 303.229 338.105 304.088ZM356.04 304.777C355.87 305.915 355.822 306.938 355.933 307.049C356.044 307.161 356.274 306.321 356.444 305.183C356.614 304.045 356.662 303.023 356.551 302.911C356.44 302.8 356.21 303.64 356.04 304.777ZM352.763 306.969C352.474 308.411 352.315 309.668 352.41 309.763C352.686 310.039 353.674 305.509 353.472 304.9C353.371 304.596 353.052 305.527 352.763 306.969ZM337.182 306.319C337.182 306.932 337.283 307.183 337.406 306.876C337.53 306.57 337.53 306.068 337.406 305.761C337.283 305.455 337.182 305.705 337.182 306.319ZM338.509 306.765C338.509 307.133 338.681 307.835 338.891 308.326C339.132 308.889 339.274 308.971 339.274 308.549C339.274 308.181 339.102 307.479 338.891 306.988C338.65 306.425 338.509 306.343 338.509 306.765ZM354.222 311.256C354.06 311.517 354.024 311.827 354.14 311.944C354.257 312.061 354.471 311.847 354.616 311.468C354.917 310.682 354.66 310.544 354.222 311.256ZM340.226 312.538C340.226 312.769 340.424 313.08 340.666 313.23C340.918 313.386 340.993 313.208 340.841 312.811C340.545 312.038 340.226 311.896 340.226 312.538Z" stroke="#F2F5F7" stroke-opacity="0.4"/>
</svg>
